<?xml version="1.0" standalone="no"?>
<!DOCTYPE svg PUBLIC "-//W3C//DTD SVG 20010904//EN"
 "http://www.w3.org/TR/2001/REC-SVG-20010904/DTD/svg10.dtd">
<svg version="1.0" xmlns="http://www.w3.org/2000/svg"
 width="262.000000pt" height="262.000000pt" viewBox="0 0 262.000000 262.000000"
 preserveAspectRatio="xMidYMid meet">
<metadata>
Created by potrace 1.14, written by Peter Selinger 2001-2017
</metadata>
<g transform="translate(0.000000,262.000000) scale(0.100000,-0.100000)"
fill="#000000" stroke="none">
<path d="M1175 2609 c-33 -4 -94 -15 -135 -24 -41 -9 -82 -18 -90 -19 -8 -1
-24 -7 -35 -13 -17 -9 -89 -35 -105 -38 -6 -1 -134 -69 -175 -93 -26 -15 -76
-49 -110 -74 -28 -21 -133 -118 -169 -156 -43 -46 -165 -212 -166 -225 0 -4
-11 -24 -24 -45 -44 -71 -117 -275 -132 -372 -18 -113 -21 -172 -17 -285 5
-162 6 -165 15 -165 4 0 5 -6 2 -14 -13 -34 73 -288 136 -402 128 -234 331
-430 565 -547 83 -41 157 -71 205 -82 3 -1 25 -7 50 -14 46 -14 67 -19 110
-27 50 -10 347 -13 405 -4 243 38 468 135 586 253 65 66 80 85 111 145 12 26
27 50 31 53 5 3 8 9 8 13 -1 3 6 32 16 64 12 40 17 91 17 172 -1 98 -5 126
-28 193 -88 258 -320 426 -587 425 -343 -1 -609 -256 -624 -598 -5 -113 30
-257 81 -335 l15 -24 44 27 43 26 -19 37 c-134 263 -33 578 224 707 400 199
844 -163 732 -596 -10 -39 -22 -72 -27 -72 -4 0 -8 -7 -8 -16 0 -18 -51 -94
-89 -132 -107 -107 -282 -189 -489 -228 -112 -21 -291 -24 -407 -7 -112 18
-274 72 -374 125 -331 176 -567 504 -627 868 -20 125 -20 328 1 400 2 8 7 31
10 50 10 59 55 191 93 270 32 67 126 215 155 245 7 6 31 32 54 58 53 57 152
140 223 186 63 40 205 111 223 111 7 0 17 4 22 9 11 9 147 46 215 58 59 9 334
10 385 0 22 -4 58 -13 80 -18 22 -6 45 -12 50 -13 162 -35 400 -176 536 -318
64 -65 156 -185 179 -233 8 -16 17 -32 20 -35 5 -5 35 -67 63 -133 35 -80 89
-73 -575 -73 -669 -1 -664 -1 -818 -76 -64 -32 -103 -60 -157 -115 -40 -40
-73 -79 -73 -88 0 -8 -4 -15 -9 -15 -16 0 -74 -142 -87 -215 -7 -38 -6 -38
-38 -21 -15 8 -35 13 -44 11 -9 -2 -25 -4 -35 -4 -11 -1 -32 -15 -48 -32 -52
-56 -33 -141 39 -173 31 -14 41 -25 48 -53 28 -110 198 -97 207 15 1 17 10 25
37 32 72 20 106 88 75 153 -19 41 -69 69 -109 61 -25 -4 -27 -2 -21 17 4 12 8
27 9 34 6 38 76 156 120 200 64 64 111 95 206 131 l75 29 682 3 682 3 -10 26
c-5 14 -7 28 -4 31 2 3 1 10 -4 16 -5 6 -16 38 -26 70 -30 108 -129 300 -190
370 -14 16 -25 32 -25 36 0 10 -171 181 -216 215 -173 132 -373 223 -569 260
-102 19 -291 25 -390 14z"/>
<path d="M1930 2052 c-30 -9 -70 -56 -76 -89 -14 -73 39 -132 115 -129 107 6
143 156 48 204 -27 14 -67 21 -87 14z"/>
</g>
</svg>
