<svg width="17" height="13" viewBox="0 0 17 13" fill="none" xmlns="http://www.w3.org/2000/svg">
<g clip-path="url(#clip0_1177_5491)">
<path d="M11.05 4.46875C11.05 2.00078 8.57702 0 5.52499 0C2.47296 0 -1.17894e-05 2.00078 -1.17894e-05 4.46875C-1.17894e-05 5.47346 0.414895 6.39742 1.10685 7.14492C0.671488 7.97672 0.0648007 8.60031 0.0552382 8.60945C-0.000543039 8.66544 -0.0156837 8.74847 0.0169617 8.82157C0.050457 8.89434 0.122229 8.9375 0.203457 8.9375C1.22213 8.9375 2.08302 8.65516 2.74655 8.32711C3.56468 8.71152 4.5103 8.9375 5.52499 8.9375C8.57702 8.9375 11.05 6.93672 11.05 4.46875ZM15.9269 11.2658C16.5962 10.5092 17 9.56211 17 8.53125C17 6.06328 14.7156 4.0625 11.9 4.0625C11.8916 4.0625 11.8835 4.06354 11.8752 4.06359C11.8867 4.19707 11.9 4.33164 11.9 4.46875C11.9 6.97277 9.78349 9.06953 6.95671 9.61035C7.50921 11.5553 9.48546 13 11.9 13C12.7949 13 13.6351 12.7967 14.3663 12.4419C15.0131 12.7461 15.8339 13 16.7955 13C16.8767 13 16.9485 12.9562 16.9819 12.8831C17.0146 12.81 16.9994 12.727 16.9437 12.671C16.9362 12.6623 16.3598 12.0682 15.9269 11.2658Z" fill="black"/>
</g>
<defs>
<clipPath id="clip0_1177_5491">
<rect width="17" height="13" fill="white"/>
</clipPath>
</defs>
</svg>
