<svg id="Слой_1" data-name="Слой 1" xmlns="http://www.w3.org/2000/svg" viewBox="0 0 200.62 55.14"><defs><style>.cls-1{fill:#fff;}.cls-2{fill:none;stroke:#fff;stroke-miterlimit:10;stroke-width:3px;}</style></defs><path class="cls-1" d="M271.29,438.72l2.77,1.45a15.45,15.45,0,0,1-3.14,4.32,12.53,12.53,0,0,1-4,2.49,13.94,13.94,0,0,1-5,.86q-6.24,0-9.76-4.09a13.84,13.84,0,0,1-3.52-9.25,13.68,13.68,0,0,1,3-8.65A12.18,12.18,0,0,1,261.67,421a12.59,12.59,0,0,1,10.42,5,13.82,13.82,0,0,1,2.81,8.72H252A10.36,10.36,0,0,0,254.8,442a9,9,0,0,0,6.78,2.84,10.93,10.93,0,0,0,3.79-.67,10,10,0,0,0,3.13-1.8A15.47,15.47,0,0,0,271.29,438.72Zm0-6.87a10.65,10.65,0,0,0-1.91-4.19,9,9,0,0,0-3.32-2.53,10.18,10.18,0,0,0-4.34-1,9.34,9.34,0,0,0-6.45,2.41,10.84,10.84,0,0,0-3,5.27Z" transform="translate(-197.19 -392.93)"/><path class="cls-1" d="M281,411.84h3.28V432l11.82-10.29h4.82l-14,12.16,14.84,13.34h-4.62L284.28,435.7v11.48H281Z" transform="translate(-197.19 -392.93)"/><path class="cls-1" d="M337.76,419.1,335,421.19a14.92,14.92,0,0,0-5.4-4.44,15.76,15.76,0,0,0-6.92-1.51,15.3,15.3,0,0,0-7.64,2,14.15,14.15,0,0,0-5.45,5.32,14.69,14.69,0,0,0-1.94,7.51A14.07,14.07,0,0,0,312,440.57a15,15,0,0,0,10.91,4.22A15.33,15.33,0,0,0,335,439.12l2.72,2.06a17.41,17.41,0,0,1-6.43,5.08,20.25,20.25,0,0,1-8.61,1.79q-9.06,0-14.28-6a18.17,18.17,0,0,1-4.38-12.28A17.06,17.06,0,0,1,309.37,417a18.28,18.28,0,0,1,13.3-5.17,19.45,19.45,0,0,1,8.72,1.91A16.91,16.91,0,0,1,337.76,419.1Z" transform="translate(-197.19 -392.93)"/><path class="cls-1" d="M356.21,421a12.66,12.66,0,0,1,9.77,4.27,13.69,13.69,0,0,1-.2,18.55,13.47,13.47,0,0,1-19.16,0,13.67,13.67,0,0,1-.2-18.53A12.61,12.61,0,0,1,356.21,421Zm0,3.22a9.46,9.46,0,0,0-7,3,10.09,10.09,0,0,0-2.94,7.31,10.42,10.42,0,0,0,1.34,5.16,9.61,9.61,0,0,0,3.63,3.69,10.3,10.3,0,0,0,10,0,9.58,9.58,0,0,0,3.62-3.69,10.42,10.42,0,0,0,1.34-5.16,10.06,10.06,0,0,0-2.95-7.31A9.46,9.46,0,0,0,356.2,424.24Z" transform="translate(-197.19 -392.93)"/><path class="cls-1" d="M375.57,421.68h3.28v4.57a13.52,13.52,0,0,1,4.36-3.92,10.68,10.68,0,0,1,5.2-1.31,9.05,9.05,0,0,1,5.08,1.46,8.66,8.66,0,0,1,3.26,3.91q1.06,2.46,1.06,7.67v13.12h-3.28V435a29.43,29.43,0,0,0-.37-5.89,6.49,6.49,0,0,0-2.18-3.8,6.57,6.57,0,0,0-4.22-1.28,8.06,8.06,0,0,0-5.34,2,9.18,9.18,0,0,0-3.1,4.87,33.39,33.39,0,0,0-.47,6.94v9.35h-3.28Z" transform="translate(-197.19 -392.93)"/><circle class="cls-1" cx="40.85" cy="14.38" r="2.28"/><path class="cls-2" d="M221.71,439.3a11.83,11.83,0,1,1,16,3.85h0A26.07,26.07,0,1,1,250,414H224.88s-11.56.25-11.8,13" transform="translate(-197.19 -392.93)"/><circle class="cls-1" cx="13.19" cy="32.71" r="2.25"/><circle class="cls-1" cx="19.36" cy="32.97" r="2.25"/><circle class="cls-1" cx="16.03" cy="35.77" r="2.25"/></svg>