<?xml version="1.0" standalone="no"?>
<!DOCTYPE svg PUBLIC "-//W3C//DTD SVG 20010904//EN"
 "http://www.w3.org/TR/2001/REC-SVG-20010904/DTD/svg10.dtd">
<svg version="1.0" xmlns="http://www.w3.org/2000/svg"
 width="700.000000pt" height="700.000000pt" viewBox="0 0 700.000000 700.000000"
 preserveAspectRatio="xMidYMid meet">
<metadata>
Created by potrace 1.14, written by Peter Selinger 2001-2017
</metadata>
<g transform="translate(0.000000,700.000000) scale(0.100000,-0.100000)"
fill="#000000" stroke="none">
<path d="M3453 5737 c-112 -998 -858 -1863 -1837 -2132 -110 -30 -304 -67
-406 -78 -19 -2 481 -5 1113 -5 l1147 -2 0 1160 c0 638 -1 1160 -3 1160 -2 0
-8 -46 -14 -103z"/>
<path d="M3471 2348 c1 -994 3 -1148 14 -1058 69 569 327 1095 732 1491 135
133 165 159 283 246 351 259 765 422 1205 476 17 2 -480 5 -1102 6 l-1133 1 1
-1162z"/>
</g>
</svg>
