<svg width="1379" height="296" viewBox="0 0 1379 296" fill="none" xmlns="http://www.w3.org/2000/svg">
<path d="M191.682 135.034L136.284 138.443C135.337 133.708 133.301 129.447 130.176 125.659C127.051 121.777 122.932 118.699 117.818 116.426C112.799 114.059 106.786 112.875 99.7784 112.875C90.4034 112.875 82.4962 114.864 76.0568 118.841C69.6174 122.723 66.3977 127.932 66.3977 134.466C66.3977 139.674 68.4811 144.078 72.6477 147.676C76.8144 151.275 83.964 154.163 94.0966 156.341L133.585 164.295C154.797 168.652 170.612 175.659 181.028 185.318C191.445 194.977 196.653 207.667 196.653 223.386C196.653 237.686 192.439 250.233 184.011 261.028C175.678 271.824 164.22 280.252 149.636 286.312C135.148 292.278 118.434 295.261 99.4943 295.261C70.6117 295.261 47.6004 289.248 30.4602 277.222C13.4148 265.1 3.42424 248.623 0.488637 227.79L60.0057 224.665C61.8049 233.472 66.161 240.195 73.0739 244.835C79.9867 249.381 88.8409 251.653 99.6364 251.653C110.242 251.653 118.765 249.617 125.205 245.545C131.739 241.379 135.053 236.028 135.148 229.494C135.053 224.002 132.733 219.504 128.188 216C123.642 212.402 116.634 209.655 107.165 207.761L69.3807 200.233C48.0739 195.972 32.2121 188.585 21.7955 178.074C11.4735 167.562 6.3125 154.163 6.3125 137.875C6.3125 123.86 10.1004 111.786 17.6761 101.653C25.3466 91.5208 36.0947 83.7083 49.9205 78.2159C63.8409 72.7235 80.1288 69.9773 98.7841 69.9773C126.341 69.9773 148.027 75.8011 163.841 87.4489C179.75 99.0966 189.03 114.958 191.682 135.034ZM265.268 164.864V291H204.757V0.0909004H263.564V111.312H266.121C271.045 98.4337 279 88.3485 289.984 81.0568C300.969 73.6705 314.748 69.9773 331.32 69.9773C346.471 69.9773 359.681 73.2917 370.95 79.9205C382.314 86.4545 391.121 95.8769 397.371 108.188C403.715 120.403 406.84 135.034 406.746 152.08V291H346.234V162.875C346.329 149.428 342.92 138.964 336.007 131.483C329.189 124.002 319.625 120.261 307.314 120.261C299.075 120.261 291.784 122.013 285.439 125.517C279.189 129.021 274.265 134.134 270.666 140.858C267.162 147.487 265.363 155.489 265.268 164.864ZM564.281 198.102V72.8182H624.793V291H566.696V251.369H564.423C559.499 264.153 551.308 274.428 539.849 282.193C528.486 289.958 514.613 293.841 498.23 293.841C483.647 293.841 470.815 290.527 459.736 283.898C448.656 277.269 439.991 267.847 433.741 255.631C427.586 243.415 424.461 228.784 424.366 211.739V72.8182H484.878V200.943C484.973 213.822 488.429 224.002 495.247 231.483C502.065 238.964 511.204 242.705 522.662 242.705C529.954 242.705 536.772 241.047 543.116 237.733C549.461 234.324 554.575 229.305 558.457 222.676C562.435 216.047 564.376 207.856 564.281 198.102ZM759.246 72.8182V118.273H627.854V72.8182H759.246ZM657.683 20.5455H718.195V223.955C718.195 229.542 719.047 233.898 720.751 237.023C722.456 240.053 724.823 242.184 727.854 243.415C730.979 244.646 734.577 245.261 738.649 245.261C741.49 245.261 744.331 245.025 747.172 244.551C750.013 243.983 752.191 243.557 753.706 243.273L763.223 288.301C760.193 289.248 755.931 290.337 750.439 291.568C744.946 292.894 738.27 293.699 730.411 293.983C715.827 294.551 703.043 292.61 692.058 288.159C681.168 283.708 672.693 276.795 666.632 267.42C660.571 258.045 657.589 246.208 657.683 231.909V20.5455ZM884.714 72.8182V118.273H753.322V72.8182H884.714ZM783.152 20.5455H843.663V223.955C843.663 229.542 844.516 233.898 846.22 237.023C847.925 240.053 850.292 242.184 853.322 243.415C856.447 244.646 860.046 245.261 864.118 245.261C866.959 245.261 869.8 245.025 872.641 244.551C875.482 243.983 877.66 243.557 879.175 243.273L888.692 288.301C885.661 289.248 881.4 290.337 875.908 291.568C870.415 292.894 863.739 293.699 855.879 293.983C841.296 294.551 828.512 292.61 817.527 288.159C806.637 283.708 798.161 276.795 792.101 267.42C786.04 258.045 783.057 246.208 783.152 231.909V20.5455ZM959.331 0.0909004V291H898.82V0.0909004H959.331ZM1077.24 295.261C1054.79 295.261 1035.47 290.716 1019.28 281.625C1003.18 272.439 990.777 259.466 982.065 242.705C973.353 225.848 968.997 205.915 968.997 182.903C968.997 160.46 973.353 140.763 982.065 123.812C990.777 106.862 1003.04 93.6515 1018.86 84.1818C1034.76 74.7121 1053.42 69.9773 1074.82 69.9773C1089.21 69.9773 1102.61 72.2973 1115.02 76.9375C1127.52 81.483 1138.41 88.3485 1147.69 97.5341C1157.07 106.72 1164.36 118.273 1169.57 132.193C1174.77 146.019 1177.38 162.212 1177.38 180.773V197.392H993.145V159.892H1120.42C1120.42 151.18 1118.52 143.462 1114.74 136.739C1110.95 130.015 1105.69 124.759 1098.97 120.972C1092.34 117.089 1084.62 115.148 1075.82 115.148C1066.63 115.148 1058.49 117.278 1051.38 121.54C1044.38 125.706 1038.88 131.341 1034.91 138.443C1030.93 145.451 1028.89 153.263 1028.8 161.881V197.534C1028.8 208.33 1030.79 217.657 1034.76 225.517C1038.84 233.377 1044.57 239.438 1051.95 243.699C1059.34 247.96 1068.1 250.091 1078.23 250.091C1084.95 250.091 1091.11 249.144 1096.7 247.25C1102.28 245.356 1107.07 242.515 1111.04 238.727C1115.02 234.939 1118.05 230.299 1120.13 224.807L1176.1 228.5C1173.26 241.947 1167.43 253.689 1158.63 263.727C1149.92 273.67 1138.65 281.436 1124.82 287.023C1111.09 292.515 1095.23 295.261 1077.24 295.261ZM1233.53 72.8182L1273.59 149.097L1314.64 72.8182H1376.71L1313.5 181.909L1378.41 291H1316.62L1273.59 215.574L1231.26 291H1168.76L1233.53 181.909L1171.03 72.8182H1233.53Z" fill="black"/>
</svg>
