<svg width="111" height="30" viewBox="0 0 111 30" fill="none" xmlns="http://www.w3.org/2000/svg">
<path d="M49.2273 15.7614L47.0114 15.8977C46.9735 15.7083 46.892 15.5379 46.767 15.3864C46.642 15.2311 46.4773 15.108 46.2727 15.017C46.072 14.9223 45.8314 14.875 45.5511 14.875C45.1761 14.875 44.8598 14.9545 44.6023 15.1136C44.3447 15.2689 44.2159 15.4773 44.2159 15.7386C44.2159 15.947 44.2992 16.1231 44.4659 16.267C44.6326 16.411 44.9186 16.5265 45.3239 16.6136L46.9034 16.9318C47.7519 17.1061 48.3845 17.3864 48.8011 17.7727C49.2178 18.1591 49.4261 18.6667 49.4261 19.2955C49.4261 19.8674 49.2576 20.3693 48.9205 20.8011C48.5871 21.233 48.1288 21.5701 47.5455 21.8125C46.9659 22.0511 46.2973 22.1705 45.5398 22.1705C44.3845 22.1705 43.464 21.9299 42.7784 21.4489C42.0966 20.964 41.697 20.3049 41.5795 19.4716L43.9602 19.3466C44.0322 19.6989 44.2064 19.9678 44.483 20.1534C44.7595 20.3352 45.1136 20.4261 45.5455 20.4261C45.9697 20.4261 46.3106 20.3447 46.5682 20.1818C46.8295 20.0152 46.9621 19.8011 46.9659 19.5398C46.9621 19.3201 46.8693 19.1402 46.6875 19C46.5057 18.8561 46.2254 18.7462 45.8466 18.6705L44.3352 18.3693C43.483 18.1989 42.8485 17.9034 42.4318 17.483C42.0189 17.0625 41.8125 16.5265 41.8125 15.875C41.8125 15.3144 41.964 14.8314 42.267 14.4261C42.5739 14.0208 43.0038 13.7083 43.5568 13.4886C44.1136 13.2689 44.7652 13.1591 45.5114 13.1591C46.6136 13.1591 47.4811 13.392 48.1136 13.858C48.75 14.3239 49.1212 14.9583 49.2273 15.7614ZM52.9002 16.9545V22H50.4797V10.3636H52.832V14.8125H52.9342C53.1312 14.2973 53.4494 13.8939 53.8888 13.6023C54.3282 13.3068 54.8793 13.1591 55.5422 13.1591C56.1483 13.1591 56.6767 13.2917 57.1274 13.5568C57.582 13.8182 57.9342 14.1951 58.1842 14.6875C58.438 15.1761 58.563 15.7614 58.5592 16.4432V22H56.1388V16.875C56.1426 16.3371 56.0062 15.9186 55.7297 15.6193C55.457 15.3201 55.0744 15.1705 54.582 15.1705C54.2524 15.1705 53.9608 15.2405 53.707 15.3807C53.457 15.5208 53.26 15.7254 53.1161 15.9943C52.9759 16.2595 52.9039 16.5795 52.9002 16.9545ZM65.5901 18.2841V13.2727H68.0105V22H65.6867V20.4148H65.5958C65.3988 20.9261 65.0711 21.3371 64.6128 21.6477C64.1583 21.9583 63.6033 22.1136 62.948 22.1136C62.3647 22.1136 61.8514 21.9811 61.4083 21.7159C60.9651 21.4508 60.6185 21.0739 60.3685 20.5852C60.1223 20.0966 59.9973 19.5114 59.9935 18.8295V13.2727H62.4139V18.3977C62.4177 18.9129 62.556 19.3201 62.8287 19.6193C63.1014 19.9186 63.467 20.0682 63.9253 20.0682C64.217 20.0682 64.4897 20.0019 64.7435 19.8693C64.9973 19.733 65.2018 19.5322 65.3571 19.267C65.5162 19.0019 65.5939 18.6742 65.5901 18.2841ZM74.1181 13.2727V15.0909H68.8624V13.2727H74.1181ZM70.0556 11.1818H72.476V19.3182C72.476 19.5417 72.5101 19.7159 72.5783 19.8409C72.6465 19.9621 72.7412 20.0473 72.8624 20.0966C72.9874 20.1458 73.1313 20.1705 73.2942 20.1705C73.4078 20.1705 73.5215 20.161 73.6351 20.142C73.7487 20.1193 73.8359 20.1023 73.8965 20.0909L74.2772 21.892C74.1559 21.9299 73.9855 21.9735 73.7658 22.0227C73.5461 22.0758 73.2791 22.108 72.9647 22.1193C72.3813 22.142 71.87 22.0644 71.4306 21.8864C70.995 21.7083 70.6559 21.4318 70.4135 21.0568C70.1711 20.6818 70.0518 20.2083 70.0556 19.6364V11.1818ZM79.8662 13.2727V15.0909H74.6105V13.2727H79.8662ZM75.8037 11.1818H78.2242V19.3182C78.2242 19.5417 78.2583 19.7159 78.3265 19.8409C78.3946 19.9621 78.4893 20.0473 78.6105 20.0966C78.7355 20.1458 78.8795 20.1705 79.0424 20.1705C79.156 20.1705 79.2696 20.161 79.3833 20.142C79.4969 20.1193 79.584 20.1023 79.6446 20.0909L80.0253 21.892C79.9041 21.9299 79.7336 21.9735 79.514 22.0227C79.2943 22.0758 79.0272 22.108 78.7128 22.1193C78.1295 22.142 77.6181 22.0644 77.1787 21.8864C76.7431 21.7083 76.4041 21.4318 76.1617 21.0568C75.9193 20.6818 75.7999 20.2083 75.8037 19.6364V11.1818ZM83.5803 10.3636V22H81.1598V10.3636H83.5803ZM89.0259 22.1705C88.1282 22.1705 87.3554 21.9886 86.7077 21.625C86.0638 21.2576 85.5676 20.7386 85.2191 20.0682C84.8706 19.3939 84.6964 18.5966 84.6964 17.6761C84.6964 16.7784 84.8706 15.9905 85.2191 15.3125C85.5676 14.6345 86.0581 14.1061 86.6907 13.7273C87.327 13.3485 88.0733 13.1591 88.9293 13.1591C89.5051 13.1591 90.0411 13.2519 90.5373 13.4375C91.0373 13.6193 91.4729 13.8939 91.8441 14.2614C92.2191 14.6288 92.5108 15.0909 92.7191 15.6477C92.9274 16.2008 93.0316 16.8485 93.0316 17.5909V18.2557H85.6623V16.7557H90.7532C90.7532 16.4072 90.6774 16.0985 90.5259 15.8295C90.3744 15.5606 90.1642 15.3504 89.8952 15.1989C89.6301 15.0436 89.3214 14.9659 88.9691 14.9659C88.6017 14.9659 88.2759 15.0511 87.9918 15.2216C87.7115 15.3883 87.4918 15.6136 87.3327 15.8977C87.1736 16.178 87.0922 16.4905 87.0884 16.8352V18.2614C87.0884 18.6932 87.1679 19.0663 87.327 19.3807C87.4899 19.6951 87.7191 19.9375 88.0145 20.108C88.31 20.2784 88.6604 20.3636 89.0657 20.3636C89.3346 20.3636 89.5808 20.3258 89.8043 20.25C90.0278 20.1742 90.2191 20.0606 90.3782 19.9091C90.5373 19.7576 90.6585 19.572 90.7418 19.3523L92.9804 19.5C92.8668 20.0379 92.6339 20.5076 92.2816 20.9091C91.9331 21.3068 91.4823 21.6174 90.9293 21.8409C90.3801 22.0606 89.7456 22.1705 89.0259 22.1705ZM96.007 13.2727L97.6093 16.3239L99.2513 13.2727H101.734L99.2059 17.6364L101.802 22H99.3309L97.6093 18.983L95.9161 22H93.4161L96.007 17.6364L93.507 13.2727H96.007Z" fill="white"/>
<mask id="mask0_99_156" style="mask-type:luminance" maskUnits="userSpaceOnUse" x="0" y="0" width="30" height="30">
<rect width="29.8" height="29.8" rx="10" fill="white"/>
</mask>
<g mask="url(#mask0_99_156)">
</g>
<mask id="mask1_99_156" style="mask-type:luminance" maskUnits="userSpaceOnUse" x="0" y="0" width="30" height="30">
<rect width="29.8" height="29.8" rx="10" fill="white"/>
</mask>
<g mask="url(#mask1_99_156)">
<path fill-rule="evenodd" clip-rule="evenodd" d="M25.6957 14.9287H14.8701V25.7543C14.8701 19.7775 19.7165 14.9309 25.6957 14.9287Z" fill="#CEFC28"/>
<path fill-rule="evenodd" clip-rule="evenodd" d="M4.04457 14.9287L14.8701 14.9287L14.8701 4.10316C14.8701 10.0799 10.0237 14.9265 4.04457 14.9287Z" fill="#CEFC28"/>
</g>
</svg>
