<svg width="111" height="30" viewBox="0 0 111 30" fill="none" xmlns="http://www.w3.org/2000/svg">
<g clip-path="url(#clip0_48_449)">
<path d="M43.624 19.312C43.624 19.5573 43.672 19.7707 43.768 19.952C43.8747 20.1227 44.008 20.2667 44.168 20.384C44.328 20.4907 44.5093 20.5707 44.712 20.624C44.9253 20.6773 45.144 20.704 45.368 20.704C45.528 20.704 45.6933 20.688 45.864 20.656C46.0453 20.6133 46.2053 20.5547 46.344 20.48C46.4933 20.3947 46.616 20.288 46.712 20.16C46.808 20.0213 46.856 19.8507 46.856 19.648C46.856 19.3067 46.6267 19.0507 46.168 18.88C45.72 18.7093 45.0907 18.5387 44.28 18.368C43.9493 18.2933 43.624 18.208 43.304 18.112C42.9947 18.0053 42.7173 17.872 42.472 17.712C42.2267 17.5413 42.0293 17.3333 41.88 17.088C41.7307 16.832 41.656 16.5227 41.656 16.16C41.656 15.6267 41.7573 15.1893 41.96 14.848C42.1733 14.5067 42.4507 14.24 42.792 14.048C43.1333 13.8453 43.5173 13.7067 43.944 13.632C44.3707 13.5467 44.808 13.504 45.256 13.504C45.704 13.504 46.136 13.5467 46.552 13.632C46.9787 13.7173 47.3573 13.8613 47.688 14.064C48.0187 14.2667 48.2907 14.5387 48.504 14.88C48.728 15.2107 48.8613 15.632 48.904 16.144H46.744C46.712 15.7067 46.5467 15.4133 46.248 15.264C45.9493 15.104 45.5973 15.024 45.192 15.024C45.064 15.024 44.9253 15.0347 44.776 15.056C44.6267 15.0667 44.488 15.0987 44.36 15.152C44.2427 15.2053 44.1413 15.2853 44.056 15.392C43.9707 15.488 43.928 15.6213 43.928 15.792C43.928 15.9947 44.0027 16.16 44.152 16.288C44.3013 16.416 44.4933 16.5227 44.728 16.608C44.9733 16.6827 45.2507 16.752 45.56 16.816C45.8693 16.88 46.184 16.9493 46.504 17.024C46.8347 17.0987 47.1547 17.1893 47.464 17.296C47.784 17.4027 48.0667 17.5467 48.312 17.728C48.5573 17.8987 48.7547 18.1173 48.904 18.384C49.0533 18.64 49.128 18.96 49.128 19.344C49.128 19.888 49.016 20.3467 48.792 20.72C48.5787 21.0827 48.296 21.376 47.944 21.6C47.592 21.824 47.1867 21.9787 46.728 22.064C46.28 22.16 45.8213 22.208 45.352 22.208C44.872 22.208 44.4027 22.16 43.944 22.064C43.4853 21.968 43.0747 21.808 42.712 21.584C42.36 21.36 42.0667 21.0667 41.832 20.704C41.608 20.3307 41.4853 19.8667 41.464 19.312H43.624ZM49.9872 10.576H52.2592V14.88H52.3072C52.5952 14.4 52.9632 14.0533 53.4112 13.84C53.8592 13.616 54.2965 13.504 54.7232 13.504C55.3312 13.504 55.8272 13.5893 56.2112 13.76C56.6058 13.92 56.9152 14.1493 57.1392 14.448C57.3632 14.736 57.5178 15.0933 57.6032 15.52C57.6992 15.936 57.7472 16.4 57.7472 16.912V22H55.4752V17.328C55.4752 16.6453 55.3685 16.1387 55.1552 15.808C54.9418 15.4667 54.5632 15.296 54.0192 15.296C53.4005 15.296 52.9525 15.4827 52.6752 15.856C52.3978 16.2187 52.2592 16.8213 52.2592 17.664V22H49.9872V10.576ZM66.7609 22H64.6009V20.848H64.5529C64.2649 21.328 63.8916 21.6747 63.4329 21.888C62.9743 22.1013 62.5049 22.208 62.0249 22.208C61.4169 22.208 60.9156 22.128 60.5209 21.968C60.1369 21.808 59.8329 21.584 59.6089 21.296C59.3849 20.9973 59.2249 20.64 59.1289 20.224C59.0436 19.7973 59.0009 19.328 59.0009 18.816V13.728H61.2729V18.4C61.2729 19.0827 61.3796 19.5947 61.5929 19.936C61.8063 20.2667 62.1849 20.432 62.7289 20.432C63.3476 20.432 63.7956 20.2507 64.0729 19.888C64.3503 19.5147 64.4889 18.9067 64.4889 18.064V13.728H66.7609V22ZM70.8947 13.728H72.5587V15.248H70.8947V19.344C70.8947 19.728 70.9587 19.984 71.0867 20.112C71.2147 20.24 71.4707 20.304 71.8547 20.304C71.9827 20.304 72.1054 20.2987 72.2227 20.288C72.3401 20.2773 72.4521 20.2613 72.5587 20.24V22C72.3667 22.032 72.1534 22.0533 71.9187 22.064C71.6841 22.0747 71.4547 22.08 71.2307 22.08C70.8787 22.08 70.5427 22.0533 70.2227 22C69.9134 21.9573 69.6361 21.8667 69.3907 21.728C69.1561 21.5893 68.9694 21.392 68.8307 21.136C68.6921 20.88 68.6227 20.544 68.6227 20.128V15.248H67.2467V13.728H68.6227V11.248H70.8947V13.728ZM76.0491 13.728H77.7131V15.248H76.0491V19.344C76.0491 19.728 76.1131 19.984 76.2411 20.112C76.3691 20.24 76.6251 20.304 77.0091 20.304C77.1371 20.304 77.2598 20.2987 77.3771 20.288C77.4945 20.2773 77.6065 20.2613 77.7131 20.24V22C77.5211 22.032 77.3078 22.0533 77.0731 22.064C76.8385 22.0747 76.6091 22.08 76.3851 22.08C76.0331 22.08 75.6971 22.0533 75.3771 22C75.0678 21.9573 74.7905 21.8667 74.5451 21.728C74.3105 21.5893 74.1238 21.392 73.9851 21.136C73.8465 20.88 73.7771 20.544 73.7771 20.128V15.248H72.4011V13.728H73.7771V11.248H76.0491V13.728ZM78.3876 10.576H80.6596V22H78.3876V10.576ZM87.546 16.976C87.4393 16.4 87.2473 15.9627 86.97 15.664C86.7033 15.3653 86.2926 15.216 85.738 15.216C85.3753 15.216 85.0713 15.28 84.826 15.408C84.5913 15.5253 84.3993 15.6747 84.25 15.856C84.1113 16.0373 84.01 16.2293 83.946 16.432C83.8926 16.6347 83.8606 16.816 83.85 16.976H87.546ZM83.85 18.416C83.882 19.152 84.0686 19.6853 84.41 20.016C84.7513 20.3467 85.242 20.512 85.882 20.512C86.3406 20.512 86.7353 20.4 87.066 20.176C87.3966 19.9413 87.5993 19.696 87.674 19.44H89.674C89.354 20.432 88.8633 21.1413 88.202 21.568C87.5406 21.9947 86.7406 22.208 85.802 22.208C85.1513 22.208 84.5646 22.1067 84.042 21.904C83.5193 21.6907 83.0766 21.392 82.714 21.008C82.3513 20.624 82.0686 20.1653 81.866 19.632C81.674 19.0987 81.578 18.512 81.578 17.872C81.578 17.2533 81.6793 16.6773 81.882 16.144C82.0846 15.6107 82.3726 15.152 82.746 14.768C83.1193 14.3733 83.562 14.064 84.074 13.84C84.5966 13.616 85.1726 13.504 85.802 13.504C86.506 13.504 87.1193 13.6427 87.642 13.92C88.1646 14.1867 88.5913 14.5493 88.922 15.008C89.2633 15.4667 89.5086 15.9893 89.658 16.576C89.8073 17.1627 89.8606 17.776 89.818 18.416H83.85ZM92.8069 17.648L90.0869 13.728H92.6789L94.1349 15.888L95.5749 13.728H98.0869L95.3669 17.6L98.4229 22H95.8309L94.1029 19.392L92.3749 22H89.8309L92.8069 17.648Z" fill="black"/>
<rect width="29.8" height="29.8" rx="10" fill="#CEFC28"/>
<mask id="mask0_48_449" style="mask-type:luminance" maskUnits="userSpaceOnUse" x="0" y="0" width="30" height="30">
<rect width="29.8" height="29.8" rx="10" fill="white"/>
</mask>
<g mask="url(#mask0_48_449)">
</g>
<mask id="mask1_48_449" style="mask-type:luminance" maskUnits="userSpaceOnUse" x="0" y="0" width="30" height="30">
<rect width="29.8" height="29.8" rx="10" fill="white"/>
</mask>
<g mask="url(#mask1_48_449)">
<path fill-rule="evenodd" clip-rule="evenodd" d="M25.6957 14.9287H14.8701V25.7543C14.8701 19.7775 19.7165 14.9309 25.6957 14.9287Z" fill="black"/>
<path fill-rule="evenodd" clip-rule="evenodd" d="M4.04457 14.9287L14.8701 14.9287L14.8701 4.10316C14.8701 10.0799 10.0237 14.9265 4.04457 14.9287Z" fill="black"/>
</g>
</g>
<defs>
<clipPath id="clip0_48_449">
<rect width="110.666" height="29.84" fill="white"/>
</clipPath>
</defs>
</svg>
