<svg width="50" height="38" viewBox="0 0 50 38" fill="none" xmlns="http://www.w3.org/2000/svg">
<path d="M4.6875 0C2.09961 0 0 2.09961 0 4.6875C0 6.16211 0.693359 7.54883 1.875 8.4375L23.125 24.375C24.2383 25.2051 25.7617 25.2051 26.875 24.375L48.125 8.4375C49.3066 7.54883 50 6.16211 50 4.6875C50 2.09961 47.9004 0 45.3125 0H4.6875ZM0 10.9375V31.25C0 34.6973 2.80273 37.5 6.25 37.5H43.75C47.1973 37.5 50 34.6973 50 31.25V10.9375L28.75 26.875C26.5234 28.5449 23.4766 28.5449 21.25 26.875L0 10.9375Z" fill="black"/>
</svg>
