<svg width="50" height="51" viewBox="0 0 50 51" fill="none" xmlns="http://www.w3.org/2000/svg">
<path d="M42.6946 7.32036C37.9794 2.60263 31.7091 0.00250012 25.0287 0C11.2631 0 0.0600032 11.1981 0.0550029 24.9637C0.0525028 29.364 1.20256 33.6592 3.38767 37.4444L0 50.0025L13.0832 46.9098C16.7308 48.8999 20.836 49.9475 25.0162 49.95H25.0262C38.7894 49.95 49.9925 38.7494 50 24.9862C50.005 18.3134 47.4099 12.0406 42.6946 7.32036ZM37.2469 33.8867C36.7268 35.3443 34.1792 36.7493 33.0341 36.8518C31.8891 36.9568 30.8165 37.3694 25.5463 35.2918C19.2035 32.7916 15.1983 26.2888 14.8882 25.8738C14.5757 25.4563 12.3406 22.4911 12.3406 19.421C12.3406 16.3508 13.9532 14.8407 14.5257 14.2182C15.0983 13.5932 15.7733 13.4382 16.1908 13.4382C16.6058 13.4382 17.0233 13.4382 17.3859 13.4532C17.8309 13.4707 18.3234 13.4932 18.7909 14.5307C19.346 15.7658 20.5585 18.8509 20.7135 19.1635C20.8685 19.476 20.9735 19.841 20.766 20.256C20.5585 20.671 20.4535 20.931 20.1435 21.2961C19.831 21.6611 19.4885 22.1086 19.2085 22.3886C18.8959 22.6986 18.5709 23.0386 18.9334 23.6612C19.2985 24.2862 20.5485 26.3288 22.4036 27.9814C24.7887 30.1065 26.7963 30.764 27.4214 31.079C28.0464 31.3916 28.4089 31.3391 28.7739 30.9215C29.139 30.5065 30.334 29.1014 30.749 28.4764C31.1641 27.8514 31.5816 27.9564 32.1541 28.1639C32.7266 28.3714 35.7943 29.8815 36.4168 30.194C37.0418 30.5065 37.4569 30.6615 37.6119 30.9215C37.7669 31.1791 37.7669 32.4291 37.2469 33.8867Z" fill="black"/>
</svg>
