<svg width="155" height="155" viewBox="0 0 155 155" fill="none" xmlns="http://www.w3.org/2000/svg">
<path d="M124.077 12.1094H30.9236C29.0661 12.1114 27.2852 12.8502 25.9717 14.1637C24.6583 15.4771 23.9195 17.258 23.9175 19.1155V135.884C23.9195 137.742 24.6583 139.523 25.9717 140.836C27.2852 142.15 29.0661 142.889 30.9236 142.891H124.077C125.934 142.889 127.715 142.15 129.028 140.836C130.342 139.523 131.081 137.742 131.083 135.884V19.1155C131.081 17.258 130.342 15.4771 129.028 14.1637C127.715 12.8502 125.934 12.1114 124.077 12.1094ZM126.412 135.884C126.411 136.504 126.165 137.097 125.727 137.535C125.289 137.973 124.696 138.219 124.077 138.22H30.9236C30.3044 138.219 29.7107 137.973 29.2729 137.535C28.8351 137.097 28.5888 136.504 28.5882 135.884V19.1155C28.5888 18.4963 28.8351 17.9027 29.2729 17.4648C29.7107 17.027 30.3044 16.7807 30.9236 16.7801H124.077C124.696 16.7807 125.289 17.027 125.727 17.4648C126.165 17.9027 126.411 18.4963 126.412 19.1155V135.884Z" fill="black"/>
<path d="M46.7524 67.5404H64.9154V86.1892C64.9153 86.496 64.9757 86.7997 65.093 87.0831C65.2103 87.3665 65.3824 87.6239 65.5992 87.8408C65.8161 88.0577 66.0736 88.2297 66.357 88.3471C66.6404 88.4644 66.9441 88.5247 67.2508 88.5246H87.7492C88.0559 88.5247 88.3597 88.4644 88.6431 88.3471C88.9264 88.2297 89.1839 88.0577 89.4008 87.8408C89.6177 87.6239 89.7897 87.3665 89.907 87.0831C90.0244 86.7997 90.0847 86.496 90.0846 86.1892V67.5404H108.249C108.556 67.5405 108.859 67.4802 109.143 67.3628C109.426 67.2455 109.684 67.0735 109.9 66.8566C110.117 66.6397 110.289 66.3822 110.407 66.0989C110.524 65.8155 110.584 65.5118 110.584 65.205V45.1924C110.584 44.8857 110.524 44.582 110.407 44.2986C110.289 44.0152 110.117 43.7577 109.9 43.5408C109.684 43.324 109.426 43.1519 109.143 43.0346C108.859 42.9173 108.556 42.8569 108.249 42.857H90.0846V24.694C90.0847 24.3873 90.0244 24.0835 89.907 23.8001C89.7897 23.5168 89.6177 23.2593 89.4008 23.0424C89.1839 22.8255 88.9264 22.6535 88.6431 22.5362C88.3597 22.4188 88.0559 22.3585 87.7492 22.3586H67.2508C66.9441 22.3585 66.6404 22.4188 66.357 22.5362C66.0736 22.6535 65.8161 22.8255 65.5992 23.0424C65.3824 23.2593 65.2103 23.5168 65.093 23.8001C64.9757 24.0835 64.9153 24.3873 64.9154 24.694V42.857H46.7524C46.4457 42.8569 46.1419 42.9173 45.8586 43.0346C45.5752 43.1519 45.3177 43.324 45.1008 43.5408C44.8839 43.7577 44.7119 44.0152 44.5946 44.2986C44.4772 44.582 44.4169 44.8857 44.417 45.1924V65.205C44.4169 65.5118 44.4772 65.8155 44.5946 66.0989C44.7119 66.3822 44.8839 66.6397 45.1008 66.8566C45.3177 67.0735 45.5752 67.2455 45.8586 67.3628C46.1419 67.4802 46.4457 67.5405 46.7524 67.5404ZM49.0877 47.5278H67.2508C67.5575 47.5279 67.8612 47.4675 68.1446 47.3502C68.428 47.2329 68.6855 47.0608 68.9024 46.844C69.1192 46.6271 69.2913 46.3696 69.4086 46.0862C69.5259 45.8028 69.5863 45.4991 69.5862 45.1924V27.0294H85.4139V45.1924C85.4138 45.4991 85.4741 45.8028 85.5914 46.0862C85.7088 46.3696 85.8808 46.6271 86.0977 46.844C86.3146 47.0608 86.572 47.2329 86.8554 47.3502C87.1388 47.4675 87.4425 47.5279 87.7492 47.5278H105.913V62.8697H87.7492C87.4425 62.8696 87.1388 62.9299 86.8554 63.0473C86.572 63.1646 86.3146 63.3366 86.0977 63.5535C85.8808 63.7704 85.7088 64.0278 85.5914 64.3112C85.4741 64.5946 85.4138 64.8983 85.4139 65.205V83.8539H69.5862V65.205C69.5863 64.8983 69.5259 64.5946 69.4086 64.3112C69.2913 64.0278 69.1192 63.7704 68.9024 63.5535C68.6855 63.3366 68.428 63.1646 68.1446 63.0473C67.8612 62.9299 67.5575 62.8696 67.2508 62.8697H49.0877V47.5278Z" fill="black"/>
<path d="M57.0015 104.355C56.3821 104.355 55.7881 104.601 55.3502 105.039C54.9122 105.477 54.6661 106.071 54.6661 106.69C54.6661 107.309 54.9122 107.903 55.3502 108.341C55.7881 108.779 56.3821 109.025 57.0015 109.025H97.9995C98.6189 109.025 99.2129 108.779 99.6509 108.341C100.089 107.903 100.335 107.309 100.335 106.69C100.335 106.071 100.089 105.477 99.6509 105.039C99.2129 104.601 98.6189 104.355 97.9995 104.355H57.0015Z" fill="black"/>
<path d="M118.498 114.604H36.5019C35.8839 114.606 35.2918 114.853 34.8554 115.29C34.4191 115.728 34.1741 116.321 34.1741 116.939C34.1741 117.557 34.4191 118.15 34.8554 118.588C35.2918 119.026 35.8839 119.273 36.5019 119.275H118.498C119.116 119.273 119.708 119.026 120.144 118.588C120.581 118.15 120.826 117.557 120.826 116.939C120.826 116.321 120.581 115.728 120.144 115.29C119.708 114.853 119.116 114.606 118.498 114.604Z" fill="black"/>
<path d="M67.2507 124.853H36.5019C35.8839 124.855 35.2918 125.102 34.8554 125.54C34.4191 125.977 34.1741 126.57 34.1741 127.188C34.1741 127.806 34.4191 128.399 34.8554 128.837C35.2918 129.275 35.8839 129.522 36.5019 129.524H67.2507C67.8688 129.522 68.4609 129.275 68.8973 128.837C69.3336 128.399 69.5786 127.806 69.5786 127.188C69.5786 126.57 69.3336 125.977 68.8973 125.54C68.4609 125.102 67.8688 124.855 67.2507 124.853Z" fill="black"/>
<path d="M97.9996 124.853H77.5C77.1927 124.852 76.8882 124.912 76.604 125.029C76.3198 125.146 76.0614 125.317 75.8438 125.534C75.6261 125.751 75.4534 126.009 75.3356 126.293C75.2178 126.577 75.1571 126.881 75.1571 127.188C75.1571 127.496 75.2178 127.8 75.3356 128.084C75.4534 128.368 75.6261 128.625 75.8438 128.842C76.0614 129.059 76.3198 129.231 76.604 129.348C76.8882 129.465 77.1927 129.525 77.5 129.524H97.9996C98.6177 129.522 99.2098 129.275 99.6461 128.837C100.082 128.399 100.327 127.806 100.327 127.188C100.327 126.57 100.082 125.977 99.6461 125.54C99.2098 125.102 98.6177 124.855 97.9996 124.853Z" fill="black"/>
<path d="M118.498 124.853H108.249C107.631 124.855 107.039 125.102 106.602 125.54C106.166 125.977 105.921 126.57 105.921 127.188C105.921 127.806 106.166 128.399 106.602 128.837C107.039 129.275 107.631 129.522 108.249 129.524H118.498C119.116 129.522 119.708 129.275 120.145 128.837C120.581 128.399 120.826 127.806 120.826 127.188C120.826 126.57 120.581 125.977 120.145 125.54C119.708 125.102 119.116 124.855 118.498 124.853Z" fill="black"/>
</svg>
