<svg width="155" height="155" viewBox="0 0 155 155" fill="none" xmlns="http://www.w3.org/2000/svg">
<path d="M18.9099 48.4633C17.7733 52.3642 19.1941 57.7892 23.0174 62.5425C26.6599 67.0892 31.3616 69.6725 35.3399 69.6725C37.0708 69.6725 38.6466 69.1817 39.9383 68.1483C44.1749 64.7383 43.3741 56.9625 38.1558 50.4267C33.3249 44.3817 26.6341 41.9017 22.2941 44.2008C21.0541 43.9942 18.3674 42.8058 18.0833 36.6833C18.0316 34.6167 19.0908 32.7308 20.9508 31.6975C22.9141 30.5867 25.2649 30.6383 27.1508 31.8525C35.9083 37.4842 45.8541 39.06 51.6924 39.4992C50.8399 41.2817 50.3749 43.2192 50.3749 45.2083C50.3749 50.4267 53.4491 55.2058 59.0549 58.6675C60.2174 59.3908 61.2766 60.3725 62.2066 61.6125C64.8933 65.1258 65.5649 69.6725 64.0408 73.78C62.1033 79.0242 60.2174 88.0917 62.2841 101.551C66.1074 126.609 75.9499 129.038 77.0608 129.218C77.2158 129.244 77.3708 129.27 77.4999 129.27C77.6291 129.27 77.8099 129.27 77.9391 129.218C78.4299 129.141 82.3049 128.263 86.1024 122.192C88.9183 123.974 92.2508 125.008 95.8416 125.008C105.968 125.008 114.235 116.767 114.235 106.614C114.235 96.4617 105.994 88.2208 95.8416 88.2208C95.0666 88.2208 94.3174 88.2725 93.5683 88.3758C93.4133 82.9508 92.5608 78.0167 90.9849 73.7283C89.4608 69.6208 90.1583 65.0742 92.8449 61.5608C93.7749 60.3208 94.8341 59.3392 95.9966 58.6158C101.602 55.1542 104.677 50.375 104.677 45.1567C104.677 43.1417 104.212 41.23 103.359 39.4475C109.172 39.0083 119.143 37.4325 127.875 31.8008C129.735 30.6125 132.112 30.535 134.075 31.6458C135.935 32.705 136.994 34.565 136.917 36.89C136.632 42.8317 133.946 43.9683 132.732 44.1492C128.392 41.8242 121.727 44.3042 116.87 50.3492C111.626 56.885 110.851 64.6608 115.087 68.0708C116.379 69.1042 117.955 69.595 119.686 69.595C123.638 69.595 128.34 67.0117 132.008 62.465C135.832 57.7117 137.252 52.2867 136.116 48.3858C138.932 46.9392 141.773 43.6842 142.083 37.1225V36.7867C142.212 32.7567 140.172 29.14 136.607 27.1508C132.99 25.11 128.572 25.2133 125.085 27.4608C115.165 33.8417 103.049 34.41 99.5874 34.4358C94.7049 29.8375 86.7224 26.8925 77.4999 26.8925C68.2774 26.8925 60.2949 29.8375 55.4124 34.4358C51.9508 34.41 39.8608 33.8417 29.9149 27.4608C26.4274 25.2133 22.0099 25.11 18.3933 27.1508C14.8541 29.1917 12.7874 32.8083 12.9166 36.8383V37.2C13.2524 43.7617 16.0683 47.0167 18.9099 48.4633ZM34.0999 53.6558C37.8458 58.3058 38.1299 62.9558 36.6833 64.1183C35.2366 65.2808 30.7674 63.9633 27.0216 59.3133C23.2758 54.6633 22.9916 50.0133 24.4383 48.8508C24.7741 48.5925 25.2391 48.4633 25.8333 48.4633C27.8741 48.4633 31.2066 50.0392 34.0999 53.6558ZM127.952 59.3133C124.207 63.9633 119.737 65.255 118.317 64.1183C116.87 62.9558 117.18 58.3058 120.9 53.6558C123.793 50.0392 127.126 48.4633 129.141 48.4633C129.735 48.4633 130.2 48.5925 130.536 48.8508C131.982 49.9875 131.672 54.6375 127.952 59.3133ZM109.042 106.64C109.042 113.925 103.101 119.867 95.8158 119.867C88.5308 119.867 82.5891 113.925 82.5891 106.64C82.5891 99.355 88.5308 93.4133 95.8158 93.4133C103.127 93.4133 109.042 99.355 109.042 106.64ZM99.4841 45.2083C99.4841 48.5667 97.2624 51.77 93.2324 54.2758C91.5274 55.335 90.0033 56.7558 88.6858 58.4867C84.9399 63.4208 83.9583 69.8017 86.1024 75.5883C87.6266 79.67 88.3499 84.475 88.4016 89.8483C81.9433 92.7158 77.4224 99.1483 77.4224 106.666C77.4224 111.342 79.2049 115.604 82.0983 118.859C80.1349 122.217 78.3266 123.509 77.4999 123.948C75.7433 123.018 70.0858 118.653 67.3474 100.802C65.4616 88.4275 67.1149 80.2642 68.8458 75.5883C70.9899 69.8017 70.0083 63.4208 66.2624 58.4867C64.9449 56.7558 63.4208 55.335 61.7158 54.2758C57.6858 51.7958 55.4899 48.5667 55.4899 45.2083C55.4899 38.1042 65.5649 32.1108 77.4741 32.1108C89.4091 32.085 99.4841 38.1042 99.4841 45.2083Z" fill="black"/>
<path d="M90.0034 109.223H93.2584V112.478C93.2584 113.899 94.4209 115.062 95.8417 115.062C97.2625 115.062 98.425 113.899 98.425 112.478V109.223H101.68C103.101 109.223 104.263 108.061 104.263 106.64C104.263 105.219 103.101 104.057 101.68 104.057H98.425V100.802C98.425 99.3808 97.2625 98.2183 95.8417 98.2183C94.4209 98.2183 93.2584 99.3808 93.2584 100.802V104.057H90.0034C88.5825 104.057 87.42 105.219 87.42 106.64C87.42 108.061 88.5825 109.223 90.0034 109.223Z" fill="black"/>
</svg>
