<svg width="24" height="23" viewBox="0 0 24 23" fill="none" xmlns="http://www.w3.org/2000/svg">
<path d="M11.7777 15.0937C12.9392 15.0937 13.9247 14.6984 14.7345 13.9078C15.5442 13.1172 15.949 12.1548 15.949 11.0208C15.949 9.88679 15.5442 8.92446 14.7345 8.13383C13.9247 7.34321 12.9392 6.9479 11.7777 6.9479C10.6163 6.9479 9.63075 7.34321 8.82103 8.13383C8.01131 8.92446 7.60645 9.88679 7.60645 11.0208C7.60645 12.1548 8.01131 13.1172 8.82103 13.9078C9.63075 14.6984 10.6163 15.0937 11.7777 15.0937ZM11.7777 13.7041C11.0089 13.7041 10.3587 13.4446 9.82705 12.9255C9.29541 12.4064 9.02959 11.7715 9.02959 11.0208C9.02959 10.2701 9.29541 9.63522 9.82705 9.11613C10.3587 8.59703 11.0089 8.33748 11.7777 8.33748C12.5466 8.33748 13.1968 8.59703 13.7284 9.11613C14.2601 9.63522 14.5259 10.2701 14.5259 11.0208C14.5259 11.7715 14.2601 12.4064 13.7284 12.9255C13.1968 13.4446 12.5466 13.7041 11.7777 13.7041ZM11.7777 18.2083C9.38947 18.2083 7.23021 17.5455 5.29996 16.2198C3.36972 14.8941 1.93021 13.1611 0.981445 11.0208C1.93021 8.88054 3.36972 7.14755 5.29996 5.82185C7.23021 4.49616 9.38947 3.83331 11.7777 3.83331C14.166 3.83331 16.3253 4.49616 18.2555 5.82185C20.1858 7.14755 21.6253 8.88054 22.574 11.0208C21.6253 13.1611 20.1858 14.8941 18.2555 16.2198C16.3253 17.5455 14.166 18.2083 11.7777 18.2083ZM11.7777 16.7708C13.7571 16.7708 15.5769 16.2477 17.2372 15.2015C18.8976 14.1554 20.1612 12.7618 21.0282 11.0208C20.1612 9.27984 18.8976 7.88626 17.2372 6.84008C15.5769 5.7939 13.7571 5.27081 11.7777 5.27081C9.79842 5.27081 7.97859 5.7939 6.31825 6.84008C4.65791 7.88626 3.38607 9.27984 2.50274 11.0208C3.38607 12.7618 4.65791 14.1554 6.31825 15.2015C7.97859 16.2477 9.79842 16.7708 11.7777 16.7708Z" fill="black"/>
</svg>
