<svg width="74" height="77" viewBox="0 0 74 77" fill="none" xmlns="http://www.w3.org/2000/svg">
<g clip-path="url(#clip0_229_476)">
<path d="M22.1457 64.6585C21.6604 64.4529 21.3585 63.9694 21.3473 63.4434C21.3159 61.8097 20.6824 57.8181 15.7609 54.0747C9.38724 49.2255 8.68523 41.1941 8.68153 41.1663C8.67783 41.1515 8.24995 38.2861 8.68153 36.7246C9.37428 34.2111 11.7489 30.7696 12.5861 29.2749C12.8047 28.8841 13.1474 28.5747 13.5641 28.4136C14.1809 28.1765 14.9959 28.1487 15.1737 29.5379C15.1793 29.5805 15.2349 29.5916 15.2534 29.5527C15.5516 28.9415 16.8612 26.5447 18.2763 28.321C18.4856 28.5821 18.6153 28.8989 18.6579 29.2304C18.7505 29.9769 18.8857 31.4698 18.556 31.9977C18.5356 32.0292 18.5634 32.0681 18.5986 32.0588C19.1005 31.9458 21.0602 31.6921 20.3267 34.7687C19.4895 38.2879 19.2654 38.175 19.2654 38.175C19.2654 38.175 20.9139 38.0008 20.5712 39.6771C20.2286 41.3534 20.0582 41.4553 20.0582 41.4553C20.0582 41.4553 19.897 41.7906 20.1249 42.3277C20.3823 42.9371 30.0845 48.5253 30.5809 53.695L30.6439 54.1543C30.8884 55.3546 31.9516 61.3281 29.6752 64.8604C29.5788 65.0085 29.414 65.0715 29.2528 65.1419C28.4545 65.4883 25.3927 66.0291 22.1438 64.6566L22.1457 64.6585Z" stroke="#D8B9B9" stroke-width="2" stroke-miterlimit="10"/>
<path d="M15.1755 29.5379C15.9627 32.1718 12.812 35.3095 12.2934 37.2599C12.1452 37.8175 12.2934 39.603 12.2934 39.6049C12.2934 39.6086 12.8806 41.9536 15.1088 44.8245C16.8574 47.0806 19.0764 47.9993 19.9507 48.2901C20.0377 48.3197 20.1007 48.2086 20.0322 48.1475C18.6911 46.9657 13.3177 41.9221 14.8606 38.1805C14.9736 37.9064 15.1811 37.6841 15.4497 37.56C16.1276 37.247 17.489 36.9636 18.1003 39.3215C18.8393 42.1703 20.1285 42.3333 20.1285 42.3333" stroke="#D8B9B9" stroke-width="2" stroke-miterlimit="10"/>
<path d="M18.5579 31.9995C18.5579 31.9995 17.6539 35.2558 15.4146 37.5766" stroke="#D8B9B9" stroke-width="2" stroke-miterlimit="10"/>
<path d="M19.3598 38.0694C19.3598 38.0694 18.48 38.977 18.4059 40.3755" stroke="#D8B9B9" stroke-width="2" stroke-miterlimit="10"/>
<path d="M52.1691 64.6585C52.6544 64.4529 52.9563 63.9694 52.9674 63.4434C52.9989 61.8097 53.6324 57.8181 58.5539 54.0747C64.9275 49.2255 65.6296 41.1941 65.6333 41.1663C65.637 41.1515 66.0648 38.2861 65.6333 36.7246C64.9405 34.2111 62.5659 30.7696 61.7287 29.2749C61.5101 28.8841 61.1674 28.5747 60.7507 28.4136C60.1339 28.1765 59.3189 28.1487 59.1411 29.5379C59.1355 29.5805 59.0799 29.5916 59.0614 29.5527C58.7632 28.9415 57.4536 26.5447 56.0385 28.321C55.8292 28.5821 55.6995 28.8989 55.6569 29.2304C55.5643 29.9769 55.4291 31.4698 55.7588 31.9977C55.7792 32.0292 55.7514 32.0681 55.7162 32.0588C55.2142 31.9458 53.2545 31.6921 53.988 34.7687C54.8253 38.2879 55.0494 38.175 55.0494 38.175C55.0494 38.175 53.4009 38.0008 53.7435 39.6771C54.0862 41.3534 54.2566 41.4553 54.2566 41.4553C54.2566 41.4553 54.4178 41.7906 54.1899 42.3277C53.9325 42.9371 44.2303 48.5253 43.7339 53.695L43.6709 54.1543C43.4264 55.3546 42.3632 61.3281 44.6396 64.8604C44.736 65.0085 44.9008 65.0715 45.062 65.1419C45.8603 65.4883 48.9221 66.0291 52.171 64.6566L52.1691 64.6585Z" stroke="#D8B9B9" stroke-width="2" stroke-miterlimit="10"/>
<path d="M59.1392 29.5379C58.352 32.1718 61.5027 35.3095 62.0214 37.2599C62.1696 37.8175 62.0214 39.603 62.0214 39.6049C62.0214 39.6086 61.4342 41.9536 59.2059 44.8245C57.4574 47.0806 55.2384 47.9993 54.3641 48.2901C54.277 48.3197 54.2141 48.2086 54.2826 48.1475C55.6236 46.9657 60.9971 41.9221 59.4541 38.1805C59.3411 37.9064 59.1337 37.6841 58.8651 37.56C58.1872 37.247 56.8258 36.9636 56.2145 39.3215C55.4755 42.1703 54.1863 42.3333 54.1863 42.3333" stroke="#D8B9B9" stroke-width="2" stroke-miterlimit="10"/>
<path d="M55.757 31.9995C55.757 31.9995 56.6609 35.2558 58.9003 37.5766" stroke="#D8B9B9" stroke-width="2" stroke-miterlimit="10"/>
<path d="M54.9531 38.0694C54.9531 38.0694 55.833 38.977 55.907 40.3755" stroke="#D8B9B9" stroke-width="2" stroke-miterlimit="10"/>
<path d="M36.0822 14.203C36.0822 14.203 44.7934 6.64215 51.6875 14.203C58.5817 21.7639 52.171 34.7871 52.171 34.7871C52.171 34.7871 48.5146 44.4355 39.7126 50.1145H36.9953C36.9953 50.1145 12.3787 34.5852 21.2084 17.6519C21.2084 17.6519 25.9206 7.72943 36.084 14.203H36.0822Z" fill="#E53732"/>
<path d="M28.9306 18.9133C28.3787 19.1763 26.9357 20.1932 26.8802 23.6292C26.8802 23.6292 26.5375 26.9966 25.7836 27.6782C25.0297 28.3598 24.55 29.3193 24.8241 32.883C24.8241 32.883 25.2409 34.0129 25.7947 31.5661C25.8485 31.329 26.0096 30.9752 26.1522 30.777C26.3782 30.4621 26.7153 29.7879 26.932 29.0229C26.9413 28.9914 26.9561 28.9618 26.9765 28.9377C27.145 28.7358 27.91 27.7967 28.1749 27.1114C28.1897 27.0725 28.2471 27.0818 28.2471 27.1244C28.2379 27.6856 28.2138 28.9933 28.199 29.8601C28.1916 30.2399 28.3398 30.5992 28.5768 30.8956C28.6583 30.9974 28.7398 31.1493 28.801 31.3753C28.9751 32.0125 29.3455 38.2953 29.4548 40.2124C29.4733 40.5365 29.5993 40.8403 29.8086 41.0885C30.055 41.383 30.4236 41.9109 30.844 42.8092C30.8644 42.8518 30.894 42.8889 30.9329 42.9148C31.1645 43.0741 31.9887 43.5242 32.211 42.0054C32.374 40.8922 32.4851 39.9586 32.5463 39.4178C32.5833 39.0844 32.7 38.7676 32.8889 38.4916C33.1205 38.1527 33.4372 37.6841 33.6372 37.384C33.9651 36.8931 33.6724 31.1808 33.6409 30.5677C33.6391 30.5307 33.6447 30.4955 33.6576 30.4603C33.7243 30.2843 33.9577 29.7342 34.3281 29.5767C34.4559 29.523 34.6041 29.5879 34.6578 29.7175C34.8116 30.0917 35.1987 30.9474 35.634 31.2141C35.7859 31.3068 35.9322 31.4068 36.0582 31.5327C36.2249 31.6994 36.5101 31.9662 36.9917 32.3755C37.0547 32.4292 37.0917 32.5089 37.088 32.5904L36.9269 38.2212C36.9232 38.3601 37.0232 38.4787 37.1603 38.4972C37.214 38.5046 37.2732 38.512 37.3381 38.5213C37.6678 38.5657 37.9141 38.8473 37.9141 39.1788V41.5219C37.9141 41.5812 37.8956 41.6386 37.8604 41.6849C37.6974 41.8979 37.2677 42.5388 37.9141 42.6111C38.0364 42.624 38.1457 42.6333 38.242 42.637C38.605 42.6537 38.9069 42.3629 38.9069 41.9998V39.1862C38.9069 39.0362 39.0292 38.9158 39.1774 38.9158H39.2663C39.4052 38.9158 39.5219 39.0195 39.5367 39.1585L39.809 41.7238C39.8423 42.0313 40.0572 42.2869 40.3536 42.374C40.6666 42.4647 41.0537 42.5147 41.2816 42.3073C41.6687 41.9591 41.2927 41.4719 40.8685 41.2811C40.7777 41.2404 40.7148 41.1552 40.7055 41.057L40.5073 38.7621C40.5073 38.7417 40.5203 38.7232 40.5425 38.7213C40.6777 38.7139 41.1297 38.6639 41.239 38.3342C41.3538 37.9878 41.5057 36.5042 40.737 35.5743C40.5092 35.3002 40.3832 34.9557 40.3425 34.6019L40.3332 34.5223C40.3091 34.3111 40.4462 34.1611 40.6203 34.1611C41.3019 34.1592 42.793 33.9295 42.6837 31.9458C42.6763 31.8161 42.7652 31.6994 42.8912 31.6698C43.056 31.6309 43.2172 31.7513 43.2246 31.9198L43.4172 35.9967C43.4339 36.3338 43.5858 36.6487 43.8377 36.8728C44.0618 37.0728 44.3063 37.3377 44.3526 37.5748C44.4304 37.9897 44.3674 39.9697 44.3545 40.3217C44.3545 40.3569 44.3452 40.3883 44.3322 40.4198C44.2248 40.6551 43.7729 41.7405 44.3915 42.048C45.0676 42.3832 44.9565 41.8368 45.5621 41.5016C45.6918 41.4293 45.777 41.3423 45.8048 41.3478C45.9752 41.3812 46.1493 41.3034 46.2549 41.0552C46.3716 40.7847 46.279 37.86 46.2586 37.2395C46.2568 37.1673 46.2845 37.1006 46.3364 37.0506C46.5753 36.8302 47.2551 36.1356 47.2903 35.3521C47.3292 34.4797 47.2977 30.188 47.2903 29.4878C47.2903 29.4267 47.3107 29.3693 47.3496 29.323C47.5385 29.1026 48.1146 28.3672 48.1942 27.5115C48.1942 27.4985 48.2035 27.4893 48.2146 27.4856C48.3461 27.4467 49.1148 27.167 49.2333 26.0223C49.3371 25.0184 48.887 24.4312 48.7036 24.2367C48.6554 24.1867 48.6276 24.1219 48.6258 24.0533L48.585 21.8955L48.5813 21.8566C48.561 21.7325 48.4202 21.0434 47.8719 20.5915C47.5422 20.3192 47.3403 19.9247 47.357 19.4986C47.4033 18.3632 47.257 16.3498 45.69 16.0442C45.69 16.0442 44.2619 15.6478 43.9914 18.8059C43.9692 19.0671 43.8414 19.306 43.6488 19.4838C43.2894 19.8172 42.7523 20.5081 42.7523 21.6602C42.7523 23.3884 42.5355 28.4858 42.5355 28.4858C42.5355 28.4858 42.5689 29.9157 41.8761 31.1715C41.6891 31.5086 41.2778 31.6494 40.9167 31.5179C40.5555 31.3864 40.1609 31.1623 40.1609 30.8178C40.1609 30.1695 41.2834 27.6208 39.2533 27.3615C37.4844 27.1355 37.6493 29.336 37.8363 30.2769C37.8697 30.4473 37.7289 30.6029 37.5548 30.5825C36.9936 30.5195 35.9285 30.2547 35.4747 29.1489C35.458 29.11 35.4525 29.0674 35.4562 29.0248C35.5043 28.4117 35.8507 23.5069 34.8783 22.3418C34.8579 22.3159 34.8412 22.29 34.8301 22.2603C34.7097 21.914 33.8836 19.6635 32.3777 18.9763C32.261 18.9226 32.2017 18.7911 32.2388 18.667C32.5111 17.776 33.3335 14.5235 30.9126 14.2253C28.236 13.8956 28.5824 16.987 29.0695 18.6021C29.1066 18.7263 29.0473 18.8559 28.9306 18.9115V18.9133Z" fill="white"/>
<path d="M33.3001 26.1204C33.3075 26.3668 33.2853 26.6279 33.2038 26.8539C33.1945 26.8798 33.2149 26.9076 33.2427 26.9002C33.4168 26.8595 33.891 26.6909 33.8151 26.0945C33.8151 26.0871 33.8132 26.0797 33.8113 26.0723C33.7669 25.7555 33.289 25.8 33.2983 26.1204H33.3001Z" fill="#E53732"/>
<path d="M31.2738 34.7871C31.2738 34.7871 30.5551 36.1578 31.2627 36.9765C31.2701 36.9858 31.2812 36.9895 31.2923 36.9895C31.5776 36.9895 31.8165 36.7783 31.8535 36.4968C31.9202 35.9856 31.9758 35.2058 31.7739 34.7871C31.4553 34.1315 31.2738 34.7871 31.2738 34.7871Z" fill="#E53732"/>
<path d="M46.7088 25.0295V25.7444C46.7088 25.763 46.7236 25.7778 46.7421 25.7778C46.9125 25.7778 47.6738 25.737 47.7479 25.1128C47.759 25.0147 47.7238 24.9165 47.6571 24.8424C47.5941 24.7739 47.5052 24.6887 47.3922 24.622C47.0903 24.4423 46.7069 24.6776 46.7069 25.0295H46.7088Z" fill="#E53732"/>
<path d="M2.6914 34.4093L3.84722 33.6814L4.13061 34.1871L2.62287 35.128L1.31702 33.9222L1.68932 33.4776L2.68955 34.4075L2.6914 34.4093ZM2.81735 33.0776L3.97317 32.3496L4.25657 32.8553L2.74882 33.7962L1.44297 32.5904L1.81528 32.1459L2.8155 33.0757L2.81735 33.0776Z" fill="#312783"/>
<path d="M0.620522 28.4173L1.34476 28.5618L1.04654 30.0602L4.63809 30.7771L4.46398 31.6476L0.148193 30.7882L0.620522 28.4191V28.4173Z" fill="#312783"/>
<path d="M2.50989 27.1114C2.65252 26.6373 2.89517 26.2927 3.23784 26.0834C3.61199 25.8482 4.01764 25.7963 4.45663 25.9279C4.89006 26.0575 5.19939 26.3242 5.38276 26.7243C5.55317 27.0892 5.56799 27.5097 5.42537 27.9839C5.28274 28.458 5.04009 28.8026 4.69742 29.0119C4.32327 29.2471 3.91947 29.299 3.48604 29.1693C3.04705 29.0378 2.73772 28.7711 2.55435 28.3691C2.38394 28.0042 2.36912 27.5838 2.51175 27.1096L2.50989 27.1114ZM4.34364 28.2802C4.54183 28.1728 4.67334 28.0061 4.74188 27.7801C4.81041 27.5541 4.79004 27.3411 4.68446 27.1429C4.57888 26.9447 4.41958 26.8151 4.20842 26.7503C3.99356 26.6854 3.78796 26.7077 3.58977 26.8151C3.39157 26.9225 3.26006 27.0892 3.19153 27.3152C3.123 27.5412 3.14337 27.7542 3.24895 27.9524C3.35453 28.1506 3.51568 28.2821 3.73054 28.345C3.9417 28.408 4.14545 28.3858 4.34364 28.2784V28.2802Z" fill="#312783"/>
<path d="M6.00501 24.9573L7.72577 25.7185L7.38865 26.4798L3.39331 24.7109L3.73042 23.9496L4.06754 24.0997C3.87675 23.7718 3.86564 23.4162 4.0342 23.0328C4.19905 22.6586 4.45281 22.403 4.79363 22.2641C5.17519 22.1103 5.58084 22.127 6.01057 22.3178C6.45326 22.5141 6.74221 22.8105 6.87928 23.2087C6.99412 23.5588 6.97189 23.9144 6.81075 24.2756C6.65145 24.6368 6.38287 24.8646 6.00501 24.9554V24.9573ZM4.59543 23.5273C4.50838 23.7237 4.49541 23.9126 4.55283 24.0978C4.61766 24.3312 4.76769 24.4998 5.00108 24.6016C5.23817 24.7072 5.46415 24.7072 5.67901 24.6016C5.85683 24.5164 5.98834 24.3757 6.0754 24.1793C6.16616 23.9756 6.17912 23.7774 6.11429 23.5847C6.04391 23.3643 5.89387 23.2032 5.66419 23.1013C5.43822 23.0013 5.2215 22.9976 5.01219 23.0883C4.82511 23.1754 4.68619 23.3199 4.59543 23.5236V23.5273Z" fill="#312783"/>
<path d="M5.83278 19.6061C6.08839 19.1819 6.40883 18.9097 6.7941 18.7911C7.21457 18.6559 7.62022 18.7078 8.0129 18.943C8.40187 19.1764 8.63341 19.5117 8.7112 19.9451C8.78715 20.3415 8.69638 20.7508 8.44077 21.175C8.18516 21.5991 7.86472 21.8714 7.47944 21.99C7.05898 22.1252 6.65518 22.0752 6.26621 21.8418C5.87353 21.6065 5.64014 21.2713 5.56235 20.836C5.4864 20.4396 5.57716 20.0303 5.83278 19.6043V19.6061ZM7.32015 21.1935C7.53872 21.1379 7.70727 21.0101 7.82952 20.8082C7.95177 20.6063 7.98511 20.3952 7.9314 20.1766C7.87768 19.958 7.75728 19.7932 7.56835 19.6802C7.37572 19.5654 7.17197 19.5339 6.9534 19.5894C6.73483 19.6432 6.56628 19.7728 6.44403 19.9747C6.32178 20.1766 6.28844 20.3878 6.34215 20.6063C6.39587 20.8249 6.51812 20.9916 6.71075 21.1064C6.89968 21.2194 7.10343 21.2491 7.32015 21.1953V21.1935Z" fill="#312783"/>
<path d="M7.44609 17.2982L8.95383 15.3589L10.669 16.6907L10.9376 16.3461L12.136 17.2778L11.6748 17.8705L11.0173 17.3612L9.76883 18.9671L10.4245 19.4764L9.96332 20.0692L8.7649 19.1375C8.89641 18.9467 8.90938 18.7337 8.8001 18.5003C8.7186 18.3392 8.55004 18.1595 8.29257 17.9594L7.44238 17.3L7.44609 17.2982ZM10.1578 17.3482L8.98532 16.4369L8.45002 17.1259L8.95013 17.5149C9.25575 17.752 9.4132 18.0132 9.42061 18.2966L10.1578 17.3482Z" fill="#312783"/>
<path d="M11.2526 13.0047L11.8268 13.5511C11.5767 13.5715 11.36 13.6771 11.1748 13.8716C10.9932 14.0623 10.908 14.2642 10.921 14.4772C10.934 14.6903 11.021 14.8736 11.184 15.0292C11.3526 15.1904 11.5489 15.2644 11.7712 15.2552C11.9935 15.2441 12.1917 15.1496 12.3639 14.9681C12.5343 14.7903 12.6232 14.5754 12.6343 14.3217L13.203 14.8625C13.1196 15.1218 12.9863 15.3478 12.8048 15.5386C12.488 15.872 12.125 16.0498 11.7175 16.0776C11.2933 16.1072 10.921 15.9702 10.5987 15.6627C10.2486 15.3293 10.0856 14.9385 10.1116 14.4902C10.1301 14.1123 10.2875 13.7715 10.5783 13.4641C10.7765 13.2566 11.0006 13.1029 11.2526 13.0047Z" fill="#312783"/>
<path d="M11.7693 12.3953L12.3991 11.8507L13.1251 12.6898L13.2363 11.1284L14.0216 10.4504L13.8438 12.2897L15.9424 12.5676L15.1367 13.264L13.5901 13.0399L13.5752 13.2103L14.2699 14.0142L13.6401 14.5587L11.7711 12.3972L11.7693 12.3953Z" fill="#312783"/>
<path d="M16.6019 9.0853L16.3926 8.78153L17.0779 8.3092L18.6987 10.6634L18.0133 11.1357L17.804 10.832C17.7947 11.2117 17.6336 11.5099 17.3187 11.7266C16.952 11.9804 16.5685 12.0637 16.1722 11.9804C15.7739 11.897 15.4553 11.6785 15.2127 11.3265C14.9682 10.9709 14.8756 10.5967 14.9367 10.2022C14.996 9.80768 15.2053 9.48909 15.5609 9.24274C15.9128 9.00009 16.2611 8.94823 16.6037 9.0853H16.6019ZM16.7519 9.56688C16.5371 9.52799 16.3333 9.57429 16.137 9.70951C15.9425 9.84287 15.8239 10.0188 15.785 10.2318C15.7443 10.4467 15.7906 10.6486 15.9203 10.8357C16.0499 11.0228 16.2222 11.1394 16.4389 11.1802C16.6556 11.2209 16.8612 11.1746 17.0557 11.0413C17.2502 10.9079 17.3669 10.732 17.4058 10.5152C17.4447 10.2985 17.3984 10.0966 17.2687 9.9077C17.139 9.71877 16.9668 9.60578 16.7519 9.56688Z" fill="#312783"/>
<path d="M19.058 10.4504L19.3136 9.09455C19.134 9.16308 18.958 9.17234 18.7876 9.12604C18.5801 9.06862 18.4153 8.92785 18.293 8.70373C18.1523 8.44441 18.1412 8.17769 18.2616 7.9017C18.369 7.66276 18.6005 7.4479 18.9506 7.25526L19.9823 6.69403L21.3493 9.20383L20.6176 9.60207L20.1379 8.7204L20.0546 8.7667L19.899 9.99289L19.0599 10.4485L19.058 10.4504ZM19.8601 8.21103L19.5544 7.64794L19.2359 7.8202C19.1247 7.88133 19.0543 7.94801 19.0284 8.02395C18.9969 8.11656 19.0043 8.20732 19.0525 8.29623C19.1025 8.38884 19.1729 8.44071 19.2618 8.45182C19.3414 8.46478 19.434 8.44071 19.5415 8.38143L19.8601 8.20917V8.21103Z" fill="#312783"/>
<path d="M22.3754 5.59194L25.0001 4.62506L25.9873 7.30712L25.2057 7.59422L24.4555 5.55674L23.3923 5.94757L24.1425 7.98505L23.3608 8.27215L22.3735 5.59008L22.3754 5.59194Z" fill="#312783"/>
<path d="M27.4117 3.86568C27.8933 3.74529 28.3119 3.78048 28.6675 3.96756C29.0602 4.16945 29.3121 4.49174 29.4232 4.93628C29.5325 5.37712 29.4621 5.77721 29.2102 6.1384C28.9843 6.4718 28.6305 6.69778 28.1489 6.81817C27.6673 6.93857 27.2487 6.90338 26.893 6.7163C26.5004 6.5144 26.2503 6.19396 26.1392 5.75498C26.028 5.31044 26.0984 4.9085 26.3503 4.54546C26.5763 4.21205 26.9301 3.98608 27.4117 3.86568ZM27.3413 6.04023C27.5339 6.15507 27.7451 6.1847 27.9748 6.12728C28.2044 6.06986 28.3767 5.94576 28.4934 5.75313C28.6101 5.56049 28.6416 5.3586 28.5879 5.14374C28.5342 4.92702 28.41 4.76032 28.2174 4.64363C28.0248 4.52694 27.8136 4.49915 27.5839 4.55657C27.3543 4.61399 27.182 4.73809 27.0653 4.93073C26.9486 5.12336 26.919 5.32711 26.9727 5.54568C27.0264 5.75868 27.1487 5.92353 27.3413 6.03837V6.04023Z" fill="#312783"/>
<path d="M32.4888 3.04326L32.8852 5.8735L32.061 5.98834L31.7609 3.83787L30.9626 3.94901L31.1089 4.98812C31.1608 5.35487 31.107 5.64567 30.9496 5.86424C30.7922 6.09021 30.544 6.22728 30.2013 6.27544C30.1105 6.2884 30.029 6.29025 29.9549 6.28285L29.8605 5.60307C29.916 5.60307 29.9586 5.60307 29.9901 5.59751C30.1383 5.57714 30.2439 5.51601 30.3087 5.41229C30.3661 5.32523 30.3828 5.19928 30.3606 5.03813L30.1272 3.3711L32.4925 3.03955L32.4888 3.04326Z" fill="#312783"/>
<path d="M33.4557 2.9488L34.2874 2.91916L34.3503 4.68066L35.6525 2.87101L36.4841 2.84137L36.586 5.69754L35.7544 5.72718L35.6914 3.96569L34.3911 5.77534L33.5594 5.80497L33.4575 2.9488H33.4557Z" fill="#312783"/>
<path d="M37.4603 2.86731L38.2901 2.92288L38.216 4.02867L39.3941 2.99697L40.4295 3.0655L39.0107 4.24724L40.3073 5.92167L39.244 5.85129L38.3012 4.60472L38.1716 4.71586L38.1012 5.77535L37.2695 5.71978L37.4603 2.86916V2.86731Z" fill="#312783"/>
<path d="M43.7821 3.60819L43.3098 6.42732L42.4893 6.29025L42.8486 4.14905L42.054 4.01569L41.8799 5.0511C41.8187 5.41599 41.6798 5.67716 41.4631 5.8383C41.2464 6.00686 40.9667 6.06243 40.6259 6.00501C40.537 5.99019 40.4573 5.96796 40.3888 5.93833L40.5018 5.2604C40.5536 5.27892 40.5962 5.29004 40.6277 5.29559C40.7759 5.31967 40.8963 5.29374 40.9871 5.21595C41.0667 5.14927 41.1204 5.03628 41.1482 4.87513L41.4261 3.21552L43.7821 3.61004V3.60819Z" fill="#312783"/>
<path d="M44.7305 3.8064L45.5325 4.02681L45.0657 5.72718L46.8476 4.388L47.6497 4.60842L46.8939 7.36457L46.0919 7.14416L46.5568 5.44564L44.7749 6.78482L43.9729 6.5644L44.7286 3.80825L44.7305 3.8064Z" fill="#312783"/>
<path d="M47.5366 7.57941L48.5794 4.91772L49.3555 5.22149L48.9869 6.16244L50.0668 6.58475L50.4354 5.64381L51.2115 5.94758L50.1687 8.60926L49.3944 8.3055L49.8186 7.22378L48.7387 6.80147L48.3146 7.88318L47.5403 7.57941H47.5366Z" fill="#312783"/>
<path d="M52.1044 6.35138L52.8434 6.73665L52.0284 8.29995L54.053 7.36827L54.792 7.75353L53.4714 10.2874L52.7323 9.90215L53.5454 8.33885L51.5209 9.27053L50.7819 8.88526L52.1025 6.35138H52.1044Z" fill="#312783"/>
<path d="M55.6292 8.25549L56.3238 8.71485L55.7125 9.63913L57.2462 9.32424L58.1112 9.89659L56.2923 10.2207L56.5887 12.3175L55.7014 11.7303L55.4995 10.18L55.331 10.2115L54.7438 11.0968L54.0492 10.6375L55.6273 8.25549H55.6292Z" fill="#312783"/>
<path d="M60.1191 12.0063L60.3544 11.7211L60.9953 12.2527L59.1726 14.4532L58.5317 13.9216L58.767 13.6363C58.3984 13.7308 58.0687 13.6567 57.7723 13.414C57.4296 13.1288 57.2426 12.7843 57.2166 12.3786C57.1888 11.973 57.3111 11.6062 57.5834 11.2765C57.8594 10.945 58.1928 10.7542 58.5892 10.7042C58.9837 10.6542 59.3486 10.7672 59.682 11.0432C60.0117 11.3154 60.1562 11.6359 60.1173 12.0045L60.1191 12.0063ZM59.6968 12.2823C59.6764 12.0656 59.5746 11.8804 59.393 11.7303C59.2115 11.5785 59.0115 11.5136 58.7929 11.534C58.5762 11.5544 58.3947 11.6525 58.2483 11.8285C58.102 12.0045 58.039 12.2027 58.0594 12.4212C58.0779 12.6398 58.1798 12.825 58.3613 12.9769C58.5429 13.1269 58.7447 13.1918 58.9633 13.1714C59.1819 13.1492 59.3653 13.051 59.5097 12.875C59.6561 12.6991 59.7172 12.5027 59.6968 12.2842V12.2823Z" fill="#312783"/>
<path d="M61.4379 16.6648L60.8896 15.9665L64.3534 13.2492L64.9017 13.9475L63.8588 17.4205L66.1908 15.5905L66.7391 16.2888L63.2754 19.006L62.7271 18.3077L63.7681 14.8347L61.4361 16.6648H61.4379ZM64.6349 18.6319L65.0813 18.2818L66.3279 19.871L65.8815 20.2211L64.6349 18.6319ZM66.9521 17.0352C67.2337 17.0778 67.4819 17.2353 67.6986 17.5112C67.9153 17.7872 68.0098 18.0669 67.9838 18.3503C67.9579 18.6337 67.8245 18.8689 67.5856 19.0579C67.3467 19.2449 67.0873 19.319 66.8039 19.2764C66.5224 19.2338 66.2723 19.0764 66.0575 18.8004C65.8408 18.5244 65.7463 18.2447 65.7722 17.9613C65.7982 17.6779 65.9315 17.4427 66.1705 17.2538C66.4094 17.0667 66.6687 16.9945 66.9521 17.0352ZM67.4559 18.2281C67.4726 18.078 67.43 17.9373 67.3263 17.8057C67.2226 17.6742 67.0947 17.5983 66.9466 17.5779C66.7984 17.5594 66.6576 17.602 66.5261 17.7039C66.3946 17.8076 66.3205 17.9336 66.3038 18.0817C66.2872 18.2318 66.3298 18.3725 66.4335 18.504C66.5372 18.6356 66.6632 18.7115 66.8132 18.7319C66.9614 18.7504 67.1022 18.7078 67.2337 18.6059C67.3652 18.5022 67.4393 18.3762 67.4559 18.2281Z" fill="#312783"/>
<path d="M66.3501 24.0163L69.6564 22.4382L69.3749 21.8473L70.0417 21.5287L70.7066 22.9198L66.7335 24.8165L66.352 24.0163H66.3501Z" fill="#312783"/>
<path d="M67.3763 26.3298L70.7993 25.0277L70.566 24.4146L71.2568 24.1516L71.8051 25.5926L67.6912 27.1578L67.3763 26.3279V26.3298Z" fill="#312783"/>
<path d="M67.9597 27.7727L69.7305 28.6766C70.3214 28.9692 70.6844 29.1396 70.8196 29.1859C71.1123 29.2897 71.3624 29.3137 71.5717 29.2582C71.7624 29.2063 71.9014 29.1007 71.9847 28.9433C72.0699 28.7859 72.0866 28.6154 72.0366 28.4302C71.9792 28.2191 71.8643 28.0709 71.6939 27.9857C71.5216 27.9005 71.3383 27.8801 71.1401 27.9246L70.8993 27.0429C71.3327 26.9429 71.718 27.0021 72.0551 27.217C72.3922 27.4319 72.62 27.7597 72.7386 28.1987C72.8701 28.6821 72.8386 29.097 72.646 29.4434C72.4533 29.7898 72.1736 30.0139 71.8087 30.1139C71.605 30.1695 71.3883 30.1769 71.1586 30.1361C70.9289 30.0954 70.7493 30.0454 70.6214 29.9861C70.4936 29.9268 70.3232 29.8379 70.1084 29.7231L69.1063 29.1822L69.5379 30.7696L68.8247 30.9641L67.9579 27.7764L67.9597 27.7727Z" fill="#312783"/>
<path d="M70.5084 32.2162L71.4568 31.2346L71.8532 31.6587L70.614 32.9331L69.0581 32.0736L69.3137 31.5531L70.5066 32.2181L70.5084 32.2162ZM70.7048 33.5388L71.6531 32.5571L72.0495 32.9812L70.8104 34.2556L69.2545 33.3961L69.5119 32.8757L70.7048 33.5406V33.5388Z" fill="#312783"/>
<path d="M4.44177 46.9343L4.93077 46.5193C5.21416 46.7787 5.37901 47.1121 5.42347 47.5196C5.45866 47.8289 5.41791 48.0808 5.30307 48.2734C5.17341 48.4976 4.97151 48.6254 4.69738 48.6568C4.41954 48.6883 4.188 48.5846 4.00648 48.3475C3.98426 48.4864 3.93054 48.6161 3.84534 48.7328C3.72123 48.8884 3.54342 48.9791 3.31188 49.0051C3.01922 49.0384 2.77472 48.9588 2.57838 48.7661C2.37834 48.5735 2.25609 48.2827 2.21163 47.8937C2.15607 47.4029 2.28017 46.9898 2.58024 46.6564L3.13962 46.9806C2.94884 47.2121 2.86919 47.4696 2.90253 47.7529C2.92291 47.9308 2.97106 48.0512 3.04886 48.116C3.12665 48.1808 3.21001 48.2068 3.29892 48.1975C3.41005 48.1845 3.48785 48.1271 3.53415 48.0234C3.56379 47.9511 3.56935 47.84 3.55268 47.6863L3.51563 47.3621L4.12873 47.2936L4.16393 47.6048C4.17874 47.7437 4.21394 47.8437 4.26765 47.9011C4.32137 47.9585 4.39361 47.9826 4.48807 47.9734C4.69182 47.9511 4.77888 47.7993 4.74739 47.5196C4.72146 47.2825 4.61958 47.088 4.44177 46.9361V46.9343Z" fill="#2C4476"/>
<path d="M5.82173 50.5517L6.44039 52.767L4.21767 53.3875L4.32695 53.782L2.7729 54.2173L2.58397 53.5394L3.43601 53.3023L2.92293 51.4686L2.07089 51.7075L1.88196 51.0296L3.43601 50.5961C3.50825 50.8017 3.67681 50.924 3.93983 50.9666C4.12506 50.9888 4.38623 50.9555 4.71963 50.861L5.81988 50.5535L5.82173 50.5517ZM4.00836 52.6373L5.52908 52.2132L5.30866 51.426L4.66036 51.6075C4.26398 51.7186 3.94539 51.7001 3.70644 51.5556L4.00836 52.6392V52.6373Z" fill="#2C4476"/>
<path d="M7.77214 55.714C7.97404 56.1326 8.00553 56.5308 7.87217 56.9068C7.72954 57.3217 7.43874 57.6329 6.99975 57.8441C6.56632 58.0534 6.14215 58.083 5.72909 57.9367C5.34938 57.807 5.06042 57.5329 4.85853 57.1143C4.65663 56.6957 4.62514 56.2974 4.76036 55.9214C4.90298 55.5065 5.19193 55.1953 5.62722 54.9879C6.06621 54.7767 6.49223 54.7452 6.90343 54.8916C7.28315 55.0212 7.5721 55.2954 7.774 55.714H7.77214ZM5.52719 56.177C5.44014 56.3845 5.44384 56.5882 5.54016 56.7864C5.63648 56.9865 5.79207 57.1161 6.00878 57.1791C6.2255 57.2421 6.43851 57.2199 6.64967 57.1198C6.86453 57.0161 7.01642 56.8605 7.10348 56.6531C7.19053 56.4456 7.18683 56.2419 7.09051 56.0418C6.99419 55.8418 6.8386 55.7121 6.62189 55.651C6.40517 55.5899 6.19031 55.6102 5.97544 55.714C5.76428 55.8159 5.6161 55.9696 5.52905 56.177H5.52719Z" fill="#2C4476"/>
<path d="M7.48877 60.7002L5.86433 61.8653L5.41052 61.2318L9.18545 58.5275L9.63925 59.161L9.32066 59.3907C9.70779 59.3703 10.0171 59.5185 10.2449 59.8371C10.4691 60.1482 10.5413 60.4835 10.4654 60.8428C10.3802 61.2448 10.1338 61.5912 9.72631 61.8838C9.3077 62.1839 8.89094 62.3043 8.47603 62.245C8.11484 62.1894 7.82588 62.0116 7.60917 61.7097C7.39245 61.4078 7.35355 61.0725 7.49062 60.7021L7.48877 60.7002ZM9.50404 60.1056C9.38734 59.9426 9.23361 59.8463 9.04467 59.813C8.80944 59.7667 8.58161 59.8223 8.36119 59.9797C8.13706 60.1408 8.0074 60.3372 7.97406 60.5724C7.94628 60.765 7.98888 60.9429 8.10743 61.1059C8.22968 61.2763 8.38897 61.3763 8.58902 61.4059C8.81685 61.443 9.03912 61.3818 9.25583 61.2281C9.46884 61.0762 9.5948 60.8873 9.6374 60.6632C9.67074 60.4613 9.62629 60.2742 9.50589 60.1056H9.50404Z" fill="#2C4476"/>
<path d="M13.0715 63.1322C13.3993 63.4601 13.5623 63.8249 13.5605 64.225C13.5605 64.664 13.3919 65.0548 13.0474 65.3975C12.7066 65.7383 12.3176 65.9069 11.8786 65.905C11.4785 65.9087 11.1136 65.7457 10.7858 65.416C10.4579 65.0863 10.2949 64.7233 10.2968 64.3232C10.2968 63.8842 10.4653 63.4952 10.8043 63.1544C11.1433 62.8136 11.5396 62.6395 11.9768 62.6414C12.3769 62.6377 12.7418 62.8006 13.0696 63.1303L13.0715 63.1322ZM11.1062 64.3121C11.0932 64.5362 11.1636 64.727 11.3211 64.8844C11.4785 65.0419 11.6693 65.1123 11.8934 65.0993C12.1175 65.0863 12.312 64.9956 12.4787 64.8307C12.6473 64.6622 12.7381 64.4658 12.7529 64.2417C12.7658 64.0176 12.6955 63.8268 12.538 63.6694C12.3806 63.5119 12.1898 63.4415 11.9657 63.4545C11.7415 63.4675 11.5452 63.5601 11.3766 63.7286C11.2118 63.8935 11.121 64.088 11.1081 64.3139L11.1062 64.3121Z" fill="#2C4476"/>
<path d="M15.3331 65.3216L16.3093 66.0532C16.5445 66.2292 16.6834 66.4107 16.726 66.5941C16.7798 66.8219 16.7316 67.0331 16.5834 67.2313C16.5056 67.3368 16.4056 67.4146 16.2833 67.4665C16.1611 67.5184 16.0351 67.5295 15.9018 67.5017C15.9944 67.6054 16.0518 67.7314 16.0759 67.8777C16.1037 68.074 16.0463 68.2685 15.9036 68.4593C15.7332 68.6871 15.5202 68.8075 15.2646 68.8224C15.0571 68.8298 14.8515 68.7594 14.6515 68.6075L13.5105 67.7536L15.3313 65.3234L15.3331 65.3216ZM14.5404 67.6814L14.8312 67.8999C14.9367 67.9796 15.0294 68.0166 15.1072 68.0111C15.1961 68.0074 15.272 67.9629 15.3368 67.8759C15.3961 67.7981 15.4128 67.7184 15.385 67.6406C15.3646 67.5665 15.3072 67.4943 15.2127 67.4239L14.9053 67.1942L14.5385 67.6832L14.5404 67.6814ZM15.235 66.7552L15.5221 66.9701C15.5869 67.0183 15.6536 67.0442 15.7203 67.0479C15.8036 67.0516 15.8721 67.0164 15.9277 66.9405C15.987 66.8627 16.0055 66.7867 15.987 66.7126C15.9722 66.6608 15.9203 66.6015 15.8332 66.5348L15.5573 66.3274L15.2368 66.7534L15.235 66.7552Z" fill="#2C4476"/>
<path d="M18.4968 67.5591L19.1729 67.9462L18.6357 68.8834L19.1636 69.1854C19.4451 69.3465 19.6081 69.5577 19.6545 69.8207C19.6952 70.0318 19.6489 70.256 19.5137 70.4912C19.3488 70.7802 19.1358 70.9543 18.8746 71.0154C18.6635 71.0672 18.4468 71.0284 18.2245 70.9024L16.9872 70.1948L18.4949 67.5591H18.4968ZM18.0004 69.9985L18.3171 70.18C18.432 70.2449 18.5283 70.2708 18.6042 70.256C18.6913 70.2411 18.7617 70.1874 18.8154 70.093C18.8635 70.0078 18.8709 69.9281 18.8339 69.854C18.8043 69.7836 18.7394 69.7188 18.6357 69.6595L18.3023 69.4688L17.9985 69.9985H18.0004Z" fill="#2C4476"/>
<path d="M22.9274 72.0564L23.5386 72.4491C23.4794 72.5157 23.4108 72.5769 23.333 72.6324C23.2571 72.6899 23.1478 72.7528 23.007 72.8232C22.8663 72.8936 22.7014 72.9288 22.5125 72.9288C22.3235 72.9288 22.1253 72.8843 21.916 72.7973C21.5141 72.6306 21.2437 72.362 21.101 71.9953C20.9492 71.6081 20.9677 71.1877 21.1566 70.7339C21.3437 70.2856 21.6271 69.9726 22.005 69.7948C22.3587 69.6336 22.7347 69.6355 23.1311 69.8003C23.5646 69.98 23.8331 70.2727 23.9369 70.6746C24.0295 71.0284 23.9795 71.4377 23.785 71.9026L23.7572 71.9675L21.8457 71.171C21.766 71.3618 21.7419 71.5359 21.7734 71.6952C21.8179 71.9212 21.9512 72.0805 22.1754 72.1749C22.4421 72.2861 22.6921 72.2453 22.9255 72.0545L22.9274 72.0564ZM22.0827 70.6783L23.2923 71.1821C23.3404 70.9895 23.3256 70.8209 23.2515 70.6746C23.1756 70.5301 23.0644 70.4264 22.92 70.3653C22.7792 70.306 22.6292 70.3023 22.4717 70.3523C22.3143 70.4042 22.1846 70.5116 22.0846 70.6765L22.0827 70.6783Z" fill="#2C4476"/>
<path d="M30.7978 70.0356L31.4998 70.1727C31.309 70.708 30.9441 71.008 30.4014 71.0747L30.1013 71.1099C30.0791 71.1099 30.0161 71.1154 29.9124 71.1266C29.8087 71.1377 29.7309 71.1469 29.679 71.1562C29.6271 71.1655 29.5605 71.184 29.4771 71.2099C29.3938 71.2377 29.3215 71.2729 29.2604 71.3173C29.04 71.4692 28.8881 71.7045 28.8047 72.0231H28.8177C28.94 71.9064 29.0955 71.8304 29.2845 71.7971C29.4734 71.7637 29.6605 71.7656 29.8494 71.8026C30.268 71.8841 30.5792 72.0897 30.7848 72.4194C31.0089 72.7677 31.0738 73.1807 30.9812 73.6586C30.8885 74.1365 30.6607 74.4995 30.2958 74.7477C29.9606 74.9737 29.5753 75.0441 29.1344 74.9589C28.6751 74.87 28.338 74.6681 28.125 74.3569C27.8601 73.9716 27.7953 73.4382 27.9268 72.7547C28.1046 71.8323 28.3732 71.1877 28.7288 70.8246C28.8696 70.6802 29.0326 70.569 29.2159 70.4931C29.3993 70.4171 29.5475 70.3708 29.6586 70.3579C29.7698 70.3431 29.9143 70.3356 30.0939 70.3319C30.3032 70.3245 30.4588 70.2986 30.5607 70.2542C30.6626 70.2097 30.7404 70.1375 30.7941 70.0374L30.7978 70.0356ZM28.7584 73.8642C28.8714 74.0531 29.04 74.168 29.2604 74.2124C29.4827 74.255 29.6809 74.2106 29.8568 74.0772C30.0328 73.9438 30.1421 73.7586 30.1884 73.5197C30.2347 73.277 30.2032 73.0603 30.0921 72.8732C29.9809 72.6843 29.8124 72.5695 29.5864 72.525C29.3604 72.4806 29.1604 72.525 28.9881 72.6584C28.814 72.7917 28.7047 72.9807 28.6584 73.2233C28.6121 73.4623 28.6454 73.6753 28.7584 73.8642Z" fill="#2C4476"/>
<path d="M34.6893 74.5402L35.395 74.7125C35.3598 74.794 35.3154 74.8755 35.2617 74.9533C35.2079 75.0311 35.1264 75.1274 35.0153 75.2404C34.906 75.3534 34.7616 75.4404 34.5819 75.5016C34.4022 75.5627 34.2003 75.5868 33.9762 75.572C33.5428 75.5442 33.1982 75.3793 32.9445 75.0774C32.674 74.7607 32.5555 74.3569 32.587 73.866C32.6185 73.3807 32.7833 72.9936 33.0834 72.7028C33.3649 72.4342 33.7206 72.3157 34.1503 72.3416C34.6171 72.3713 34.9672 72.5602 35.1968 72.9084C35.3987 73.2122 35.4839 73.616 35.4524 74.1198L35.4487 74.1902L33.3816 74.0587C33.3686 74.2643 33.402 74.4365 33.4835 74.5773C33.5983 74.7773 33.778 74.8848 34.0206 74.8996C34.3096 74.9181 34.5337 74.7996 34.6912 74.5421L34.6893 74.5402ZM33.4427 73.5122L34.7504 73.5956C34.7338 73.3974 34.6652 73.2418 34.5467 73.1288C34.4281 73.0158 34.2892 72.9547 34.1336 72.9436C33.9799 72.9343 33.8373 72.9788 33.7058 73.077C33.5742 73.177 33.4853 73.3215 33.4446 73.5104L33.4427 73.5122Z" fill="#2C4476"/>
<path d="M39.2052 72.5046L39.2441 73.3455C39.0607 73.1751 38.844 73.0973 38.5939 73.1084C38.3476 73.1195 38.1586 73.2122 38.0308 73.3826C37.903 73.5548 37.8437 73.7604 37.8549 73.9975C37.866 74.2457 37.9512 74.4476 38.1105 74.6032C38.2698 74.7606 38.4661 74.8329 38.6995 74.8218C38.9292 74.8107 39.1292 74.7125 39.2996 74.5273L39.3385 75.3608C39.1144 75.4978 38.8792 75.5719 38.6328 75.583C38.2031 75.6034 37.84 75.4719 37.5455 75.1904C37.2381 74.8996 37.0732 74.5198 37.051 74.0475C37.0269 73.5344 37.1677 73.1158 37.4733 72.7917C37.7289 72.5176 38.0549 72.3712 38.4513 72.3527C38.7199 72.3397 38.9718 72.3898 39.207 72.5009L39.2052 72.5046Z" fill="#2C4476"/>
<path d="M41.213 75.2793L40.7426 72.2787L41.5131 72.1583L41.8706 74.4384L42.893 74.2772L42.5355 71.9971L43.3061 71.8767L43.6636 74.1568L44.1063 74.0883L44.3563 75.6812L43.6617 75.7905L43.5247 74.9181L41.213 75.2812V75.2793Z" fill="#2C4476"/>
<path d="M47.5867 72.9232L48.3091 72.8491C48.3035 72.938 48.2887 73.0288 48.2628 73.1214C48.2387 73.214 48.1924 73.3307 48.1275 73.4733C48.0627 73.616 47.9553 73.7456 47.8071 73.8642C47.6589 73.9809 47.4755 74.0716 47.2588 74.1327C46.8402 74.2513 46.4623 74.2105 46.1215 74.0105C45.7603 73.803 45.514 73.4622 45.3788 72.9899C45.2454 72.5213 45.2713 72.1008 45.4584 71.7285C45.6344 71.3821 45.9289 71.1488 46.3438 71.0321C46.7939 70.9043 47.1866 70.9654 47.5181 71.2154C47.8108 71.434 48.0257 71.7859 48.1646 72.2712L48.1831 72.3379L46.1919 72.9047C46.2475 73.1029 46.3382 73.2548 46.4605 73.3603C46.6365 73.5104 46.8402 73.5511 47.0736 73.4845C47.3514 73.4048 47.5218 73.2177 47.5848 72.9232H47.5867ZM46.0678 72.3712L47.3274 72.0138C47.244 71.8322 47.1292 71.71 46.9791 71.6433C46.8291 71.5766 46.6791 71.5637 46.5272 71.6081C46.3808 71.6507 46.2604 71.7396 46.1697 71.8785C46.0789 72.0175 46.0437 72.1823 46.0678 72.3749V72.3712Z" fill="#2C4476"/>
<path d="M50.3892 73.0084L49.2037 70.2115L49.9224 69.9078L50.341 70.895L51.3412 70.4708L50.9226 69.4817L51.6413 69.178L52.8268 71.9749L52.1081 72.2786L51.6265 71.1414L50.6263 71.5655L51.1079 72.7028L50.3892 73.0066V73.0084Z" fill="#2C4476"/>
<path d="M54.6976 71.0395L53.1658 68.4167L53.8381 68.024L54.379 68.9501L55.3181 68.4019L54.7772 67.4757L55.4515 67.0831L56.9833 69.7059L56.3091 70.0985L55.6867 69.0335L54.7476 69.5818L55.37 70.6487L54.6976 71.0413V71.0395Z" fill="#2C4476"/>
<path d="M56.8721 66.144L57.4815 65.6587L58.1539 66.5033L58.6281 66.1254C58.8818 65.9235 59.1393 65.8495 59.4005 65.905C59.6116 65.9458 59.8024 66.0717 59.971 66.2829C60.1784 66.5422 60.2618 66.8052 60.221 67.0701C60.1914 67.285 60.0747 67.472 59.8746 67.6313L58.7596 68.5186L56.8684 66.1421L56.8721 66.144ZM58.9541 67.5072L59.2393 67.2812C59.343 67.1979 59.4023 67.1183 59.4171 67.0423C59.4357 66.9553 59.4116 66.87 59.3449 66.7867C59.2838 66.7089 59.2115 66.6737 59.13 66.6793C59.0541 66.6793 58.9689 66.7163 58.8763 66.7923L58.5762 67.0312L58.9559 67.5091L58.9541 67.5072ZM58.9318 64.5029L59.5412 64.0176L61.4324 66.394L60.823 66.8793L58.9318 64.5029Z" fill="#2C4476"/>
<path d="M60.9878 60.3687L61.5305 60.1742C61.6657 60.415 61.7046 60.6447 61.6509 60.8669C61.5954 61.0892 61.4972 61.2781 61.3527 61.4337C61.2082 61.5912 61.0286 61.706 60.8119 61.7782C60.5951 61.8505 60.3618 61.8301 60.1117 61.7153L60.2617 61.1577C60.371 61.2244 60.4914 61.2504 60.6211 61.2337C60.7507 61.217 60.86 61.1596 60.9508 61.0633C61.0341 60.9725 61.0841 60.8632 61.0971 60.7373C61.1119 60.6113 61.0749 60.4891 60.9897 60.3687H60.9878ZM60.7822 62.8377L61.3101 62.2635L62.6882 63.5323L62.177 61.3226L62.7049 60.7484L64.9387 62.8062L64.4108 63.3804L63.0327 62.1116L63.5439 64.3214L63.0161 64.8956L60.7822 62.8377Z" fill="#2C4476"/>
<path d="M65.2666 57.1661L66.3872 55.1564L68.4025 56.2808L68.6025 55.9233L70.0121 56.7086L69.6694 57.3217L68.897 56.892L67.9691 58.5553L68.7415 58.985L68.3988 59.6L66.9892 58.8146C67.0837 58.6183 67.0503 58.4127 66.891 58.1978C66.7762 58.0497 66.5669 57.8922 66.265 57.7237L65.2666 57.168V57.1661ZM68.0228 56.9624L66.6447 56.1937L66.2465 56.9087L66.8355 57.2365C67.1948 57.4366 67.4078 57.6736 67.4764 57.9459L68.0246 56.9642L68.0228 56.9624Z" fill="#2C4476"/>
<path d="M68.2339 51.663L67.8635 51.5315L68.1265 50.798L70.9864 51.8205L70.7234 52.554L70.3529 52.4225C70.5919 52.7299 70.6493 53.0504 70.5289 53.3875C70.3881 53.7802 70.127 54.0487 69.7435 54.1895C69.3601 54.3303 68.9545 54.3247 68.5285 54.1728C68.0969 54.0191 67.7783 53.769 67.5745 53.4245C67.3708 53.08 67.3356 52.717 67.4727 52.3354C67.6079 51.9575 67.8616 51.7353 68.2339 51.6649V51.663ZM68.6692 51.9687C68.4655 52.0502 68.3284 52.1946 68.2525 52.4039C68.1784 52.6132 68.1932 52.8133 68.2988 53.0041C68.4044 53.1967 68.5711 53.3319 68.8007 53.4153C69.0304 53.4968 69.2471 53.4986 69.4527 53.4171C69.6583 53.3375 69.7973 53.1911 69.8713 52.9837C69.9454 52.7762 69.9306 52.5743 69.8213 52.3817C69.7139 52.1891 69.5453 52.052 69.3157 51.9705C69.086 51.889 68.8711 51.889 68.6674 51.9705L68.6692 51.9687Z" fill="#2C4476"/>
<path d="M71.2957 48.8087L73.2684 49.1366L73.1406 49.9053L68.5599 49.1422L68.6877 48.3735L69.0749 48.4383C68.7859 48.179 68.6748 47.8548 68.7396 47.4696C68.8026 47.0917 68.9878 46.8028 69.2953 46.6027C69.6398 46.3786 70.0603 46.3082 70.553 46.3916C71.0605 46.4768 71.4402 46.6861 71.6921 47.0213C71.9088 47.3158 71.9866 47.6474 71.9255 48.0123C71.8644 48.3772 71.6551 48.6439 71.2957 48.8087ZM69.4509 47.8011C69.4175 47.9993 69.4583 48.1753 69.5694 48.3327C69.7028 48.5328 69.9028 48.6532 70.1696 48.6976C70.4418 48.7439 70.6734 48.6958 70.8623 48.5531C71.0197 48.4364 71.1142 48.2809 71.1476 48.0827C71.1809 47.8771 71.1401 47.6918 71.0197 47.5307C70.8845 47.3436 70.6863 47.2288 70.4233 47.1843C70.1659 47.1417 69.9417 47.1843 69.7546 47.3121C69.5879 47.4307 69.4879 47.5937 69.4527 47.7993L69.4509 47.8011Z" fill="#2C4476"/>
<path d="M3.77498 37.9471H1.95605V43.6798H3.77498V37.9471Z" fill="#E30613"/>
<path d="M5.73096 41.722V39.9031H-0.0018177V41.722H5.73096Z" fill="#E30613"/>
<path d="M72.0421 37.3248H70.2231V43.0575H72.0421V37.3248Z" fill="#E30613"/>
<path d="M74 41.0997V39.2808H68.2672V41.0997H74Z" fill="#E30613"/>
</g>
<defs>
<clipPath id="clip0_229_476">
<rect width="74" height="77" fill="white"/>
</clipPath>
</defs>
</svg>
