<svg width="135" height="109" viewBox="0 0 135 109" fill="none" xmlns="http://www.w3.org/2000/svg">
<path d="M9.864 13.842C9.666 14.904 8.64 16.254 6.66 16.254C4.446 16.254 3.042 14.346 3.042 11.664C3.042 8.928 4.482 7.074 6.66 7.074C8.514 7.074 9.486 8.172 9.846 9.468H11.988C11.628 7.092 9.828 5.112 6.66 5.112C3.222 5.112 0.846 7.812 0.846 11.664C0.846 15.606 3.294 18.216 6.66 18.216C10.152 18.216 11.808 15.804 12.024 13.842H9.864ZM16.0733 18V13.716L19.6013 18H22.0853L18.0713 13.122L22.0313 8.82H19.6013L16.0733 12.636V8.82H14.0213V18H16.0733ZM28.3375 8.604C26.8795 8.604 25.9435 9.27 25.4935 10.008V8.82H23.5135V21.438H25.5655V16.974C25.9975 17.64 26.9335 18.216 28.2835 18.216C30.4615 18.216 32.4055 16.56 32.4055 13.41C32.4055 10.26 30.4795 8.604 28.3375 8.604ZM27.9415 16.398C26.4835 16.398 25.5115 15.246 25.5115 13.446V13.374C25.5115 11.574 26.4835 10.422 27.9415 10.422C29.3815 10.422 30.3355 11.628 30.3355 13.41C30.3355 15.21 29.3815 16.398 27.9415 16.398ZM38.3552 8.604C35.6552 8.604 33.8372 10.566 33.8372 13.41C33.8372 16.254 35.6552 18.216 38.3552 18.216C41.0552 18.216 42.8732 16.254 42.8732 13.41C42.8732 10.566 41.0552 8.604 38.3552 8.604ZM38.3552 16.398C36.8432 16.398 35.9252 15.174 35.9252 13.41C35.9252 11.646 36.8432 10.422 38.3552 10.422C39.8672 10.422 40.7852 11.646 40.7852 13.41C40.7852 15.174 39.8672 16.398 38.3552 16.398ZM43.7231 18.036H44.2811C46.2971 18.036 47.2331 17.01 47.4311 14.472L47.7371 10.62H50.6351V18H52.6871V8.82H45.9371L45.4871 14.328C45.3791 15.714 45.0371 16.236 44.0111 16.236H43.7231V18.036ZM54.2173 18.036H54.7753C56.7913 18.036 57.7273 17.01 57.9253 14.472L58.2313 10.62H61.1293V18H63.1813V8.82H56.4313L55.9813 14.328C55.8733 15.714 55.5313 16.236 54.5053 16.236H54.2173V18.036ZM67.7174 8.82H65.6834V18H69.5534C71.6054 18 72.9194 16.614 72.9194 14.778C72.9194 12.96 71.6234 11.61 69.5534 11.61H67.7174V8.82ZM69.3014 13.338C70.3094 13.338 70.8854 13.932 70.8854 14.778C70.8854 15.624 70.3094 16.29 69.3014 16.29H67.7174V13.338H69.3014ZM73.2075 10.62H76.1415V18H78.1935V10.62H81.1275V8.82H73.2075V10.62ZM90.5868 14.004V13.158C90.5868 10.386 88.9488 8.604 86.4288 8.604C83.8368 8.604 82.0188 10.44 82.0188 13.428C82.0188 16.398 83.8368 18.216 86.5548 18.216C89.0568 18.216 90.2448 16.686 90.4788 15.516H88.4628C88.3188 15.93 87.6888 16.506 86.5908 16.506C85.1148 16.506 84.1248 15.426 84.1248 14.04V14.004H90.5868ZM86.4108 10.314C87.6888 10.314 88.4808 11.124 88.5348 12.456H84.1428C84.2688 11.16 85.1148 10.314 86.4108 10.314ZM96.4627 18H100.765C102.853 18 103.987 16.866 103.987 15.39C103.987 14.13 103.195 13.392 102.331 13.158C102.997 12.906 103.609 12.258 103.609 11.196C103.609 9.864 102.637 8.82 100.585 8.82H96.4627V18ZM100.513 14.076C101.449 14.076 101.935 14.49 101.935 15.228C101.935 15.966 101.449 16.416 100.513 16.416H98.4787V14.076H100.513ZM100.333 10.404C101.161 10.404 101.593 10.764 101.593 11.448C101.593 12.114 101.143 12.528 100.333 12.528H98.4787V10.404H100.333ZM108.007 18V14.166H111.949V18H114.001V8.82H111.949V12.348H108.007V8.82H105.955V18H108.007ZM124.638 8.82H122.658L118.5 14.94V8.82H116.484V18H118.464L122.622 11.898V18H124.638V8.82ZM126.687 11.394H128.649C128.811 10.764 129.405 10.296 130.377 10.296C131.259 10.296 131.853 10.692 131.853 11.394C131.853 12.114 131.313 12.528 130.359 12.528H129.117V14.148H130.467C131.583 14.148 132.177 14.508 132.177 15.264C132.177 16.074 131.493 16.524 130.449 16.524C129.459 16.524 128.721 16.092 128.523 15.3H126.525C126.759 17.154 128.325 18.216 130.449 18.216C132.681 18.216 134.229 17.064 134.229 15.354C134.229 13.986 133.239 13.392 132.537 13.23C133.185 12.96 133.869 12.366 133.869 11.232C133.869 9.63 132.411 8.604 130.485 8.604C128.541 8.604 126.885 9.576 126.687 11.394Z" fill="#2B2D33"/>
<path d="M55.9392 92.0683L66.4392 102.568C67.025 103.154 67.9748 103.154 68.5605 102.568L79.0605 92.0683L76.9392 89.947L67.4999 99.3864L58.0605 89.947L55.9392 92.0683Z" fill="#2B2D33"/>
<path d="M55.9392 83.0683L66.4392 93.5683C67.025 94.1541 67.9748 94.1541 68.5605 93.5683L79.0605 83.0683L76.9392 80.947L67.4999 90.3864L58.0605 80.947L55.9392 83.0683Z" fill="#2B2D33"/>
<rect width="36" height="36" transform="translate(49.5 37)" fill="white"/>
<rect x="58.063" y="44.563" width="18.7559" height="26.5709" rx="4.68898" stroke="#2B2D33" stroke-width="3.12599"/>
<circle cx="67.8317" cy="49.643" r="1.95374" fill="#2B2D33"/>
</svg>
