<svg width="48" height="48" viewBox="0 0 48 48" fill="none" xmlns="http://www.w3.org/2000/svg">
<path d="M16 0H32C36.2397 0.012242 40.3023 1.70188 43.3002 4.69982C46.2981 7.69775 47.9878 11.7603 48 16V32C47.9878 36.2397 46.2981 40.3023 43.3002 43.3002C40.3023 46.2981 36.2397 47.9878 32 48H16C11.7603 47.9878 7.69775 46.2981 4.69982 43.3002C1.70188 40.3023 0.012242 36.2397 0 32L0 16C0.012242 11.7603 1.70188 7.69775 4.69982 4.69982C7.69775 1.70188 11.7603 0.012242 16 0V0Z" fill="#FEE600"/>
<path d="M36.2672 20.5297L32 23.7297V23.6801C32 22.8446 31.6681 22.0433 31.0773 21.4525C30.4865 20.8617 29.6852 20.5297 28.8496 20.5297H11.1504C10.315 20.5302 9.51396 20.8622 8.92324 21.4529C8.33251 22.0437 8.00046 22.8447 8.00004 23.6801V34.9793C8.00004 35.8149 8.33195 36.6162 8.92277 37.207C9.51358 37.7978 10.3149 38.1297 11.1504 38.1297H28.8496C29.2634 38.1299 29.6732 38.0486 30.0555 37.8904C30.4378 37.7321 30.7852 37.5001 31.0778 37.2075C31.3704 36.9149 31.6024 36.5675 31.7607 36.1852C31.9189 35.8029 32.0002 35.3931 32 34.9793V34.9297L36.2672 38.1297H40V20.5297H36.2672ZM28.8 34.9297H11.2V23.7297H28.8V34.9297ZM36.8 34.5297L32 30.9297V27.7297L36.8 24.1297V34.5297Z" fill="#2B2D33"/>
<path d="M11.624 18.9294C11.3499 18.1587 11.2066 17.3475 11.2 16.5294V16.3694C11.1856 15.6561 11.3998 14.9569 11.8111 14.3739C12.2225 13.791 12.8095 13.3549 13.4864 13.1294C14.2126 12.9139 14.989 12.9389 15.6997 13.2007C16.4105 13.4625 17.0176 13.9471 17.4304 14.5822C17.9701 15.4654 18.4511 16.3831 18.8704 17.3294H21.1328C21.4943 16.3908 21.9579 15.4947 22.5152 14.6574C22.9435 14.0219 23.5575 13.534 24.2735 13.2605C24.9894 12.9871 25.7723 12.9413 26.5152 13.1294C27.1911 13.3553 27.7773 13.791 28.1883 14.3732C28.5993 14.9555 28.8136 15.6537 28.8 16.3662V16.5262C28.7932 17.3441 28.6505 18.1552 28.3776 18.9262H31.68C31.8837 18.1264 31.9911 17.3051 32 16.4798C32.0312 15.0384 31.5899 13.6263 30.7435 12.4592C29.897 11.292 28.6919 10.4339 27.312 10.0158C25.9393 9.6276 24.4765 9.70604 23.1532 10.2389C21.8298 10.7717 20.7208 11.7287 20 12.9598C19.2793 11.7287 18.1702 10.7717 16.8469 10.2389C15.5235 9.70604 14.0608 9.6276 12.688 10.0158C11.3082 10.4339 10.1031 11.292 9.25659 12.4592C8.41012 13.6263 7.96881 15.0384 8.00002 16.4798C8.00922 17.304 8.11665 18.1242 8.32002 18.923L11.624 18.9294Z" fill="#2B2D33"/>
</svg>
