<svg width="164" height="35" viewBox="0 0 164 35" fill="none" xmlns="http://www.w3.org/2000/svg">
<path d="M34.6485 0.794434H0.269531V35H34.6485V0.794434Z" fill="black"/>
<path d="M33.7332 1.8064H1.28687V34.0892H33.7332V1.8064Z" fill="#FFEE00"/>
<path d="M3.01579 27.5112L7.28773 31.7616L17.1539 21.7428L27.4269 31.964L31.6988 27.7136L21.5275 17.5936L23.4601 15.6708V11.6228L24.6806 10.6108V13.9504L26.2063 15.266L30.8851 10.6108L32.4108 11.724C33.3262 8.48563 28.1389 0.99683 23.8669 5.14603L18.883 10.1048L19.9001 11.3192L17.3573 13.748L15.0179 11.3192L16.3402 10.206L10.8477 4.94363C6.77917 1.60403 2.50723 6.66403 2.40552 11.724L3.93121 10.5096L8.50829 15.4684L10.1357 14.1528V11.1168L11.1528 11.9264V15.8732L13.1871 17.8972L3.01579 27.5112Z" fill="black"/>
<path d="M153.144 14.8612H156.5V11.0156H159.653V14.8612H163.01V5.34843H159.653V8.68803H156.5V5.34843H153.144V14.8612ZM132.699 8.08083C133.411 7.57483 134.429 7.27123 135.242 7.27123C135.649 7.27123 136.565 7.37243 136.565 8.18203C136.565 8.99163 135.751 8.99163 135.446 8.99163H133.818V11.1168H135.242C135.751 11.1168 136.666 11.1168 136.666 11.9264C136.666 12.23 136.463 12.8372 135.344 12.8372C134.123 12.8372 133.411 12.5336 132.394 11.9264L131.479 14.1528C133.31 15.1648 135.039 15.266 135.751 15.266C139.616 15.266 140.125 13.0396 140.125 12.3312C140.125 11.3192 139.514 10.3072 138.192 10.0036C139.006 9.59883 139.616 8.78923 139.616 7.77723C139.616 5.55083 137.277 5.04483 135.751 5.04483C134.429 5.04483 132.801 5.44963 131.784 5.95563L132.699 8.08083ZM125.274 4.03283C126.8 4.03283 128.428 3.42563 129.14 1.80643L126.902 0.996834C126.597 2.11003 125.681 2.21123 125.274 2.21123C124.868 2.21123 123.952 2.11003 123.647 0.996834L121.511 1.80643C122.223 3.52683 123.85 4.03283 125.274 4.03283ZM120.087 5.34843V14.9624H123.342L126.698 9.70003V14.9624H130.055V5.34843H126.8L123.444 10.5096V5.34843H120.087ZM97.6086 12.8372V7.47363C96.4897 7.47363 95.2692 8.28323 95.2692 10.1048C95.3709 12.0276 96.4897 12.8372 97.6086 12.8372ZM100.558 7.47363V12.8372C101.677 12.8372 102.898 12.0276 102.898 10.206C102.898 8.38443 101.677 7.47363 100.558 7.47363ZM97.4051 19.1116V15.0636C95.3709 15.0636 92.1161 14.254 92.1161 10.1048C92.1161 5.95563 95.4726 5.14603 97.4051 5.14603V0.996834H100.762V5.14603C102.796 5.14603 106.051 5.95563 106.051 10.1048C106.051 14.254 102.694 15.0636 100.762 15.0636V19.1116H97.4051ZM82.4534 12.8372V7.47363C81.3345 7.47363 80.114 8.28323 80.114 10.1048C80.114 12.0276 81.2328 12.8372 82.4534 12.8372ZM85.403 7.47363V12.8372C86.5219 12.8372 87.7424 12.0276 87.7424 10.206C87.6407 8.38443 86.5219 7.47363 85.403 7.47363ZM82.2499 19.1116V15.0636C80.2157 15.0636 76.9609 14.254 76.9609 10.1048C76.9609 5.95563 80.2157 5.14603 82.2499 5.14603V0.996834H85.6065V5.14603C87.6407 5.14603 90.8955 5.95563 90.8955 10.1048C90.8955 14.254 87.539 15.0636 85.6065 15.0636V19.1116H82.2499ZM70.553 4.03283C72.0786 4.03283 73.7061 3.42563 74.3163 1.80643L72.0786 0.996834C71.7735 2.11003 70.8581 2.21123 70.4512 2.21123C70.0444 2.21123 69.129 2.11003 68.8238 0.996834L66.6879 1.80643C67.3999 3.52683 69.0273 4.03283 70.553 4.03283ZM65.2639 5.34843V14.9624H68.5187L71.8752 9.70003V14.9624H75.2317V5.34843H71.9769L68.6204 10.5096V5.34843H65.2639ZM44.6162 3.83043V7.06883H45.8368C47.5659 7.06883 47.6676 6.05683 47.6676 5.44963C47.6676 4.74123 47.4642 3.83043 45.8368 3.83043H44.6162ZM40.9545 14.8612V0.794434H46.6505C50.5155 0.794434 51.6344 3.52683 51.6344 5.44963C51.6344 7.37243 50.5155 10.1048 46.7522 10.1048H44.7179V14.8612H40.9545ZM117.951 5.34843V14.9624H114.595V13.8492C113.984 14.76 112.865 15.266 111.747 15.266C108.899 15.266 106.966 12.8372 106.966 10.1048C106.966 7.37243 108.899 5.04483 111.747 5.04483C112.865 5.04483 113.984 5.44963 114.696 6.25923V5.34843H117.951ZM112.56 7.97963C111.136 7.97963 110.424 8.99163 110.424 10.1048C110.424 11.3192 111.238 12.23 112.56 12.23C113.883 12.23 114.696 11.3192 114.696 10.1048C114.696 8.89043 113.883 7.97963 112.56 7.97963ZM63.1279 5.34843V14.9624H59.7714V13.8492C59.1611 14.76 58.0423 15.266 56.9234 15.266C54.0755 15.266 52.1429 12.8372 52.1429 10.1048C52.1429 7.37243 54.0755 5.04483 56.9234 5.04483C58.0423 5.04483 59.1611 5.44963 59.8731 6.25923V5.34843H63.1279ZM57.7372 7.97963C56.3132 7.97963 55.6012 8.99163 55.6012 10.1048C55.6012 11.3192 56.4149 12.23 57.7372 12.23C59.0594 12.23 59.8731 11.3192 59.8731 10.1048C59.8731 8.89043 59.0594 7.97963 57.7372 7.97963ZM151.516 10.5096V10.9144H144.396C144.396 12.3312 145.108 13.0396 146.532 13.0396C147.244 13.0396 147.753 12.8372 148.16 12.1288H151.415C150.906 14.4564 148.77 15.4684 146.532 15.4684C143.379 15.4684 141.04 13.6468 141.04 10.4084C141.04 7.17003 143.176 5.24723 146.329 5.24723C149.584 5.14603 151.516 7.27123 151.516 10.5096ZM144.396 8.89043H148.262C148.058 7.97963 147.244 7.37243 146.329 7.37243C145.414 7.37243 144.6 7.87843 144.396 8.89043Z" fill="black"/>
<path d="M45.3278 32.0651H45.9381C46.5483 32.0651 47.0569 32.0651 47.4637 31.9639C47.8706 31.8627 48.1757 31.7615 48.4809 31.5591C48.786 31.3567 48.9894 30.9519 49.0911 30.4459C49.1929 29.9399 49.1929 29.6363 48.9894 29.4339C48.786 29.2315 48.4809 29.0291 48.1757 29.0291C47.8706 29.0291 47.362 28.9279 46.65 28.9279H46.0398L45.3278 32.0651ZM53.3631 20.8319L52.6511 23.9691H46.9552L46.5483 25.8919H48.6843C49.8031 25.8919 50.6168 26.0943 51.3288 26.3979C52.0408 26.7015 52.4477 27.3087 52.7528 27.9159C52.9562 28.6243 53.0579 29.4339 52.7528 30.4459C52.5494 31.3567 52.1425 32.2675 51.5323 32.8747C50.922 33.5831 50.21 34.0891 49.3963 34.3927C48.5826 34.6963 47.5655 34.8987 46.5483 34.8987H40.8524L43.9038 20.6295H53.3631V20.8319Z" fill="black"/>
<path d="M62.3144 25.1836L59.7715 29.7376H62.8229L62.3144 25.1836ZM58.1441 32.5712L56.6184 35H52.6516L61.1955 20.7308H65.264L67.6034 35H63.6366L63.2298 32.5712H58.1441Z" fill="black"/>
<path d="M80.2154 26.2968L81.3343 20.832H85.0976L82.0463 35H78.2829L79.6052 29.2316H74.2144L72.9938 35H69.2305L72.2818 20.832H75.9435L74.8247 26.2968H80.2154Z" fill="black"/>
<path d="M96.1851 20.832H100.864L93.744 27.5112L98.3211 35H93.4389L89.9806 28.8268L88.6583 35H84.895L87.9464 20.832H91.7097L90.3875 26.7016H90.4892L96.1851 20.832Z" fill="black"/>
</svg>
