<svg width="35" height="35" viewBox="0 0 35 35" fill="none" xmlns="http://www.w3.org/2000/svg">
<path d="M34.3789 0H0V34.2056H34.3789V0Z" fill="black"/>
<path d="M33.4637 1.01196H1.01733V33.2948H33.4637V1.01196Z" fill="#FFEE00"/>
<path d="M2.74626 26.7168L7.0182 30.9672L16.8843 20.9484L27.1573 31.1696L31.4293 26.9192L21.258 16.7992L23.1905 14.8764V10.8284L24.4111 9.81639V13.156L25.9368 14.4716L30.6156 9.81639L32.1413 10.9296C33.0567 7.69119 27.8693 0.202396 23.5974 4.35159L18.6135 9.31039L19.6306 10.5248L17.0878 12.9536L14.7484 10.5248L16.0706 9.41159L10.5781 4.14919C6.50964 0.809595 2.2377 5.86959 2.13599 10.9296L3.66168 9.71519L8.23875 14.674L9.86616 13.3584V10.3224L10.8833 11.132V15.0788L12.9175 17.1028L2.74626 26.7168Z" fill="black"/>
</svg>
