<svg width="50" height="50" viewBox="0 0 50 50" fill="none" xmlns="http://www.w3.org/2000/svg">
<path d="M0 46.4286C0 48.404 1.59598 50 3.57143 50C5.54688 50 7.14286 48.404 7.14286 46.4286V8.92857C7.14286 7.94643 7.94643 7.14286 8.92857 7.14286H46.4286C48.404 7.14286 50 5.54688 50 3.57143C50 1.59598 48.404 0 46.4286 0H8.92857C3.99554 0 0 3.99554 0 8.92857V46.4286ZM17.8571 46.4286C17.8571 45.4814 17.4809 44.573 16.8111 43.9032C16.1413 43.2334 15.2329 42.8571 14.2857 42.8571C13.3385 42.8571 12.4301 43.2334 11.7603 43.9032C11.0906 44.573 10.7143 45.4814 10.7143 46.4286C10.7143 47.3758 11.0906 48.2842 11.7603 48.954C12.4301 49.6237 13.3385 50 14.2857 50C15.2329 50 16.1413 49.6237 16.8111 48.954C17.4809 48.2842 17.8571 47.3758 17.8571 46.4286ZM39.2857 46.4286C39.2857 45.4814 38.9094 44.573 38.2397 43.9032C37.5699 43.2334 36.6615 42.8571 35.7143 42.8571C34.7671 42.8571 33.8587 43.2334 33.1889 43.9032C32.5191 44.573 32.1429 45.4814 32.1429 46.4286C32.1429 47.3758 32.5191 48.2842 33.1889 48.954C33.8587 49.6237 34.7671 50 35.7143 50C36.6615 50 37.5699 49.6237 38.2397 48.954C38.9094 48.2842 39.2857 47.3758 39.2857 46.4286ZM28.5714 46.4286C28.5714 45.4814 28.1952 44.573 27.5254 43.9032C26.8556 43.2334 25.9472 42.8571 25 42.8571C24.0528 42.8571 23.1444 43.2334 22.4746 43.9032C21.8048 44.573 21.4286 45.4814 21.4286 46.4286C21.4286 47.3758 21.8048 48.2842 22.4746 48.954C23.1444 49.6237 24.0528 50 25 50C25.9472 50 26.8556 49.6237 27.5254 48.954C28.1952 48.2842 28.5714 47.3758 28.5714 46.4286ZM50 46.4286C50 45.4814 49.6237 44.573 48.954 43.9032C48.2842 43.2334 47.3758 42.8571 46.4286 42.8571C45.4814 42.8571 44.573 43.2334 43.9032 43.9032C43.2334 44.573 42.8571 45.4814 42.8571 46.4286C42.8571 47.3758 43.2334 48.2842 43.9032 48.954C44.573 49.6237 45.4814 50 46.4286 50C47.3758 50 48.2842 49.6237 48.954 48.954C49.6237 48.2842 50 47.3758 50 46.4286ZM46.4286 28.5714C47.3758 28.5714 48.2842 28.1952 48.954 27.5254C49.6237 26.8556 50 25.9472 50 25C50 24.0528 49.6237 23.1444 48.954 22.4746C48.2842 21.8048 47.3758 21.4286 46.4286 21.4286C45.4814 21.4286 44.573 21.8048 43.9032 22.4746C43.2334 23.1444 42.8571 24.0528 42.8571 25C42.8571 25.9472 43.2334 26.8556 43.9032 27.5254C44.573 28.1952 45.4814 28.5714 46.4286 28.5714ZM46.4286 32.1429C45.4814 32.1429 44.573 32.5191 43.9032 33.1889C43.2334 33.8587 42.8571 34.7671 42.8571 35.7143C42.8571 36.6615 43.2334 37.5699 43.9032 38.2397C44.573 38.9094 45.4814 39.2857 46.4286 39.2857C47.3758 39.2857 48.2842 38.9094 48.954 38.2397C49.6237 37.5699 50 36.6615 50 35.7143C50 34.7671 49.6237 33.8587 48.954 33.1889C48.2842 32.5191 47.3758 32.1429 46.4286 32.1429ZM46.4286 17.8571C47.3758 17.8571 48.2842 17.4809 48.954 16.8111C49.6237 16.1413 50 15.2329 50 14.2857C50 13.3385 49.6237 12.4301 48.954 11.7603C48.2842 11.0906 47.3758 10.7143 46.4286 10.7143C45.4814 10.7143 44.573 11.0906 43.9032 11.7603C43.2334 12.4301 42.8571 13.3385 42.8571 14.2857C42.8571 15.2329 43.2334 16.1413 43.9032 16.8111C44.573 17.4809 45.4814 17.8571 46.4286 17.8571Z" fill="black"/>
</svg>
