<svg width="48" height="48" viewBox="0 0 48 48" fill="none" xmlns="http://www.w3.org/2000/svg">
<path d="M16 0H32C36.2397 0.012242 40.3023 1.70188 43.3002 4.69982C46.2981 7.69775 47.9878 11.7603 48 16V32C47.9878 36.2397 46.2981 40.3023 43.3002 43.3002C40.3023 46.2981 36.2397 47.9878 32 48H16C11.7603 47.9878 7.69775 46.2981 4.69982 43.3002C1.70188 40.3023 0.012242 36.2397 0 32L0 16C0.012242 11.7603 1.70188 7.69775 4.69982 4.69982C7.69775 1.70188 11.7603 0.012242 16 0V0Z" fill="#FEE600"/>
<path d="M36.2673 20.5297L32.0001 23.7297V23.6801C32.0001 22.8446 31.6682 22.0433 31.0774 21.4525C30.4866 20.8617 29.6852 20.5297 28.8497 20.5297H11.1505C10.3151 20.5302 9.51402 20.8622 8.9233 21.4529C8.33257 22.0437 8.00052 22.8447 8.0001 23.6801V34.9793C8.0001 35.8149 8.33201 36.6162 8.92283 37.207C9.51364 37.7978 10.315 38.1297 11.1505 38.1297H28.8497C29.2635 38.1299 29.6732 38.0486 30.0556 37.8904C30.4379 37.7321 30.7853 37.5001 31.0778 37.2075C31.3704 36.9149 31.6025 36.5675 31.7607 36.1852C31.919 35.8029 32.0003 35.3931 32.0001 34.9793V34.9297L36.2673 38.1297H40.0001V20.5297H36.2673ZM28.8001 34.9297H11.2001V23.7297H28.8001V34.9297ZM36.8001 34.5297L32.0001 30.9297V27.7297L36.8001 24.1297V34.5297Z" fill="#2B2D33"/>
<path d="M11.6241 18.9294C11.3499 18.1587 11.2066 17.3475 11.2001 16.5294V16.3694C11.1857 15.6561 11.3998 14.9569 11.8112 14.3739C12.2226 13.791 12.8096 13.3549 13.4865 13.1294C14.2126 12.9139 14.989 12.9389 15.6998 13.2007C16.4106 13.4625 17.0177 13.9471 17.4305 14.5822C17.9702 15.4654 18.4512 16.3831 18.8705 17.3294H21.1329C21.4943 16.3908 21.9579 15.4947 22.5153 14.6574C22.9436 14.0219 23.5576 13.534 24.2735 13.2605C24.9895 12.9871 25.7724 12.9413 26.5153 13.1294C27.1912 13.3553 27.7774 13.791 28.1883 14.3732C28.5993 14.9555 28.8136 15.6537 28.8001 16.3662V16.5262C28.7933 17.3441 28.6505 18.1552 28.3777 18.9262H31.6801C31.8837 18.1264 31.9911 17.3051 32.0001 16.4798C32.0313 15.0384 31.59 13.6263 30.7435 12.4592C29.897 11.292 28.6919 10.4339 27.3121 10.0158C25.9393 9.6276 24.4766 9.70604 23.1532 10.2389C21.8299 10.7717 20.7208 11.7287 20.0001 12.9598C19.2793 11.7287 18.1703 10.7717 16.8469 10.2389C15.5236 9.70604 14.0608 9.6276 12.6881 10.0158C11.3082 10.4339 10.1031 11.292 9.25665 12.4592C8.41018 13.6263 7.96887 15.0384 8.00008 16.4798C8.00928 17.304 8.11671 18.1242 8.32008 18.923L11.6241 18.9294Z" fill="#2B2D33"/>
</svg>
