<svg width="163" height="35" viewBox="0 0 163 35" fill="none" xmlns="http://www.w3.org/2000/svg">
<path d="M34.3789 0H0V34.2056H34.3789V0Z" fill="black"/>
<path d="M33.4637 1.01196H1.01733V33.2948H33.4637V1.01196Z" fill="#FFEE00"/>
<path d="M2.74626 26.7168L7.0182 30.9672L16.8843 20.9484L27.1573 31.1696L31.4293 26.9192L21.258 16.7992L23.1905 14.8764V10.8284L24.4111 9.81639V13.156L25.9368 14.4716L30.6156 9.81639L32.1413 10.9296C33.0567 7.69119 27.8693 0.202396 23.5974 4.35159L18.6135 9.31039L19.6306 10.5248L17.0878 12.9536L14.7484 10.5248L16.0706 9.41159L10.5781 4.14919C6.50964 0.809595 2.2377 5.86959 2.13599 10.9296L3.66168 9.71519L8.23875 14.674L9.86616 13.3584V10.3224L10.8833 11.132V15.0788L12.9175 17.1028L2.74626 26.7168Z" fill="black"/>
<path d="M152.874 14.0668H156.231V10.2212H159.384V14.0668H162.74V4.554H159.384V7.8936H156.231V4.554H152.874V14.0668ZM132.43 7.2864C133.142 6.7804 134.159 6.4768 134.973 6.4768C135.379 6.4768 136.295 6.578 136.295 7.3876C136.295 8.1972 135.481 8.1972 135.176 8.1972H133.549V10.3224H134.973C135.481 10.3224 136.397 10.3224 136.397 11.132C136.397 11.4356 136.193 12.0428 135.074 12.0428C133.854 12.0428 133.142 11.7392 132.125 11.132L131.209 13.3584C133.04 14.3704 134.769 14.4716 135.481 14.4716C139.346 14.4716 139.855 12.2452 139.855 11.5368C139.855 10.5248 139.245 9.5128 137.922 9.2092C138.736 8.8044 139.346 7.9948 139.346 6.9828C139.346 4.7564 137.007 4.2504 135.481 4.2504C134.159 4.2504 132.532 4.6552 131.514 5.1612L132.43 7.2864ZM125.005 3.2384C126.53 3.2384 128.158 2.6312 128.87 1.012L126.632 0.2024C126.327 1.3156 125.412 1.4168 125.005 1.4168C124.598 1.4168 123.683 1.3156 123.377 0.2024L121.241 1.012C121.953 2.7324 123.581 3.2384 125.005 3.2384ZM119.817 4.554V14.168H123.072L126.429 8.9056V14.168H129.785V4.554H126.53L123.174 9.7152V4.554H119.817ZM97.3389 12.0428V6.6792C96.2201 6.6792 94.9995 7.4888 94.9995 9.3104C95.1012 11.2332 96.2201 12.0428 97.3389 12.0428ZM100.289 6.6792V12.0428C101.407 12.0428 102.628 11.2332 102.628 9.4116C102.628 7.59 101.407 6.6792 100.289 6.6792ZM97.1355 18.3172V14.2692C95.1012 14.2692 91.8464 13.4596 91.8464 9.3104C91.8464 5.1612 95.2029 4.3516 97.1355 4.3516V0.2024H100.492V4.3516C102.526 4.3516 105.781 5.1612 105.781 9.3104C105.781 13.4596 102.425 14.2692 100.492 14.2692V18.3172H97.1355ZM82.1837 12.0428V6.6792C81.0649 6.6792 79.8443 7.4888 79.8443 9.3104C79.8443 11.2332 80.9632 12.0428 82.1837 12.0428ZM85.1334 6.6792V12.0428C86.2522 12.0428 87.4728 11.2332 87.4728 9.4116C87.3711 7.59 86.2522 6.6792 85.1334 6.6792ZM81.9803 18.3172V14.2692C79.946 14.2692 76.6912 13.4596 76.6912 9.3104C76.6912 5.1612 79.946 4.3516 81.9803 4.3516V0.2024H85.3368V4.3516C87.3711 4.3516 90.6259 5.1612 90.6259 9.3104C90.6259 13.4596 87.2693 14.2692 85.3368 14.2692V18.3172H81.9803ZM70.2833 3.2384C71.809 3.2384 73.4364 2.6312 74.0467 1.012L71.809 0.2024C71.5039 1.3156 70.5884 1.4168 70.1816 1.4168C69.7747 1.4168 68.8593 1.3156 68.5542 0.2024L66.4182 1.012C67.1302 2.7324 68.7576 3.2384 70.2833 3.2384ZM64.9942 4.554V14.168H68.2491L71.6056 8.9056V14.168H74.9621V4.554H71.7073L68.3508 9.7152V4.554H64.9942ZM44.3465 3.036V6.2744H45.5671C47.2962 6.2744 47.3979 5.2624 47.3979 4.6552C47.3979 3.9468 47.1945 3.036 45.5671 3.036H44.3465ZM40.6849 14.0668V0H46.3808C50.2459 0 51.3647 2.7324 51.3647 4.6552C51.3647 6.578 50.2459 9.3104 46.4825 9.3104H44.4483V14.0668H40.6849ZM117.681 4.554V14.168H114.325V13.0548C113.715 13.9656 112.596 14.4716 111.477 14.4716C108.629 14.4716 106.696 12.0428 106.696 9.3104C106.696 6.578 108.629 4.2504 111.477 4.2504C112.596 4.2504 113.715 4.6552 114.427 5.4648V4.554H117.681ZM112.291 7.1852C110.867 7.1852 110.155 8.1972 110.155 9.3104C110.155 10.5248 110.968 11.4356 112.291 11.4356C113.613 11.4356 114.427 10.5248 114.427 9.3104C114.427 8.096 113.613 7.1852 112.291 7.1852ZM62.8583 4.554V14.168H59.5018V13.0548C58.8915 13.9656 57.7726 14.4716 56.6538 14.4716C53.8058 14.4716 51.8733 12.0428 51.8733 9.3104C51.8733 6.578 53.8058 4.2504 56.6538 4.2504C57.7726 4.2504 58.8915 4.6552 59.6035 5.4648V4.554H62.8583ZM57.4675 7.1852C56.0435 7.1852 55.3315 8.1972 55.3315 9.3104C55.3315 10.5248 56.1452 11.4356 57.4675 11.4356C58.7898 11.4356 59.6035 10.5248 59.6035 9.3104C59.6035 8.096 58.7898 7.1852 57.4675 7.1852ZM151.247 9.7152V10.12H144.127C144.127 11.5368 144.839 12.2452 146.263 12.2452C146.975 12.2452 147.483 12.0428 147.89 11.3344H151.145C150.636 13.662 148.5 14.674 146.263 14.674C143.11 14.674 140.77 12.8524 140.77 9.614C140.77 6.3756 142.906 4.4528 146.059 4.4528C149.314 4.3516 151.247 6.4768 151.247 9.7152ZM144.127 8.096H147.992C147.788 7.1852 146.975 6.578 146.059 6.578C145.144 6.578 144.33 7.084 144.127 8.096Z" fill="black"/>
<path d="M45.0581 31.2707H45.6684C46.2787 31.2707 46.7872 31.2707 47.1941 31.1695C47.6009 31.0683 47.9061 30.9671 48.2112 30.7647C48.5164 30.5623 48.7198 30.1575 48.8215 29.6515C48.9232 29.1455 48.9232 28.8419 48.7198 28.6395C48.5164 28.4371 48.2112 28.2347 47.9061 28.2347C47.6009 28.2347 47.0924 28.1335 46.3804 28.1335H45.7701L45.0581 31.2707ZM53.0934 20.0375L52.3814 23.1747H46.6855L46.2787 25.0975H48.4146C49.5335 25.0975 50.3472 25.2999 51.0592 25.6035C51.7712 25.9071 52.178 26.5143 52.4832 27.1215C52.6866 27.8299 52.7883 28.6395 52.4832 29.6515C52.2797 30.5623 51.8729 31.4731 51.2626 32.0803C50.6523 32.7887 49.9403 33.2947 49.1266 33.5983C48.3129 33.9019 47.2958 34.1043 46.2787 34.1043H40.5828L43.6341 19.8351H53.0934V20.0375Z" fill="black"/>
<path d="M62.0447 24.3892L59.5019 28.9432H62.5533L62.0447 24.3892ZM57.8745 31.7768L56.3488 34.2056H52.382L60.9259 19.9364H64.9944L67.3338 34.2056H63.367L62.9601 31.7768H57.8745Z" fill="black"/>
<path d="M79.9458 25.5024L81.0646 20.0376H84.828L81.7766 34.2056H78.0132L79.3355 28.4372H73.9447L72.7242 34.2056H68.9608L72.0122 20.0376H75.6738L74.555 25.5024H79.9458Z" fill="black"/>
<path d="M95.9155 20.0376H100.594L93.4743 26.7168L98.0514 34.2056H93.1692L89.711 28.0324L88.3887 34.2056H84.6253L87.6767 20.0376H91.4401L90.1178 25.9072H90.2195L95.9155 20.0376Z" fill="black"/>
</svg>
