<svg width="20" height="20" viewBox="0 0 20 20" fill="none" xmlns="http://www.w3.org/2000/svg">
<path fill-rule="evenodd" clip-rule="evenodd" d="M3.67282 0.918838C4.59287 -0.00121069 6.13259 0.188339 6.80202 1.30406L8.74136 4.53629C9.21353 5.32324 9.08952 6.33056 8.44058 6.9795L7.41418 8.0059C7.62395 8.43596 8.15018 9.26596 9.44503 10.5608C10.7399 11.8557 11.5699 12.3819 12 12.5917L13.0264 11.5653C13.6753 10.9163 14.6826 10.7923 15.4696 11.2645L18.7018 13.2038C19.8175 13.8733 20.0071 15.413 19.087 16.3331L16.5785 18.8416C16.022 19.398 15.2186 19.7573 14.3381 19.6476C12.5913 19.4301 8.64514 18.5511 5.02369 14.995C1.36808 11.4055 0.532455 7.38646 0.342116 5.63367C0.248055 4.7675 0.606835 3.98483 1.15109 3.44057L3.67282 0.918838ZM5.08703 2.33305L2.56531 4.85478C2.37504 5.04505 2.31234 5.25122 2.33043 5.41776C2.4908 6.89456 3.21028 10.4114 6.42496 13.568C9.63218 16.7173 13.1085 17.479 14.5852 17.6629C14.7574 17.6844 14.9705 17.6211 15.1642 17.4274L17.6728 14.9188L14.4406 12.9795L13.2623 14.1578C12.9231 14.497 12.3039 14.8324 11.5879 14.5845C10.8943 14.3444 9.75235 13.6965 8.03082 11.975C6.30928 10.2535 5.66149 9.11155 5.42133 8.41789C5.17346 7.70192 5.50888 7.08277 5.84807 6.74358L7.02637 5.56528L5.08703 2.33305Z" fill="#2B2D33"/>
</svg>
