<svg width="48" height="48" viewBox="0 0 48 48" fill="none" xmlns="http://www.w3.org/2000/svg">
<path d="M16 0H32C36.2397 0.012242 40.3023 1.70188 43.3002 4.69982C46.2981 7.69775 47.9878 11.7603 48 16V32C47.9878 36.2397 46.2981 40.3023 43.3002 43.3002C40.3023 46.2981 36.2397 47.9878 32 48H16C11.7603 47.9878 7.69775 46.2981 4.69982 43.3002C1.70188 40.3023 0.012242 36.2397 0 32L0 16C0.012242 11.7603 1.70188 7.69775 4.69982 4.69982C7.69775 1.70188 11.7603 0.012242 16 0V0Z" fill="#FEE600"/>
<path d="M27.4856 34H23.2856V18.908L18.8336 21.736V17.536L23.6216 14.288H27.4856V34Z" fill="#2B2D33"/>
</svg>
