<svg width="48" height="48" viewBox="0 0 48 48" fill="none" xmlns="http://www.w3.org/2000/svg">
<path d="M16 0H32C36.2397 0.012242 40.3023 1.70188 43.3002 4.69982C46.2981 7.69775 47.9878 11.7603 48 16V32C47.9878 36.2397 46.2981 40.3023 43.3002 43.3002C40.3023 46.2981 36.2397 47.9878 32 48H16C11.7603 47.9878 7.69775 46.2981 4.69982 43.3002C1.70188 40.3023 0.012242 36.2397 0 32L0 16C0.012242 11.7603 1.70188 7.69775 4.69982 4.69982C7.69775 1.70188 11.7603 0.012242 16 0V0Z" fill="#FEE600"/>
<path d="M31.322 30.304V34H16.958V30.528L24.406 23.808C25.2087 23.08 25.7873 22.4453 26.142 21.904C26.5153 21.3627 26.702 20.756 26.702 20.084C26.702 19.3747 26.4407 18.796 25.918 18.348C25.414 17.8813 24.7607 17.648 23.958 17.648C23.118 17.648 22.4367 17.8627 21.914 18.292C21.3913 18.7213 21.0647 19.3 20.934 20.028H16.818C16.93 18.8707 17.2847 17.8347 17.882 16.92C18.498 15.9867 19.3287 15.2587 20.374 14.736C21.438 14.2133 22.6607 13.952 24.042 13.952C25.4607 13.952 26.6927 14.2227 27.738 14.764C28.7833 15.2867 29.586 16.0053 30.146 16.92C30.706 17.816 30.986 18.824 30.986 19.944C30.986 21.2133 30.6873 22.3147 30.09 23.248C29.4927 24.1813 28.6153 25.152 27.458 26.16L22.698 30.304H31.322Z" fill="#2B2D33"/>
</svg>
