<svg width="48" height="48" viewBox="0 0 48 48" fill="none" xmlns="http://www.w3.org/2000/svg">
<path d="M16 0H32C36.2397 0.012242 40.3023 1.70188 43.3002 4.69982C46.2981 7.69775 47.9878 11.7603 48 16V32C47.9878 36.2397 46.2981 40.3023 43.3002 43.3002C40.3023 46.2981 36.2397 47.9878 32 48H16C11.7603 47.9878 7.69775 46.2981 4.69982 43.3002C1.70188 40.3023 0.012242 36.2397 0 32L0 16C0.012242 11.7603 1.70188 7.69775 4.69982 4.69982C7.69775 1.70188 11.7603 0.012242 16 0V0Z" fill="#FEE600"/>
<path d="M16.68 19.748C16.8106 18.5533 17.212 17.5173 17.884 16.64C18.556 15.7627 19.4146 15.1 20.46 14.652C21.524 14.1853 22.6906 13.952 23.96 13.952C25.3226 13.952 26.5266 14.1947 27.572 14.68C28.6173 15.1467 29.42 15.8 29.98 16.64C30.54 17.4613 30.82 18.3853 30.82 19.412C30.82 20.4947 30.5306 21.3907 29.952 22.1C29.392 22.8093 28.72 23.3227 27.936 23.64C28.8693 23.9013 29.7 24.4333 30.428 25.236C31.156 26.02 31.52 27.0747 31.52 28.4C31.52 29.5387 31.2026 30.556 30.568 31.452C29.952 32.348 29.084 33.0573 27.964 33.58C26.844 34.084 25.5653 34.336 24.128 34.336C22.7466 34.336 21.496 34.0933 20.376 33.608C19.256 33.1227 18.3506 32.432 17.66 31.536C16.9693 30.64 16.5773 29.576 16.484 28.344H20.628C20.796 29.0347 21.1786 29.5947 21.776 30.024C22.392 30.4533 23.176 30.668 24.128 30.668C25.024 30.668 25.7613 30.444 26.34 29.996C26.9373 29.5293 27.236 28.904 27.236 28.12C27.236 27.336 26.928 26.7387 26.312 26.328C25.7146 25.9173 24.9306 25.712 23.96 25.712H21.776V22.184H23.624C24.5386 22.184 25.2573 21.9693 25.78 21.54C26.3026 21.1107 26.564 20.5507 26.564 19.86C26.564 19.188 26.312 18.6467 25.808 18.236C25.3226 17.8253 24.66 17.62 23.82 17.62C22.9986 17.62 22.3266 17.816 21.804 18.208C21.2813 18.6 20.9546 19.1133 20.824 19.748H16.68Z" fill="#2B2D33"/>
</svg>
