<svg width="36" height="36" viewBox="0 0 36 36" fill="none" xmlns="http://www.w3.org/2000/svg">
<path d="M28.0001 23C28.0001 24.6569 26.657 26 25.0001 26H10.0001V24H25.0001C25.5524 24 26.0001 23.5523 26.0001 23V16H18.0001V14H26.0001V13C26.0001 12.4477 25.5524 12 25.0001 12H10.0001V10L25.0001 10C26.657 10 28.0001 11.3431 28.0001 13V23Z" fill="#2B2D33"/>
<path d="M10.2073 22.2071L13.7073 18.7071C14.0978 18.3166 14.0978 17.6834 13.7073 17.2929L10.2073 13.7929L8.79297 15.2071L10.5859 17H6V19H10.5859L8.79297 20.7929L10.2073 22.2071Z" fill="#2B2D33"/>
</svg>
