<svg width="36" height="36" viewBox="0 0 36 36" fill="none" xmlns="http://www.w3.org/2000/svg">
<path d="M27 8C27.5523 8 28 8.44772 28 9V21C28 21.2652 27.8946 21.5196 27.7071 21.7071C27.5196 21.8946 27.2652 22 27 22L22 22V20L24.0854 20C24.0301 19.8436 24 19.6753 24 19.5C24 18.6716 24.6716 18 25.5 18C25.6753 18 25.8436 18.0301 26 18.0854V11.9146C25.8436 11.9699 25.6753 12 25.5 12C24.6716 12 24 11.3284 24 10.5C24 10.3247 24.0301 10.1564 24.0854 10L11.9146 10C11.9699 10.1564 12 10.3247 12 10.5C12 11.3284 11.3284 12 10.5 12C10.3247 12 10.1564 11.9699 10 11.9146V15H8L8 9C8 8.44772 8.44772 8 9 8H27Z" fill="#2B2D33"/>
<path d="M18 23.5C16.8954 23.5 16 24.3954 16 25.5C16 26.6046 16.8954 27.5 18 27.5C19.1046 27.5 20 26.6046 20 25.5C20 24.3954 19.1046 23.5 18 23.5Z" fill="#2B2D33"/>
<path d="M8 19.5C8 18.3954 8.89543 17.5 10 17.5C11.1046 17.5 12 18.3954 12 19.5C12 20.6046 11.1046 21.5 10 21.5C8.89543 21.5 8 20.6046 8 19.5Z" fill="#2B2D33"/>
<path d="M10.2072 27.7071L19.2072 18.7071L17.793 17.2928L8.79297 26.2928L10.2072 27.7071Z" fill="#2B2D33"/>
</svg>
