<svg width="36" height="36" viewBox="0 0 36 36" fill="none" xmlns="http://www.w3.org/2000/svg">
<path d="M26 8H10C9.46957 8 8.96086 8.21071 8.58579 8.58579C8.21071 8.96086 8 9.46957 8 10V22C8 22.5304 8.21071 23.0391 8.58579 23.4142C8.96086 23.7893 9.46957 24 10 24H13V22H10V10H26V22H17.586L13 26.586V28H14.414L18.414 24H26C26.5304 24 27.0391 23.7893 27.4142 23.4142C27.7893 23.0391 28 22.5304 28 22V10C28 9.46957 27.7893 8.96086 27.4142 8.58579C27.0391 8.21071 26.5304 8 26 8Z" fill="#2B2D33"/>
<path d="M23 13H13V15H23V13Z" fill="#2B2D33"/>
<path d="M23 17H13V19H23V17Z" fill="#2B2D33"/>
</svg>
