<svg width="36" height="36" viewBox="0 0 36 36" fill="none" xmlns="http://www.w3.org/2000/svg">
<path d="M26 14H10C9.46957 14 8.96086 14.2107 8.58579 14.5858C8.21071 14.9609 8 15.4696 8 16V26C8 26.5304 8.21071 27.0391 8.58579 27.4142C8.96086 27.7893 9.46957 28 10 28H26.059C26.5738 28 27.0675 27.7955 27.4315 27.4315C27.7955 27.0675 28 26.5738 28 26.059V16C28 15.4696 27.7893 14.9609 27.4142 14.5858C27.0391 14.2107 26.5304 14 26 14ZM10 26V16H15V26H10ZM17 26V16H19V26H17ZM26 26H21V16H26V26Z" fill="#2B2D33"/>
<path d="M14 11.07L16.895 13H19.105L22 11.07V13H24V9L23 8L18 11.333L13 8L12 9V13H14V11.07Z" fill="#2B2D33"/>
</svg>
