<svg width="36" height="36" viewBox="0 0 36 36" fill="none" xmlns="http://www.w3.org/2000/svg">
<path d="M14 15L22 15V13L14 13L14 15Z" fill="#2B2D33"/>
<path d="M20 19L14 19L14 17L20 17L20 19Z" fill="#2B2D33"/>
<path d="M14 23L22 23L22 21L14 21L14 23Z" fill="#2B2D33"/>
<path fill-rule="evenodd" clip-rule="evenodd" d="M10 27V9C10 8.44772 10.4477 8 11 8H11.5279C11.9936 8 12.4529 8.10844 12.8695 8.31672L13.5528 8.65836C13.8343 8.79912 14.1657 8.79912 14.4472 8.65836L14.6584 8.55279C15.5029 8.1305 16.4971 8.1305 17.3416 8.55279L17.5528 8.65836C17.8343 8.79912 18.1657 8.79912 18.4472 8.65836L18.6584 8.55279C19.5029 8.1305 20.4971 8.1305 21.3416 8.55279L21.5528 8.65836C21.8343 8.79912 22.1657 8.79912 22.4472 8.65836L23.1305 8.31672C23.5471 8.10844 24.0064 8 24.4721 8H25C25.2652 8 25.5196 8.10536 25.7071 8.29289C25.8946 8.48043 26 8.73478 26 9V27C26 27.5523 25.5523 28 25 28H24.4721C24.0064 28 23.5471 27.8916 23.1305 27.6833L22.4472 27.3416C22.1657 27.2009 21.8343 27.2009 21.5528 27.3416L21.3416 27.4472C20.4971 27.8695 19.5029 27.8695 18.6584 27.4472L18.4472 27.3416C18.1657 27.2009 17.8343 27.2009 17.5528 27.3416L17.3416 27.4472C16.4971 27.8695 15.5029 27.8695 14.6584 27.4472L14.4472 27.3416C14.1657 27.2009 13.8343 27.2009 13.5528 27.3416L12.8695 27.6833C12.4529 27.8916 11.9936 28 11.5279 28H11C10.7348 28 10.4804 27.8946 10.2929 27.7071C10.1054 27.5196 10 27.2652 10 27ZM12.6584 10.4472L12 10.118L12 25.882L12.6584 25.5528C13.5029 25.1305 14.4971 25.1305 15.3416 25.5528L15.5528 25.6584C15.8343 25.7991 16.1657 25.7991 16.4472 25.6584L16.6584 25.5528C17.5029 25.1305 18.4971 25.1305 19.3416 25.5528L19.5528 25.6584C19.8343 25.7991 20.1657 25.7991 20.4472 25.6584L20.6584 25.5528C21.5029 25.1305 22.4971 25.1305 23.3416 25.5528L24 25.882V10.118L23.3416 10.4472C22.4971 10.8695 21.5029 10.8695 20.6584 10.4472L20.4472 10.3416C20.1657 10.2009 19.8343 10.2009 19.5528 10.3416L19.3416 10.4472C18.4971 10.8695 17.5029 10.8695 16.6584 10.4472L16.4472 10.3416C16.1657 10.2009 15.8343 10.2009 15.5528 10.3416L15.3416 10.4472C14.4971 10.8695 13.5029 10.8695 12.6584 10.4472Z" fill="#2B2D33"/>
</svg>
