<svg width="70" height="70" viewBox="0 0 70 70" fill="none" xmlns="http://www.w3.org/2000/svg">
<path d="M23.3333 0H46.6667C52.8496 0.0178528 58.7741 2.48191 63.1461 6.8539C67.5181 11.2259 69.9821 17.1504 70 23.3333V46.6667C69.9821 52.8496 67.5181 58.7741 63.1461 63.1461C58.7741 67.5181 52.8496 69.9821 46.6667 70H23.3333C17.1504 69.9821 11.2259 67.5181 6.8539 63.1461C2.48191 58.7741 0.0178528 52.8496 0 46.6667L0 23.3333C0.0178528 17.1504 2.48191 11.2259 6.8539 6.8539C11.2259 2.48191 17.1504 0.0178528 23.3333 0V0Z" fill="#FEE600"/>
<path fill-rule="evenodd" clip-rule="evenodd" d="M23.3334 23.3334C22.528 23.3334 21.875 23.9863 21.875 24.7917V40.8334C21.875 41.6388 22.528 42.2917 23.3334 42.2917H46.6667C47.4721 42.2917 48.125 41.6388 48.125 40.8334V24.7917C48.125 23.9863 47.4721 23.3334 46.6667 23.3334H23.3334ZM24.7917 39.375V26.25H45.2084V39.375H24.7917Z" fill="#2B2D33"/>
<path d="M18.9584 46.6667V45.2084H51.0417V46.6667C51.0417 47.4721 50.3888 48.125 49.5834 48.125H20.4167C19.6113 48.125 18.9584 47.4721 18.9584 46.6667Z" fill="#2B2D33"/>
</svg>
