<svg width="70" height="70" viewBox="0 0 70 70" fill="none" xmlns="http://www.w3.org/2000/svg">
<path d="M23.3333 0H46.6667C52.8496 0.0178528 58.7741 2.48191 63.1461 6.8539C67.5181 11.2259 69.9821 17.1504 70 23.3333V46.6667C69.9821 52.8496 67.5181 58.7741 63.1461 63.1461C58.7741 67.5181 52.8496 69.9821 46.6667 70H23.3333C17.1504 69.9821 11.2259 67.5181 6.8539 63.1461C2.48191 58.7741 0.0178528 52.8496 0 46.6667L0 23.3333C0.0178528 17.1504 2.48191 11.2259 6.8539 6.8539C11.2259 2.48191 17.1504 0.0178528 23.3333 0V0Z" fill="#FEE600"/>
<path d="M35 43.75C35.8054 43.75 36.4583 43.097 36.4583 42.2916C36.4583 41.4862 35.8054 40.8333 35 40.8333C34.1945 40.8333 33.5416 41.4862 33.5416 42.2916C33.5416 43.097 34.1945 43.75 35 43.75Z" fill="#2B2D33"/>
<path fill-rule="evenodd" clip-rule="evenodd" d="M27.7083 20.4166C26.0975 20.4166 24.7916 21.7225 24.7916 23.3333V46.6666C24.7916 48.2775 26.0975 49.5833 27.7083 49.5833H42.2916C43.9025 49.5833 45.2083 48.2775 45.2083 46.6666V23.3333C45.2083 21.7225 43.9025 20.4166 42.2916 20.4166H27.7083ZM27.7083 23.3333L42.2916 23.3333V46.6666H27.7083V23.3333Z" fill="#2B2D33"/>
</svg>
