<svg width="70" height="70" viewBox="0 0 70 70" fill="none" xmlns="http://www.w3.org/2000/svg">
<path d="M23.3333 0H46.6667C52.8496 0.0178528 58.7741 2.48191 63.1461 6.8539C67.5181 11.2259 69.9821 17.1504 70 23.3333V46.6667C69.9821 52.8496 67.5181 58.7741 63.1461 63.1461C58.7741 67.5181 52.8496 69.9821 46.6667 70H23.3333C17.1504 69.9821 11.2259 67.5181 6.8539 63.1461C2.48191 58.7741 0.0178528 52.8496 0 46.6667L0 23.3333C0.0178528 17.1504 2.48191 11.2259 6.8539 6.8539C11.2259 2.48191 17.1504 0.0178528 23.3333 0V0Z" fill="#FEE600"/>
<path fill-rule="evenodd" clip-rule="evenodd" d="M34.2919 20.6001C34.7323 20.3555 35.2679 20.3555 35.7083 20.6001L48.8333 27.8918C49.2963 28.149 49.5834 28.637 49.5834 29.1666V32.0833C49.5834 32.8887 48.9305 33.5416 48.1251 33.5416H21.8751C21.0697 33.5416 20.4167 32.8887 20.4167 32.0833V29.1666C20.4167 28.637 20.7039 28.149 21.1669 27.8918L34.2919 20.6001ZM23.3334 30.0247V30.625H46.6667V30.0247L35.0001 23.5432L23.3334 30.0247Z" fill="#2B2D33"/>
<path d="M23.3334 36.4583H26.2501V43.75H23.3334V36.4583Z" fill="#2B2D33"/>
<path d="M36.4584 43.75V36.4583H33.5417V43.75H36.4584Z" fill="#2B2D33"/>
<path d="M43.7501 36.4583H46.6667V43.75H43.7501V36.4583Z" fill="#2B2D33"/>
<path d="M49.5834 49.5833V46.6666H20.4167V49.5833H49.5834Z" fill="#2B2D33"/>
</svg>
