<svg width="70" height="70" viewBox="0 0 70 70" fill="none" xmlns="http://www.w3.org/2000/svg">
<path d="M23.3333 0H46.6667C52.8496 0.0178528 58.7741 2.48191 63.1461 6.8539C67.5181 11.2259 69.9821 17.1504 70 23.3333V46.6667C69.9821 52.8496 67.5181 58.7741 63.1461 63.1461C58.7741 67.5181 52.8496 69.9821 46.6667 70H23.3333C17.1504 69.9821 11.2259 67.5181 6.8539 63.1461C2.48191 58.7741 0.0178528 52.8496 0 46.6667L0 23.3333C0.0178528 17.1504 2.48191 11.2259 6.8539 6.8539C11.2259 2.48191 17.1504 0.0178528 23.3333 0V0Z" fill="#FEE600"/>
<path d="M35.6967 27.0461C35.485 26.3609 34.5151 26.3609 34.3034 27.0461L33.7818 28.734C33.6874 29.0395 33.4049 29.2479 33.0851 29.2479H31.3223C30.6249 29.2479 30.3254 30.1331 30.8797 30.5565L32.3677 31.6933C32.6106 31.8788 32.712 32.196 32.6217 32.488L32.0684 34.2787C31.8588 34.957 32.6435 35.5044 33.2077 35.0734L34.5574 34.0423C34.8187 33.8427 35.1814 33.8427 35.4427 34.0423L36.7924 35.0734C37.3565 35.5044 38.1413 34.957 37.9317 34.2787L37.3783 32.488C37.2881 32.196 37.3895 31.8788 37.6324 31.6933L39.1204 30.5565C39.6746 30.1331 39.3752 29.2479 38.6777 29.2479H36.915C36.5952 29.2479 36.3127 29.0395 36.2183 28.734L35.6967 27.0461Z" fill="#2B2D33"/>
<path fill-rule="evenodd" clip-rule="evenodd" d="M24.7917 21.875C24.7917 21.0695 25.4446 20.4166 26.25 20.4166H43.75C44.5555 20.4166 45.2084 21.0695 45.2084 21.875V23.3333H49.5834C50.3888 23.3333 51.0417 23.9862 51.0417 24.7916V24.9382C51.0417 28.0324 49.8125 30.9999 47.6246 33.1878L44.0521 36.7603C44.0114 36.801 43.969 36.8387 43.925 36.8735C43.4611 38.0415 42.8898 39.1565 42.2424 40.1636C40.8202 42.3759 38.8035 44.3991 36.4584 45.0164V46.6666H42.2917V49.5833H27.7084V46.6666H33.5417V45.0164C31.1966 44.3991 29.1799 42.3759 27.7577 40.1636C27.1103 39.1565 26.539 38.0415 26.0751 36.8735C26.0311 36.8387 25.9886 36.801 25.948 36.7603L22.3755 33.1878C20.1875 30.9999 18.9584 28.0324 18.9584 24.9382V24.7916C18.9584 23.9862 19.6113 23.3333 20.4167 23.3333H24.7917V21.875ZM24.7917 30.625C24.7917 30.9171 24.8015 31.2117 24.8205 31.508L24.4379 31.1254C23.1093 29.7969 22.2521 28.0851 21.9739 26.25H24.7917V30.625ZM45.1796 31.508L45.5622 31.1254C46.8908 29.7969 47.7479 28.0851 48.0262 26.25H45.2084V30.625C45.2084 30.9171 45.1986 31.2117 45.1796 31.508ZM27.7084 23.3333V30.625C27.7084 33.2184 28.6963 36.2299 30.2111 38.5864C31.783 41.0315 33.59 42.2916 35 42.2916C36.4101 42.2916 38.217 41.0315 39.7889 38.5864C41.3038 36.2299 42.2917 33.2184 42.2917 30.625V23.3333H27.7084Z" fill="#2B2D33"/>
</svg>
