<svg width="70" height="70" viewBox="0 0 70 70" fill="none" xmlns="http://www.w3.org/2000/svg">
<path d="M23.3333 0H46.6667C52.8496 0.0178528 58.7741 2.48191 63.1461 6.8539C67.5181 11.2259 69.9821 17.1504 70 23.3333V46.6667C69.9821 52.8496 67.5181 58.7741 63.1461 63.1461C58.7741 67.5181 52.8496 69.9821 46.6667 70H23.3333C17.1504 69.9821 11.2259 67.5181 6.8539 63.1461C2.48191 58.7741 0.0178528 52.8496 0 46.6667L0 23.3333C0.0178528 17.1504 2.48191 11.2259 6.8539 6.8539C11.2259 2.48191 17.1504 0.0178528 23.3333 0V0Z" fill="#FEE600"/>
<path d="M33.9688 36.0312C34.2423 36.3047 34.6132 36.4584 35 36.4584C35.3868 36.4584 35.7577 36.3047 36.0312 36.0312L41.8646 30.1979L39.8022 28.1355L36.4584 31.4793L36.4584 20.4167H33.5417L33.5417 31.4793L30.1979 28.1355L28.1355 30.1979L33.9688 36.0312Z" fill="#2B2D33"/>
<path d="M21.875 24.7917C21.875 23.9863 22.528 23.3334 23.3334 23.3334H30.625V26.25H24.7917V39.375H45.2084V26.25H39.375V23.3334H46.6667C47.4721 23.3334 48.125 23.9863 48.125 24.7917V40.8334C48.125 41.6388 47.4721 42.2917 46.6667 42.2917H23.3334C22.528 42.2917 21.875 41.6388 21.875 40.8334V24.7917Z" fill="#2B2D33"/>
<path d="M18.9584 46.6667V45.2084H51.0417V46.6667C51.0417 47.4721 50.3888 48.125 49.5834 48.125H20.4167C19.6113 48.125 18.9584 47.4721 18.9584 46.6667Z" fill="#2B2D33"/>
</svg>
