<svg width="70" height="70" viewBox="0 0 70 70" fill="none" xmlns="http://www.w3.org/2000/svg">
<path d="M23.3333 0H46.6667C52.8496 0.0178528 58.7741 2.48191 63.1461 6.8539C67.5181 11.2259 69.9821 17.1504 70 23.3333V46.6667C69.9821 52.8496 67.5181 58.7741 63.1461 63.1461C58.7741 67.5181 52.8496 69.9821 46.6667 70H23.3333C17.1504 69.9821 11.2259 67.5181 6.8539 63.1461C2.48191 58.7741 0.0178528 52.8496 0 46.6667L0 23.3333C0.0178528 17.1504 2.48191 11.2259 6.8539 6.8539C11.2259 2.48191 17.1504 0.0178528 23.3333 0V0Z" fill="#FEE600"/>
<path d="M20.4166 24.7917H36.3557C36.8433 24.7917 37.2986 25.0354 37.5691 25.4411L41.025 30.625H36.4309C35.7149 30.625 34.5631 30.625 33.5788 30.7234C33.094 30.7719 32.5464 30.8531 32.0848 31.0128C31.8591 31.091 31.5487 31.2226 31.2703 31.4578C30.9683 31.7129 30.625 32.1677 30.625 32.8125C30.625 33.2694 30.824 33.6149 30.8942 33.7334C30.9943 33.9023 31.1131 34.0554 31.2184 34.1805C31.4325 34.4347 31.7085 34.7108 31.9973 34.9816C32.5824 35.53 33.3433 36.171 34.0803 36.7699C34.8225 37.3729 35.5622 37.9507 36.1148 38.3767C36.3916 38.59 36.6224 38.766 36.7844 38.8889L36.9151 38.9879C36.9214 38.9961 36.928 39.0052 36.935 39.015C36.9927 39.0957 37.048 39.1933 37.08 39.2893C37.11 39.3792 37.1098 39.4366 37.1018 39.4764C37.096 39.5054 37.0696 39.618 36.8854 39.8021C36.7037 39.9839 36.2759 40.1117 35.4683 39.9502C35.1167 39.8799 34.7886 39.7715 34.5437 39.6773C34.4233 39.631 34.3281 39.5901 34.2663 39.5624C34.2356 39.5486 34.2134 39.5382 34.2009 39.5323L34.19 39.5271C33.4702 39.1673 32.6493 38.7962 31.8249 38.4235C31.375 38.22 30.924 38.0161 30.4878 37.8133C29.2067 37.2178 27.9612 36.5921 26.8657 35.8758C24.6588 34.4328 23.3333 32.8119 23.3333 30.625V29.1667H20.4166V30.625C20.4166 34.2714 22.7369 36.661 25.2696 38.3169C26.5439 39.1501 27.9416 39.8461 29.2582 40.4582C29.7625 40.6926 30.2442 40.9102 30.7054 41.1185C31.4889 41.4724 32.2217 41.8038 32.8978 42.1418L32.9105 42.1481L32.9486 42.1664C32.9795 42.1811 33.0214 42.2007 33.0733 42.2239C33.1767 42.2702 33.3208 42.3319 33.4966 42.3995C33.8441 42.5332 34.3363 42.6982 34.8962 42.8102C35.9115 43.0133 37.6712 43.1411 38.9478 41.8645C39.4928 41.3195 39.831 40.703 39.9619 40.0484C40.0906 39.4045 39.9993 38.8239 39.847 38.367C39.6967 37.9161 39.4786 37.558 39.3084 37.3197C39.2213 37.1977 39.141 37.0992 39.0785 37.0271C39.0471 36.9908 39.0197 36.9607 38.9976 36.9371L38.9685 36.9065L38.957 36.8948L38.9521 36.8898L38.9499 36.8876L38.8745 36.8122L38.7764 36.7386L38.7292 36.703L38.5476 36.5656C38.3906 36.4464 38.1656 36.2749 37.8955 36.0667C37.3544 35.6496 36.6357 35.0881 35.9196 34.5062C35.5271 34.1873 35.1417 33.8674 34.7899 33.5652C35.3764 33.5422 35.9751 33.5417 36.4583 33.5417L46.6666 33.5417V36.4583H42.2916L42.2916 39.375H46.6666V45.2083H27.7083L27.7083 42.2917H24.7916L24.7916 45.2083C24.7916 46.8192 26.0975 48.125 27.7083 48.125H46.6666C48.2775 48.125 49.5833 46.8192 49.5833 45.2083V33.5417C49.5833 31.9308 48.2775 30.625 46.6666 30.625H44.5304L39.9959 23.8232C39.1845 22.6061 37.8185 21.875 36.3557 21.875H20.4166V24.7917Z" fill="#2B2D33"/>
</svg>
