<svg width="70" height="70" viewBox="0 0 70 70" fill="none" xmlns="http://www.w3.org/2000/svg">
<path d="M23.3333 0H46.6667C52.8496 0.0178528 58.7741 2.48191 63.1461 6.8539C67.5181 11.2259 69.9821 17.1504 70 23.3333V46.6667C69.9821 52.8496 67.5181 58.7741 63.1461 63.1461C58.7741 67.5181 52.8496 69.9821 46.6667 70H23.3333C17.1504 69.9821 11.2259 67.5181 6.8539 63.1461C2.48191 58.7741 0.0178528 52.8496 0 46.6667L0 23.3333C0.0178528 17.1504 2.48191 11.2259 6.8539 6.8539C11.2259 2.48191 17.1504 0.0178528 23.3333 0V0Z" fill="#FEE600"/>
<path d="M23.3333 21.875C20.917 21.875 18.9583 23.8338 18.9583 26.25V42.2917H21.8749V26.25C21.8749 25.4446 22.5278 24.7917 23.3333 24.7917H45.2083V21.875H23.3333Z" fill="#2B2D33"/>
<path fill-rule="evenodd" clip-rule="evenodd" d="M27.7083 27.7083C26.0974 27.7083 24.7916 29.0142 24.7916 30.625V45.2083C24.7916 46.8192 26.0974 48.125 27.7083 48.125H48.1249C49.7358 48.125 51.0416 46.8192 51.0416 45.2083V30.625C51.0416 29.0142 49.7357 27.7083 48.1249 27.7083H27.7083ZM27.7083 30.625H48.1249L48.1249 33.5417L27.7083 33.5417V30.625ZM27.7083 36.4583L48.1249 36.4583V45.2083H27.7083V36.4583Z" fill="#2B2D33"/>
</svg>
