<svg width="18" height="21" viewBox="0 0 18 21" fill="none" xmlns="http://www.w3.org/2000/svg">
<path d="M14 7.16797H4V9.16797H14V7.16797Z" fill="#2B2D33"/>
<path d="M11 11.168H4V13.168H11V11.168Z" fill="#2B2D33"/>
<path d="M16.016 2.16797H15V4.16797H16V18.168H1.988V4.16797H3V2.16797H1.984C1.45781 2.16797 0.953172 2.377 0.5811 2.74907C0.209028 3.12114 0 3.62578 0 4.15197V18.183C-6.67832e-08 18.7092 0.208996 19.214 0.581039 19.5862C0.953083 19.9585 1.45772 20.1677 1.984 20.168H16.016C16.5423 20.1677 17.0469 19.9585 17.419 19.5862C17.791 19.214 18 18.7092 18 18.183V4.15197C18 3.89143 17.9487 3.63344 17.849 3.39272C17.7493 3.15202 17.6031 2.9333 17.4189 2.74907C17.2347 2.56484 17.016 2.4187 16.7752 2.31899C16.5345 2.21929 16.2765 2.16797 16.016 2.16797Z" fill="#2B2D33"/>
<path d="M7 2.16797H11V4.16797H14V2.16797H13C13 1.63754 12.7893 1.12883 12.4142 0.753755C12.0391 0.378682 11.5304 0.167969 11 0.167969H7C6.46957 0.167969 5.96086 0.378682 5.58579 0.753755C5.21071 1.12883 5 1.63754 5 2.16797H4V4.16797H7V2.16797Z" fill="#2B2D33"/>
</svg>
