<svg width="206" height="36" viewBox="0 0 206 36" fill="none" xmlns="http://www.w3.org/2000/svg">
<path d="M89.0674 24.0622V16.6011C89.0674 13.8032 87.2954 11.8446 84.4042 11.8446C82.912 11.8446 81.3265 12.3109 80.2073 13.9897C79.3679 12.684 78.0622 11.8446 76.2902 11.8446C74.9845 11.8446 73.7721 12.2177 72.7462 13.6166V12.1244H70.1348V24.0622H72.7462V17.4405C72.7462 15.3886 73.8653 14.2695 75.6374 14.2695C77.4094 14.2695 78.2488 15.3886 78.2488 17.4405V24.0622H80.8602V17.4405C80.8602 15.3886 82.0726 14.2695 83.7513 14.2695C85.5234 14.2695 86.3627 15.3886 86.3627 17.4405V24.0622H89.0674ZM127.959 12.0311H123.762V8.48709H121.15V12.1244H118.725V14.456H121.15V19.8653C121.15 22.6633 122.269 24.2487 125.347 24.2487C126.466 24.2487 127.772 23.8757 128.611 23.3161L127.865 21.0778C127.119 21.5441 126.28 21.7306 125.534 21.7306C124.228 21.7306 123.762 20.8912 123.762 19.7721V14.3627H128.052V12.0311H127.959ZM150.155 11.7513C148.663 11.7513 147.637 12.4975 146.984 13.5234V12.0311H144.373V23.969H146.984V17.2539C146.984 15.2954 147.824 14.1762 149.503 14.1762C150.062 14.1762 150.622 14.2695 151.088 14.456L151.928 12.0311C151.461 11.8446 150.715 11.7513 150.155 11.7513ZM116.58 13.057C115.368 12.2177 113.596 11.8446 111.731 11.8446C108.746 11.8446 106.788 13.3368 106.788 15.6684C106.788 17.627 108.28 18.8394 110.891 19.2125L112.104 19.399C113.503 19.5855 114.249 19.9586 114.249 20.6114C114.249 21.5441 113.316 22.1037 111.544 22.1037C109.772 22.1037 108.466 21.5441 107.534 20.8912L106.321 22.943C107.72 23.969 109.586 24.5285 111.544 24.5285C114.995 24.5285 116.953 22.943 116.953 20.6114C116.953 18.4664 115.368 17.4405 112.757 17.0674L111.544 16.8809C110.425 16.6943 109.492 16.5078 109.492 15.6684C109.492 14.8291 110.332 14.2695 111.731 14.2695C113.223 14.2695 114.715 14.8291 115.461 15.2954L116.58 13.057ZM186.342 11.7513C184.85 11.7513 183.824 12.4975 183.171 13.5234V12.0311H180.56V23.969H183.171V17.2539C183.171 15.2954 184.01 14.1762 185.689 14.1762C186.249 14.1762 186.808 14.2695 187.275 14.456L188.114 12.0311C187.648 11.8446 186.902 11.7513 186.342 11.7513ZM152.767 18.0933C152.767 21.7306 155.285 24.342 159.109 24.342C160.881 24.342 162.093 23.969 163.399 22.943L162.187 20.798C161.254 21.5441 160.228 21.9171 159.016 21.9171C156.964 21.9171 155.378 20.4249 155.378 18.0933C155.378 15.7617 156.871 14.2695 159.016 14.2695C160.135 14.2695 161.161 14.6425 162.187 15.3886L163.399 13.2436C162.093 12.2177 160.881 11.8446 159.109 11.8446C155.285 11.7513 152.767 14.456 152.767 18.0933ZM177.202 18.0933V12.1244H174.591V13.6166C173.751 12.4975 172.539 11.8446 170.767 11.8446C167.409 11.8446 164.798 14.456 164.798 18.0933C164.798 21.7306 167.409 24.342 170.767 24.342C172.446 24.342 173.751 23.6892 174.591 22.57V24.0622H177.202V18.0933ZM167.503 18.0933C167.503 15.9482 168.902 14.2695 171.14 14.2695C173.285 14.2695 174.777 15.9482 174.777 18.0933C174.777 20.2384 173.285 21.9171 171.14 21.9171C168.902 21.9171 167.503 20.1451 167.503 18.0933ZM136.073 11.7513C132.529 11.7513 130.104 14.2695 130.104 18C130.104 21.8239 132.622 24.2487 136.259 24.2487C138.031 24.2487 139.71 23.7824 141.202 22.57L139.896 20.6114C138.871 21.4508 137.658 21.8239 136.446 21.8239C134.767 21.8239 133.275 21.0778 132.902 18.9327H141.762C141.762 18.6529 141.855 18.2798 141.855 17.9068C141.762 14.3627 139.43 11.7513 136.073 11.7513ZM136.073 14.0829C137.751 14.0829 138.871 15.1089 139.057 16.9741H132.808C133.088 15.2954 134.207 14.0829 136.073 14.0829ZM201.358 18.0933V7.27466H198.746V13.5234C197.907 12.4042 196.694 11.7513 194.922 11.7513C191.565 11.7513 188.953 14.3627 188.953 18C188.953 21.6374 191.565 24.2487 194.922 24.2487C196.601 24.2487 197.907 23.5959 198.746 22.4767V23.969H201.358V18.0933ZM204.342 22.943C204.435 22.943 204.529 22.9431 204.622 23.0363C204.715 23.0363 204.808 23.1296 204.902 23.2228C204.995 23.3161 204.995 23.4094 205.088 23.5026C205.088 23.5959 205.181 23.6892 205.181 23.7824C205.181 23.8757 205.181 23.969 205.088 24.0622C205.088 24.1555 204.995 24.2487 204.902 24.342C204.808 24.4353 204.715 24.4353 204.622 24.5285C204.529 24.5285 204.435 24.6218 204.342 24.6218C204.249 24.6218 204.155 24.6218 204.062 24.5285C203.969 24.5285 203.876 24.4353 203.782 24.342C203.689 24.2487 203.689 24.1555 203.596 24.0622C203.596 23.969 203.503 23.8757 203.503 23.7824C203.503 23.6892 203.503 23.5959 203.596 23.5026C203.596 23.4094 203.689 23.3161 203.782 23.2228C203.876 23.1296 203.969 23.1296 204.062 23.0363C204.155 22.9431 204.249 22.943 204.342 22.943ZM204.342 24.2487C204.435 24.2487 204.529 24.2488 204.529 24.1555C204.622 24.1555 204.622 24.0622 204.715 24.0622C204.808 23.969 204.808 23.969 204.808 23.8757C204.808 23.7824 204.808 23.6892 204.808 23.6892C204.808 23.5959 204.808 23.5026 204.808 23.5026C204.808 23.4094 204.715 23.4094 204.715 23.3161C204.622 23.2228 204.622 23.2228 204.529 23.2228C204.435 23.2228 204.342 23.2228 204.342 23.2228C204.249 23.2228 204.155 23.2228 204.062 23.2228C203.969 23.2228 203.969 23.3161 203.876 23.3161C203.782 23.4094 203.782 23.4094 203.782 23.5026C203.782 23.5959 203.782 23.6892 203.782 23.6892C203.782 23.7824 203.782 23.8757 203.782 23.8757C203.782 23.969 203.876 23.969 203.876 24.0622C203.969 24.1555 203.969 24.1555 204.062 24.1555C204.155 24.2488 204.249 24.2487 204.342 24.2487ZM204.435 23.3161C204.529 23.3161 204.622 23.3161 204.622 23.4094C204.715 23.4094 204.715 23.5026 204.715 23.5959C204.715 23.6892 204.715 23.6892 204.622 23.7824C204.622 23.7824 204.529 23.8757 204.435 23.8757L204.622 24.1555H204.435L204.249 23.8757H204.155V24.1555H203.969V23.4094H204.435V23.3161ZM204.249 23.5026V23.6892H204.435H204.529C204.529 23.6892 204.529 23.6892 204.529 23.5959V23.5026H204.435H204.249ZM191.658 18.0933C191.658 15.9482 193.057 14.2695 195.295 14.2695C197.44 14.2695 198.933 15.9482 198.933 18.0933C198.933 20.2384 197.44 21.9171 195.295 21.9171C193.057 21.9171 191.658 20.1451 191.658 18.0933ZM103.71 18.0933V12.1244H101.098V13.6166C100.259 12.4975 99.0467 11.8446 97.3679 11.8446C94.0104 11.8446 91.399 14.456 91.399 18.0933C91.399 21.7306 94.0104 24.342 97.3679 24.342C99.0467 24.342 100.352 23.6892 101.098 22.57V24.0622H103.71V18.0933ZM94.1037 18.0933C94.1037 15.9482 95.5026 14.2695 97.741 14.2695C99.8861 14.2695 101.378 15.9482 101.378 18.0933C101.378 20.2384 99.8861 21.9171 97.741 21.9171C95.4094 21.9171 94.1037 20.1451 94.1037 18.0933Z" fill="#231F20"/>
<path d="M36.9326 3.82373H21.1709V32.0828H36.9326V3.82373Z" fill="#FF5F00"/>
<path d="M22.1969 18C22.1969 12.2176 24.9016 7.18135 29.0984 3.82383C26.0207 1.39896 22.1036 0 17.9067 0C8.02073 0 0 8.02073 0 18C0 27.886 8.02073 36 18 36C22.1969 36 26.0207 34.601 29.0984 32.1762C24.9016 28.8187 22.1969 23.6891 22.1969 18Z" fill="#EB001B"/>
<path d="M58.1968 18C58.1968 27.886 50.1761 36 40.1968 36C35.9999 36 32.1761 34.601 29.0984 32.1762C33.2953 28.9119 35.9999 23.7824 35.9999 18C35.9999 12.2176 33.2953 7.18135 29.0984 3.82383C32.1761 1.39896 35.9999 0 40.1968 0C50.0828 0 58.1968 8.02073 58.1968 18Z" fill="#F79E1B"/>
<path d="M56.4248 29.0984V28.5388H56.7046V28.4456H56.145V28.5388H56.4248V29.0984ZM57.544 29.0984V28.4456H57.3575L57.1709 28.9119L56.9844 28.4456H56.7979V29.0984H56.8911V28.5388L57.0777 29.0051H57.1709L57.3575 28.5388V29.0984H57.544Z" fill="#F79E1B"/>
</svg>
