<svg width="40" height="40" viewBox="0 0 40 40" fill="none" xmlns="http://www.w3.org/2000/svg">
<path d="M13.3333 0H26.6667C30.1998 0.0102016 33.5852 1.41824 36.0835 3.91651C38.5818 6.41479 39.9898 9.80025 40 13.3333V26.6667C39.9898 30.1998 38.5818 33.5852 36.0835 36.0835C33.5852 38.5818 30.1998 39.9898 26.6667 40H13.3333C9.80025 39.9898 6.41479 38.5818 3.91651 36.0835C1.41824 33.5852 0.0102016 30.1998 0 26.6667L0 13.3333C0.0102016 9.80025 1.41824 6.41479 3.91651 3.91651C6.41479 1.41824 9.80025 0.0102016 13.3333 0V0Z" fill="#FEE600"/>
<path d="M27.1795 13.0129C27.6397 13.0129 28.0128 13.386 28.0128 13.8463V25.5129C28.0128 25.9732 27.6397 26.3463 27.1795 26.3463H20.7906L17.6795 28.6796C17.1301 29.0916 16.3462 28.6996 16.3462 28.0129V26.3463H13.8462C13.3859 26.3463 13.0128 25.9732 13.0128 25.5129V13.8463C13.0128 13.386 13.3859 13.0129 13.8462 13.0129H27.1795ZM26.3462 14.6796H14.6795V24.6796H17.1795C17.6397 24.6796 18.0128 25.0527 18.0128 25.5129V26.3463L20.0128 24.8463C20.1571 24.7381 20.3325 24.6796 20.5128 24.6796H26.3462V14.6796ZM23.0128 20.5129V22.1796H16.3462V20.5129H23.0128ZM24.6795 17.1796V18.8463H16.3462V17.1796H24.6795Z" fill="#2B2D33"/>
</svg>
