<svg width="172" height="36" viewBox="0 0 172 36" fill="none" xmlns="http://www.w3.org/2000/svg">
<path d="M36.1824 0H0V36H36.1824V0Z" fill="black"/>
<path d="M35.2193 1.06519H1.0708V35.0415H35.2193V1.06519Z" fill="#FFEE00"/>
<path d="M2.89034 28.1184L7.38638 32.5918L17.7701 22.0474L28.582 32.8048L33.078 28.3314L22.3732 17.6805L24.4071 15.6569V11.3965L25.6917 10.3314V13.8462L27.2974 15.2308L32.2217 10.3314L33.8274 11.503C34.7908 8.09474 29.3313 0.21308 24.8353 4.57994L19.5899 9.79888L20.6604 11.077L17.9842 13.6332L15.5221 11.077L16.9137 9.90539L11.1331 4.36693C6.85114 0.852133 2.3551 6.17758 2.24805 11.503L3.85378 10.2249L8.67096 15.4438L10.3837 14.0592V10.864L11.4542 11.716V15.8699L13.5952 18.0001L2.89034 28.1184Z" fill="black"/>
<path d="M160.894 14.8047H164.427V10.7574H167.745V14.8047H171.278V4.7929H167.745V8.30769H164.427V4.7929H160.894V14.8047ZM139.377 7.66864C140.127 7.1361 141.197 6.81657 142.053 6.81657C142.482 6.81657 143.445 6.92308 143.445 7.77515C143.445 8.62722 142.589 8.62722 142.268 8.62722H140.555V10.8639H142.053C142.589 10.8639 143.552 10.8639 143.552 11.716C143.552 12.0355 143.338 12.6746 142.161 12.6746C140.876 12.6746 140.127 12.355 139.056 11.716L138.093 14.0592C140.02 15.1243 141.839 15.2308 142.589 15.2308C146.657 15.2308 147.192 12.8876 147.192 12.142C147.192 11.0769 146.55 10.0118 145.158 9.69231C146.014 9.26627 146.657 8.4142 146.657 7.34911C146.657 5.00592 144.194 4.47337 142.589 4.47337C141.197 4.47337 139.484 4.89941 138.414 5.43195L139.377 7.66864ZM131.563 3.40828C133.168 3.40828 134.881 2.76923 135.631 1.06509L133.275 0.213018C132.954 1.38462 131.991 1.49112 131.563 1.49112C131.134 1.49112 130.171 1.38462 129.85 0.213018L127.602 1.06509C128.351 2.87574 130.064 3.40828 131.563 3.40828ZM126.103 4.7929V14.9112H129.529L133.061 9.37278V14.9112H136.594V4.7929H133.168L129.636 10.2249V4.7929H126.103ZM102.445 12.6746V7.02959C101.268 7.02959 99.9834 7.88166 99.9834 9.79882C100.09 11.8225 101.268 12.6746 102.445 12.6746ZM105.55 7.02959V12.6746C106.727 12.6746 108.012 11.8225 108.012 9.90533C108.012 7.98817 106.727 7.02959 105.55 7.02959ZM102.231 19.2781V15.0178C100.09 15.0178 96.6649 14.1657 96.6649 9.79882C96.6649 5.43195 100.197 4.57988 102.231 4.57988V0.213018H105.764V4.57988C107.905 4.57988 111.331 5.43195 111.331 9.79882C111.331 14.1657 107.798 15.0178 105.764 15.0178V19.2781H102.231ZM86.4952 12.6746V7.02959C85.3177 7.02959 84.0331 7.88166 84.0331 9.79882C84.0331 11.8225 85.2106 12.6746 86.4952 12.6746ZM89.5996 7.02959V12.6746C90.7772 12.6746 92.0618 11.8225 92.0618 9.90533C91.9547 7.98817 90.7772 7.02959 89.5996 7.02959ZM86.2811 19.2781V15.0178C84.1402 15.0178 80.7146 14.1657 80.7146 9.79882C80.7146 5.43195 84.1402 4.57988 86.2811 4.57988V0.213018H89.8137V4.57988C91.9547 4.57988 95.3803 5.43195 95.3803 9.79882C95.3803 14.1657 91.8477 15.0178 89.8137 15.0178V19.2781H86.2811ZM73.9705 3.40828C75.5763 3.40828 77.2891 2.76923 77.9313 1.06509L75.5763 0.213018C75.2551 1.38462 74.2917 1.49112 73.8635 1.49112C73.4353 1.49112 72.4719 1.38462 72.1507 0.213018L69.9027 1.06509C70.652 2.87574 72.3648 3.40828 73.9705 3.40828ZM68.404 4.7929V14.9112H71.8296L75.3622 9.37278V14.9112H78.8948V4.7929H75.4692L71.9366 10.2249V4.7929H68.404ZM46.6731 3.19527V6.60355H47.9577C49.7776 6.60355 49.8846 5.53846 49.8846 4.89941C49.8846 4.15385 49.6705 3.19527 47.9577 3.19527H46.6731ZM42.8194 14.8047V0H48.8141C52.882 0 54.0595 2.87574 54.0595 4.89941C54.0595 6.92308 52.882 9.79882 48.9212 9.79882H46.7802V14.8047H42.8194ZM123.855 4.7929V14.9112H120.323V13.7396C119.68 14.6982 118.503 15.2308 117.325 15.2308C114.328 15.2308 112.294 12.6746 112.294 9.79882C112.294 6.92308 114.328 4.47337 117.325 4.47337C118.503 4.47337 119.68 4.89941 120.43 5.75148V4.7929H123.855ZM118.182 7.56213C116.683 7.56213 115.934 8.62722 115.934 9.79882C115.934 11.0769 116.79 12.0355 118.182 12.0355C119.573 12.0355 120.43 11.0769 120.43 9.79882C120.43 8.52071 119.573 7.56213 118.182 7.56213ZM66.156 4.7929V14.9112H62.6234V13.7396C61.9811 14.6982 60.8036 15.2308 59.626 15.2308C56.6287 15.2308 54.5947 12.6746 54.5947 9.79882C54.5947 6.92308 56.6287 4.47337 59.626 4.47337C60.8036 4.47337 61.9811 4.89941 62.7304 5.75148V4.7929H66.156ZM60.4824 7.56213C58.9837 7.56213 58.2344 8.62722 58.2344 9.79882C58.2344 11.0769 59.0908 12.0355 60.4824 12.0355C61.874 12.0355 62.7304 11.0769 62.7304 9.79882C62.7304 8.52071 61.874 7.56213 60.4824 7.56213ZM159.181 10.2249V10.6509H151.688C151.688 12.142 152.437 12.8876 153.936 12.8876C154.685 12.8876 155.22 12.6746 155.649 11.929H159.074C158.539 14.3787 156.291 15.4438 153.936 15.4438C150.617 15.4438 148.155 13.5266 148.155 10.1183C148.155 6.71006 150.403 4.68639 153.722 4.68639C157.147 4.57988 159.181 6.81657 159.181 10.2249ZM151.688 8.52071H155.756C155.542 7.56213 154.685 6.92308 153.722 6.92308C152.758 6.92308 151.902 7.45562 151.688 8.52071Z" fill="black"/>
<path d="M47.422 32.9112H48.0643C48.7066 32.9112 49.2419 32.9112 49.6701 32.8047C50.0983 32.6981 50.4194 32.5916 50.7406 32.3786C51.0617 32.1656 51.2758 31.7396 51.3828 31.207C51.4899 30.6745 51.4899 30.3549 51.2758 30.1419C51.0617 29.9289 50.7406 29.7159 50.4194 29.7159C50.0983 29.7159 49.563 29.6094 48.8137 29.6094H48.1714L47.422 32.9112ZM55.8789 21.0887L55.1295 24.3904H49.1348L48.7066 26.4141H50.9547C52.1322 26.4141 52.9886 26.6271 53.7379 26.9467C54.4873 27.2662 54.9154 27.9052 55.2366 28.5443C55.4507 29.2899 55.5577 30.1419 55.2366 31.207C55.0225 32.1656 54.5943 33.1242 53.952 33.7632C53.3097 34.5088 52.5604 35.0413 51.704 35.3609C50.8476 35.6804 49.7771 35.8934 48.7066 35.8934H42.7119L45.9234 20.8757H55.8789V21.0887Z" fill="black"/>
<path d="M65.2997 25.6686L62.6235 30.4615H65.835L65.2997 25.6686ZM60.9107 33.4438L59.305 36H55.1301L64.1222 20.9823H68.4042L70.8663 36H66.6914L66.2632 33.4438H60.9107Z" fill="black"/>
<path d="M84.1399 26.8402L85.3174 21.0887H89.2782L86.0668 36H82.106L83.4976 29.929H77.824L76.5395 36H72.5787L75.7901 21.0887H79.6439L78.4663 26.8402H84.1399Z" fill="black"/>
<path d="M100.947 21.0887H105.872L98.3782 28.1183L103.195 36H98.057L94.4174 29.5029L93.0257 36H89.0649L92.2764 21.0887H96.2372L94.8456 27.2662H94.9526L100.947 21.0887Z" fill="black"/>
</svg>
