<svg width="46" height="28" viewBox="0 0 46 28" fill="none" xmlns="http://www.w3.org/2000/svg">
<path d="M29.2254 2.97412H16.9663V24.9534H29.2254V2.97412Z" fill="#FF5F00"/>
<path d="M17.7642 14C17.7642 9.50259 19.8679 5.58549 23.1321 2.97409C20.7383 1.08808 17.6917 0 14.4275 0C6.73834 0 0.5 6.23834 0.5 14C0.5 21.6891 6.73834 28 14.5 28C17.7642 28 20.7383 26.9119 23.1321 25.0259C19.8679 22.4145 17.7642 18.4249 17.7642 14Z" fill="#EB001B"/>
<path d="M45.7642 14C45.7642 21.6891 39.5259 28 31.7642 28C28.5 28 25.5259 26.9119 23.1321 25.0259C26.3963 22.487 28.5 18.4974 28.5 14C28.5 9.50259 26.3963 5.58549 23.1321 2.97409C25.5259 1.08808 28.5 0 31.7642 0C39.4533 0 45.7642 6.23834 45.7642 14Z" fill="#F79E1B"/>
<path d="M44.3861 22.632V22.1968H44.6037V22.1243H44.1685V22.1968H44.3861V22.632ZM45.2565 22.632V22.1243H45.1115L44.9664 22.487L44.8213 22.1243H44.6762V22.632H44.7488V22.1968L44.8938 22.5595H44.9664L45.1115 22.1968V22.632H45.2565Z" fill="#F79E1B"/>
</svg>
