<svg width="835" height="164" viewBox="0 0 835 164" fill="none" xmlns="http://www.w3.org/2000/svg">
<path d="M131.911 83.6831H122.433L136.875 41.8468H148.274L162.696 83.6831H153.218L142.738 51.407H142.411L131.911 83.6831ZM131.319 67.2386H153.708V74.1433H131.319V67.2386ZM203.297 41.8468V83.6831H194.554V49.0374H177.639V83.6831H168.896V41.8468H203.297ZM213.393 41.8468H222.034V76.5742H234.046V41.8468H242.646V76.5742H254.515V41.8468H263.115V83.6831H213.393V41.8468ZM272.052 83.6831V41.8468H300.242V49.1395H280.897V59.1083H298.792V66.4011H280.897V76.3903H300.324V83.6831H272.052ZM307.275 83.6831V41.8468H323.78C326.954 41.8468 329.657 42.4528 331.89 43.6649C334.124 44.8633 335.826 46.5316 336.997 48.6697C338.182 50.7942 338.775 53.2455 338.775 56.0237C338.775 58.8019 338.175 61.2533 336.977 63.3778C335.778 65.5023 334.042 67.1569 331.768 68.3418C329.507 69.5266 326.77 70.119 323.556 70.119H313.035V63.0305H322.126C323.828 63.0305 325.231 62.7377 326.334 62.1521C327.451 61.5529 328.281 60.729 328.826 59.6803C329.385 58.6181 329.664 57.3992 329.664 56.0237C329.664 54.6346 329.385 53.4226 328.826 52.3876C328.281 51.3389 327.451 50.5286 326.334 49.9566C325.217 49.371 323.801 49.0782 322.085 49.0782H316.12V83.6831H307.275ZM382.965 62.7649C382.965 67.3272 382.1 71.2085 380.371 74.4088C378.655 77.6092 376.313 80.0537 373.344 81.7425C370.388 83.4175 367.065 84.2551 363.375 84.2551C359.657 84.2551 356.32 83.4107 353.365 81.722C350.41 80.0333 348.074 77.5888 346.358 74.3884C344.642 71.188 343.784 67.3135 343.784 62.7649C343.784 58.2027 344.642 54.3214 346.358 51.121C348.074 47.9207 350.41 45.4829 353.365 43.8078C356.32 42.1191 359.657 41.2748 363.375 41.2748C367.065 41.2748 370.388 42.1191 373.344 43.8078C376.313 45.4829 378.655 47.9207 380.371 51.121C382.1 54.3214 382.965 58.2027 382.965 62.7649ZM373.997 62.7649C373.997 59.8097 373.555 57.3175 372.67 55.2883C371.798 53.2592 370.565 51.7203 368.972 50.6716C367.379 49.623 365.513 49.0987 363.375 49.0987C361.237 49.0987 359.371 49.623 357.778 50.6716C356.184 51.7203 354.945 53.2592 354.06 55.2883C353.188 57.3175 352.752 59.8097 352.752 62.7649C352.752 65.7202 353.188 68.2124 354.06 70.2415C354.945 72.2707 356.184 73.8096 357.778 74.8583C359.371 75.9069 361.237 76.4312 363.375 76.4312C365.513 76.4312 367.379 75.9069 368.972 74.8583C370.565 73.8096 371.798 72.2707 372.67 70.2415C373.555 68.2124 373.997 65.7202 373.997 62.7649ZM389.517 83.6831V41.8468H398.363V59.1083H416.319V41.8468H425.144V83.6831H416.319V66.4011H398.363V83.6831H389.517ZM469.35 56.4936H460.402C460.239 55.336 459.905 54.3078 459.401 53.409C458.897 52.4965 458.251 51.7203 457.461 51.0802C456.671 50.4401 455.758 49.9498 454.723 49.6094C453.702 49.2689 452.592 49.0987 451.394 49.0987C449.228 49.0987 447.342 49.6366 445.735 50.7125C444.128 51.7747 442.882 53.3272 441.997 55.37C441.112 57.3992 440.669 59.8642 440.669 62.7649C440.669 65.7474 441.112 68.2532 441.997 70.2824C442.896 72.3116 444.148 73.8437 445.755 74.8787C447.362 75.9137 449.221 76.4312 451.332 76.4312C452.517 76.4312 453.613 76.2746 454.621 75.9614C455.643 75.6481 456.548 75.1919 457.338 74.5927C458.128 73.9799 458.782 73.2376 459.299 72.366C459.83 71.4945 460.198 70.5003 460.402 69.3836L469.35 69.4244C469.118 71.3447 468.539 73.1968 467.613 74.9808C466.701 76.7512 465.468 78.3378 463.916 79.7405C462.377 81.1296 460.538 82.2327 458.4 83.0498C456.276 83.8533 453.872 84.2551 451.189 84.2551C447.458 84.2551 444.121 83.4107 441.18 81.722C438.252 80.0333 435.936 77.5888 434.234 74.3884C432.545 71.188 431.701 67.3135 431.701 62.7649C431.701 58.2027 432.559 54.3214 434.275 51.121C435.991 47.9207 438.32 45.4829 441.261 43.8078C444.203 42.1191 447.512 41.2748 451.189 41.2748C453.613 41.2748 455.86 41.6153 457.93 42.2962C460.014 42.9771 461.859 43.9713 463.466 45.2787C465.073 46.5724 466.381 48.159 467.389 50.0384C468.41 51.9177 469.064 54.0695 469.35 56.4936ZM501.003 83.6831L487.561 65.8495H484.538V83.6831H475.693V41.8468H484.538V58.5568H486.315L500.206 41.8468H511.217L494.895 61.2533L511.972 83.6831H501.003ZM516.421 41.8468H525.246V68.1579H525.593L543.671 41.8468H551.414V83.6831H542.568V57.3515H542.262L524.081 83.6831H516.421V41.8468ZM558.722 41.8468H567.547V68.1579H567.894L585.973 41.8468H593.715V83.6831H584.869V57.3515H584.563L566.382 83.6831H558.722V41.8468ZM580.294 30.8974H586.361C586.347 33.376 585.428 35.3711 583.603 36.8828C581.792 38.3945 579.34 39.1503 576.249 39.1503C573.144 39.1503 570.686 38.3945 568.874 36.8828C567.063 35.3711 566.157 33.376 566.157 30.8974H572.184C572.17 31.8371 572.47 32.6815 573.083 33.4305C573.709 34.1795 574.764 34.554 576.249 34.554C577.692 34.554 578.727 34.1863 579.354 33.4509C579.98 32.7155 580.294 31.8643 580.294 30.8974Z" fill="#E31E24"/>
<path d="M124.7 107.253H135.609L147.13 135.362H147.62L159.142 107.253H170.05V149.089H161.471V121.859H161.123L150.297 148.885H144.454L133.627 121.757H133.28V149.089H124.7V107.253ZM181.853 149.661V142.47H184.12C185.25 142.47 186.163 142.334 186.857 142.062C187.552 141.776 188.103 141.361 188.512 140.816C188.934 140.257 189.288 139.563 189.574 138.732L190.085 137.363L174.887 107.253H184.038L193.885 127.844L202.117 107.253H211.146L196.724 140.877C196.029 142.43 195.206 143.873 194.252 145.208C193.313 146.542 192.107 147.618 190.637 148.435C189.166 149.253 187.286 149.661 184.998 149.661H181.853ZM241.242 149.089L227.8 131.256H224.777V149.089H215.931V107.253H224.777V123.963H226.554L240.445 107.253H251.455L235.134 126.659L252.211 149.089H241.242ZM292.745 128.171C292.745 132.733 291.881 136.614 290.151 139.815C288.435 143.015 286.093 145.46 283.124 147.148C280.169 148.824 276.846 149.661 273.155 149.661C269.437 149.661 266.101 148.817 263.145 147.128C260.19 145.439 257.855 142.995 256.139 139.794C254.423 136.594 253.565 132.72 253.565 128.171C253.565 123.609 254.423 119.727 256.139 116.527C257.855 113.327 260.19 110.889 263.145 109.214C266.101 107.525 269.437 106.681 273.155 106.681C276.846 106.681 280.169 107.525 283.124 109.214C286.093 110.889 288.435 113.327 290.151 116.527C291.881 119.727 292.745 123.609 292.745 128.171ZM283.778 128.171C283.778 125.216 283.335 122.724 282.45 120.694C281.578 118.665 280.346 117.126 278.752 116.078C277.159 115.029 275.293 114.505 273.155 114.505C271.017 114.505 269.151 115.029 267.558 116.078C265.964 117.126 264.725 118.665 263.84 120.694C262.968 122.724 262.533 125.216 262.533 128.171C262.533 131.126 262.968 133.618 263.84 135.648C264.725 137.677 265.964 139.216 267.558 140.264C269.151 141.313 271.017 141.837 273.155 141.837C275.293 141.837 277.159 141.313 278.752 140.264C280.346 139.216 281.578 137.677 282.45 135.648C283.335 133.618 283.778 131.126 283.778 128.171ZM299.298 107.253H310.206L321.727 135.362H322.218L333.739 107.253H344.648V149.089H336.068V121.859H335.721L324.894 148.885H319.051L308.225 121.757H307.877V149.089H299.298V107.253ZM390.381 128.171C390.381 132.733 389.516 136.614 387.786 139.815C386.07 143.015 383.728 145.46 380.759 147.148C377.804 148.824 374.481 149.661 370.79 149.661C367.072 149.661 363.736 148.817 360.78 147.128C357.825 145.439 355.49 142.995 353.774 139.794C352.058 136.594 351.2 132.72 351.2 128.171C351.2 123.609 352.058 119.727 353.774 116.527C355.49 113.327 357.825 110.889 360.78 109.214C363.736 107.525 367.072 106.681 370.79 106.681C374.481 106.681 377.804 107.525 380.759 109.214C383.728 110.889 386.07 113.327 387.786 116.527C389.516 119.727 390.381 123.609 390.381 128.171ZM381.413 128.171C381.413 125.216 380.97 122.724 380.085 120.694C379.213 118.665 377.981 117.126 376.387 116.078C374.794 115.029 372.928 114.505 370.79 114.505C368.652 114.505 366.786 115.029 365.193 116.078C363.6 117.126 362.36 118.665 361.475 120.694C360.603 122.724 360.168 125.216 360.168 128.171C360.168 131.126 360.603 133.618 361.475 135.648C362.36 137.677 363.6 139.216 365.193 140.264C366.786 141.313 368.652 141.837 370.79 141.837C372.928 141.837 374.794 141.313 376.387 140.264C377.981 139.216 379.213 137.677 380.085 135.648C380.97 133.618 381.413 131.126 381.413 128.171ZM394.665 149.089V141.98L395.85 141.878C397.375 141.755 398.608 141.177 399.548 140.142C400.487 139.093 401.189 137.425 401.652 135.137C402.128 132.835 402.435 129.744 402.571 125.863L403.265 107.253H431.66V149.089H423.06V114.341H411.477L410.824 128.906C410.606 133.591 410.047 137.418 409.149 140.387C408.263 143.356 406.847 145.548 404.9 146.965C402.966 148.381 400.317 149.089 396.953 149.089H394.665ZM444.775 122.717H454.744C458.067 122.717 460.927 123.255 463.323 124.33C465.734 125.393 467.593 126.898 468.9 128.845C470.208 130.793 470.855 133.087 470.841 135.729C470.855 138.358 470.208 140.68 468.9 142.695C467.593 144.697 465.734 146.263 463.323 147.394C460.927 148.524 458.067 149.089 454.744 149.089H439.116V107.253H447.941V141.98H454.744C456.337 141.98 457.679 141.694 458.768 141.122C459.858 140.537 460.681 139.767 461.24 138.814C461.812 137.847 462.091 136.792 462.077 135.648C462.091 133.986 461.465 132.583 460.198 131.439C458.945 130.282 457.127 129.703 454.744 129.703H444.775V122.717ZM477.883 149.089V107.253H486.729V124.514H504.685V107.253H513.51V149.089H504.685V131.807H486.729V149.089H477.883ZM526.624 122.717H536.593C539.916 122.717 542.776 123.255 545.173 124.33C547.583 125.393 549.442 126.898 550.75 128.845C552.057 130.793 552.704 133.087 552.69 135.729C552.704 138.358 552.057 140.68 550.75 142.695C549.442 144.697 547.583 146.263 545.173 147.394C542.776 148.524 539.916 149.089 536.593 149.089H520.966V107.253H529.791V141.98H536.593C538.187 141.98 539.528 141.694 540.617 141.122C541.707 140.537 542.531 139.767 543.089 138.814C543.661 137.847 543.94 136.792 543.927 135.648C543.94 133.986 543.314 132.583 542.047 131.439C540.795 130.282 538.976 129.703 536.593 129.703H526.624V122.717ZM564.927 107.253V149.089H556.102V107.253H564.927ZM572.204 107.253H581.029V133.564H581.376L599.455 107.253H607.197V149.089H598.352V122.758H598.045L579.865 149.089H572.204V107.253ZM593.776 96.3034H599.843C599.829 98.782 598.91 100.777 597.085 102.289C595.274 103.8 592.823 104.556 589.731 104.556C586.626 104.556 584.168 103.8 582.357 102.289C580.546 100.777 579.64 98.782 579.64 96.3034H585.666C585.652 97.2431 585.952 98.0875 586.565 98.8365C587.191 99.5855 588.247 99.96 589.731 99.96C591.175 99.96 592.21 99.5923 592.836 98.8569C593.463 98.1215 593.776 97.2703 593.776 96.3034ZM643.038 149.661C639.987 149.661 637.27 149.137 634.887 148.088C632.518 147.026 630.645 145.569 629.269 143.717C627.908 141.851 627.206 139.699 627.165 137.261H636.072C636.126 138.283 636.46 139.182 637.073 139.958C637.699 140.72 638.53 141.313 639.565 141.735C640.6 142.157 641.765 142.368 643.058 142.368C644.407 142.368 645.598 142.13 646.633 141.653C647.668 141.177 648.479 140.516 649.064 139.672C649.65 138.827 649.943 137.854 649.943 136.751C649.943 135.634 649.629 134.647 649.003 133.789C648.39 132.917 647.505 132.236 646.347 131.746C645.203 131.256 643.841 131.01 642.262 131.01H638.36V124.514H642.262C643.596 124.514 644.774 124.283 645.796 123.82C646.831 123.357 647.634 122.717 648.206 121.9C648.778 121.069 649.064 120.102 649.064 118.999C649.064 117.95 648.812 117.031 648.308 116.241C647.818 115.438 647.123 114.811 646.225 114.362C645.339 113.912 644.304 113.688 643.12 113.688C641.921 113.688 640.825 113.905 639.831 114.341C638.837 114.763 638.04 115.369 637.441 116.159C636.841 116.949 636.521 117.875 636.481 118.938H628.003C628.044 116.527 628.732 114.403 630.066 112.564C631.401 110.726 633.198 109.289 635.459 108.254C637.733 107.205 640.301 106.681 643.16 106.681C646.048 106.681 648.574 107.205 650.739 108.254C652.905 109.302 654.586 110.719 655.785 112.503C656.997 114.273 657.596 116.261 657.583 118.468C657.596 120.81 656.868 122.764 655.397 124.33C653.94 125.897 652.04 126.891 649.697 127.313V127.64C652.775 128.035 655.118 129.104 656.725 130.847C658.345 132.577 659.149 134.742 659.135 137.343C659.149 139.726 658.461 141.844 657.072 143.696C655.696 145.548 653.797 147.005 651.372 148.068C648.948 149.13 646.17 149.661 643.038 149.661ZM672.949 149.089H663.471L677.913 107.253H689.312L703.734 149.089H694.256L683.776 116.813H683.449L672.949 149.089ZM672.357 132.645H694.746V139.549H672.357V132.645ZM708.77 149.089V107.253H725.521C728.598 107.253 731.166 107.709 733.222 108.621C735.278 109.534 736.824 110.8 737.859 112.421C738.894 114.028 739.412 115.88 739.412 117.977C739.412 119.612 739.085 121.048 738.431 122.288C737.777 123.513 736.879 124.521 735.735 125.311C734.604 126.087 733.31 126.639 731.853 126.966V127.374C733.447 127.442 734.938 127.892 736.327 128.722C737.73 129.553 738.867 130.718 739.738 132.216C740.61 133.7 741.046 135.471 741.046 137.527C741.046 139.747 740.494 141.728 739.391 143.471C738.302 145.201 736.688 146.57 734.55 147.577C732.412 148.585 729.776 149.089 726.644 149.089H708.77ZM717.615 141.858H724.826C727.291 141.858 729.089 141.388 730.219 140.448C731.349 139.495 731.915 138.228 731.915 136.649C731.915 135.491 731.635 134.47 731.077 133.584C730.519 132.699 729.722 132.005 728.687 131.501C727.666 130.997 726.447 130.745 725.03 130.745H717.615V141.858ZM717.615 124.759H724.172C725.384 124.759 726.46 124.548 727.4 124.126C728.353 123.69 729.102 123.078 729.647 122.288C730.205 121.498 730.485 120.551 730.485 119.448C730.485 117.937 729.947 116.718 728.871 115.792C727.809 114.866 726.297 114.403 724.336 114.403H717.615V124.759ZM785.247 128.171C785.247 132.733 784.382 136.614 782.652 139.815C780.936 143.015 778.594 145.46 775.625 147.148C772.67 148.824 769.347 149.661 765.656 149.661C761.938 149.661 758.602 148.817 755.647 147.128C752.691 145.439 750.356 142.995 748.64 139.794C746.924 136.594 746.066 132.72 746.066 128.171C746.066 123.609 746.924 119.727 748.64 116.527C750.356 113.327 752.691 110.889 755.647 109.214C758.602 107.525 761.938 106.681 765.656 106.681C769.347 106.681 772.67 107.525 775.625 109.214C778.594 110.889 780.936 113.327 782.652 116.527C784.382 119.727 785.247 123.609 785.247 128.171ZM776.279 128.171C776.279 125.216 775.836 122.724 774.951 120.694C774.079 118.665 772.847 117.126 771.254 116.078C769.66 115.029 767.794 114.505 765.656 114.505C763.518 114.505 761.652 115.029 760.059 116.078C758.466 117.126 757.226 118.665 756.341 120.694C755.47 122.724 755.034 125.216 755.034 128.171C755.034 131.126 755.47 133.618 756.341 135.648C757.226 137.677 758.466 139.216 760.059 140.264C761.652 141.313 763.518 141.837 765.656 141.837C767.794 141.837 769.66 141.313 771.254 140.264C772.847 139.216 774.079 137.677 774.951 135.648C775.836 133.618 776.279 131.126 776.279 128.171ZM789.531 159.18V142.041H792.371C793.338 141.347 794.223 140.366 795.027 139.1C795.83 137.82 796.518 136.056 797.09 133.809C797.662 131.548 798.07 128.593 798.315 124.943L799.5 107.253H827.18V142.041H831.756V159.14H823.258V149.089H798.029V159.18H789.531ZM802.585 142.041H818.682V114.546H807.467L806.813 124.943C806.636 127.708 806.344 130.159 805.935 132.297C805.54 134.435 805.057 136.308 804.485 137.915C803.926 139.508 803.293 140.884 802.585 142.041Z" fill="#E31E24"/>
<path fill-rule="evenodd" clip-rule="evenodd" d="M13.7019 145.966L17.5986 110.312L52.5179 75.6938L87.4377 110.312L91.3297 145.924L91.4308 145.966H95.8905V150.578H9.14502V145.966H13.7015L13.7019 145.966ZM52.5179 118.164C58.7242 118.164 63.7555 123.196 63.7555 129.402C63.7555 129.623 63.7484 129.843 63.7359 130.061V147.455H41.3004V130.061C41.2874 129.843 41.2804 129.623 41.2804 129.402C41.2804 123.196 46.3117 118.164 52.5179 118.164ZM43.427 109.323H50.2334V116.129H43.427V109.323ZM43.427 97.7741H50.2334V104.58H43.427V97.7741ZM54.8024 97.7741H61.6089V104.58H54.8024V97.7741ZM54.8024 109.323H61.6089V116.129H54.8024V109.323Z" fill="#E31E24"/>
<path fill-rule="evenodd" clip-rule="evenodd" d="M70.1483 50.2425L64.1814 44.2756L59.4549 49.0021C60.6146 51.2697 60.6005 53.9832 59.4122 56.2399L64.1187 60.9464L70.0225 55.0422L104.91 89.9295L89.6791 105.16L54.7919 70.2728L60.8214 64.2433L56.1153 59.5368C53.8586 60.7251 51.1451 60.7392 48.8775 59.5795L44.151 64.306L50.1179 70.2732L15.2306 105.16L0 89.9299L34.8872 55.0426L40.8541 61.0095L45.5418 56.3222C44.2956 54.022 44.2815 51.2317 45.4979 48.9202L40.7918 44.2141L34.8876 50.1179L0.000382602 15.2306L15.231 0L50.1183 34.8873L44.0887 40.9168L48.7952 45.6233C51.1064 44.4064 53.8966 44.4209 56.1968 45.6668L60.8845 40.9795L54.9172 35.0122L89.8045 0.124987L105.035 15.3556L70.1479 50.2429L70.1483 50.2425Z" fill="#E31E24"/>
</svg>
