<svg width="20" height="19" viewBox="0 0 20 19" fill="none" xmlns="http://www.w3.org/2000/svg">
<path d="M18 0H2C1.46957 0 0.960859 0.210714 0.585786 0.585786C0.210714 0.960859 0 1.46957 0 2V6H18V12H13V14H18C18.5304 14 19.0391 13.7893 19.4142 13.4142C19.7893 13.0391 20 12.5304 20 12V2C20 1.46957 19.7893 0.960859 19.4142 0.585786C19.0391 0.210714 18.5304 0 18 0ZM2 4V2H18V4H2Z" fill="#181C2B"/>
<path d="M0 17.586V19H1.414L12 8.414V7H10.586L0 17.586Z" fill="#181C2B"/>
<path d="M1.977 12H3.023C3.54733 12 4.05019 11.7917 4.42095 11.4209C4.79171 11.0502 5 10.5473 5 10.023V8.977C5 8.45267 4.79171 7.94981 4.42095 7.57905C4.05019 7.20829 3.54733 7 3.023 7H1.977C1.45267 7 0.949809 7.20829 0.57905 7.57905C0.208291 7.94981 0 8.45267 0 8.977V10.023C0 10.5473 0.208291 11.0502 0.57905 11.4209C0.949809 11.7917 1.45267 12 1.977 12ZM1.8 8.8H3.2V10.2H1.8V8.8Z" fill="#181C2B"/>
<path d="M10.023 14H8.977C8.45267 14 7.94981 14.2083 7.57905 14.5791C7.20829 14.9498 7 15.4527 7 15.977V17.023C7 17.5473 7.20829 18.0502 7.57905 18.4209C7.94981 18.7917 8.45267 19 8.977 19H10.023C10.5473 19 11.0502 18.7917 11.4209 18.4209C11.7917 18.0502 12 17.5473 12 17.023V15.977C12 15.4527 11.7917 14.9498 11.4209 14.5791C11.0502 14.2083 10.5473 14 10.023 14ZM10.2 17.2H8.8V15.8H10.2V17.2Z" fill="#181C2B"/>
</svg>
