<svg width="20" height="17" viewBox="0 0 20 17" fill="none" xmlns="http://www.w3.org/2000/svg">
<path d="M15 0H2C1.46957 0 0.960859 0.210714 0.585786 0.585786C0.210714 0.960859 0 1.46957 0 2V12C0 12.5304 0.210714 13.0391 0.585786 13.4142C0.960859 13.7893 1.46957 14 2 14V2H17C17 1.46957 16.7893 0.960859 16.4142 0.585786C16.0391 0.210714 15.5304 0 15 0Z" fill="#181C2B"/>
<path d="M3 11H10.868L9 12.869V14H10.131L14.132 10L10.131 6H9V7.131L10.868 9H3V11Z" fill="#181C2B"/>
<path d="M20 4.98201C20 4.72131 19.9486 4.46316 19.8487 4.22237C19.7487 3.98158 19.6023 3.76286 19.4177 3.57875C19.2331 3.39464 19.0141 3.24875 18.773 3.14944C18.532 3.05013 18.2737 2.99935 18.013 3.00001H5C4.46957 3.00001 3.96086 3.21072 3.58579 3.58579C3.21071 3.96087 3 4.46957 3 5.00001V8.00001H5V5.00001H18V15H5V12H3V15C3 15.5304 3.21071 16.0391 3.58579 16.4142C3.96086 16.7893 4.46957 17 5 17H18.015C18.2756 17.0004 18.5338 16.9494 18.7746 16.8499C19.0155 16.7504 19.2344 16.6044 19.4188 16.4202C19.6032 16.236 19.7494 16.0173 19.8491 15.7765C19.9489 15.5357 20.0001 15.2776 20 15.017C20 12.793 20 7.20701 20 4.98201Z" fill="#181C2B"/>
</svg>
