<svg width="20" height="19" viewBox="0 0 20 19" fill="none" xmlns="http://www.w3.org/2000/svg">
<path d="M17.991 2.51016e-07H2.009C1.74514 -0.000131187 1.48384 0.0517436 1.24003 0.152659C0.996231 0.253574 0.774709 0.401551 0.58813 0.58813C0.401551 0.774709 0.253574 0.996231 0.152659 1.24003C0.0517436 1.48384 -0.000131189 1.74514 2.4915e-07 2.009V9H2V6H18V12H15V14H18.012C18.5392 13.9997 19.0447 13.7902 19.4174 13.4174C19.7902 13.0447 19.9997 12.5392 20 12.012V2.012C20.0005 1.74789 19.9489 1.48626 19.8482 1.24211C19.7475 0.997963 19.5996 0.776086 19.4129 0.589189C19.2263 0.402292 19.0047 0.254047 18.7607 0.152944C18.5167 0.0518417 18.2551 -0.000131805 17.991 2.51016e-07ZM2 4V2H18V4H2Z" fill="#181C2B"/>
<path d="M6 16L2 10H0V19H2V13L6 19H8V10H6V16Z" fill="#181C2B"/>
<path d="M14 17H9V19H14V17Z" fill="#181C2B"/>
<path d="M12 10H11C10.4696 10 9.96086 10.2107 9.58579 10.5858C9.21071 10.9609 9 11.4696 9 12V14C9 14.5304 9.21071 15.0391 9.58579 15.4142C9.96086 15.7893 10.4696 16 11 16H12C12.5304 16 13.0391 15.7893 13.4142 15.4142C13.7893 15.0391 14 14.5304 14 14V12C14 11.4696 13.7893 10.9609 13.4142 10.5858C13.0391 10.2107 12.5304 10 12 10ZM12.2 14C12.2 14.053 12.1789 14.1039 12.1414 14.1414C12.1039 14.1789 12.053 14.2 12 14.2H11C10.947 14.2 10.8961 14.1789 10.8586 14.1414C10.8211 14.1039 10.8 14.053 10.8 14V12C10.8 11.947 10.8211 11.8961 10.8586 11.8586C10.8961 11.8211 10.947 11.8 11 11.8H12C12.053 11.8 12.1039 11.8211 12.1414 11.8586C12.1789 11.8961 12.2 11.947 12.2 12V14Z" fill="#181C2B"/>
</svg>
