<svg width="20" height="20" viewBox="0 0 20 20" fill="none" xmlns="http://www.w3.org/2000/svg">
<path d="M18 6H2C1.46957 6 0.960859 6.21071 0.585786 6.58579C0.210714 6.96086 0 7.46957 0 8V18C0 18.5304 0.210714 19.0391 0.585786 19.4142C0.960859 19.7893 1.46957 20 2 20H18.059C18.5738 20 19.0675 19.7955 19.4315 19.4315C19.7955 19.0675 20 18.5738 20 18.059V8C20 7.46957 19.7893 6.96086 19.4142 6.58579C19.0391 6.21071 18.5304 6 18 6ZM2 18V8H7V18H2ZM9 18V8H11V18H9ZM18 18H13V8H18V18Z" fill="#181C2B"/>
<path d="M6 3.07L8.895 5H11.105L14 3.07V5H16V1L15 0L10 3.333L5 0L4 1V5H6V3.07Z" fill="#181C2B"/>
</svg>
