<svg width="19" height="21" viewBox="0 0 19 21" fill="none" xmlns="http://www.w3.org/2000/svg">
<path d="M14 5H4V7H14V5Z" fill="#181C2B"/>
<path d="M18.707 19.293L16.3 16.886C16.7549 16.1731 16.9976 15.3456 17 14.5C17 13.61 16.7361 12.74 16.2416 11.9999C15.7471 11.2599 15.0443 10.6831 14.2221 10.3425C13.3998 10.0019 12.495 9.91283 11.6221 10.0865C10.7492 10.2601 9.94736 10.6887 9.31802 11.318C8.68869 11.9474 8.2601 12.7492 8.08647 13.6221C7.91283 14.495 8.00195 15.3998 8.34254 16.2221C8.68314 17.0443 9.25992 17.7471 9.99994 18.2416C10.74 18.7361 11.61 19 12.5 19C13.3456 18.9977 14.1732 18.755 14.886 18.3L17.293 20.707L18.707 19.293ZM12.5 17C12.0055 17 11.5222 16.8534 11.1111 16.5787C10.7 16.304 10.3795 15.9135 10.1903 15.4567C10.0011 14.9999 9.95158 14.4972 10.048 14.0123C10.1445 13.5273 10.3826 13.0819 10.7322 12.7322C11.0819 12.3826 11.5273 12.1445 12.0123 12.048C12.4972 11.9516 12.9999 12.0011 13.4567 12.1903C13.9135 12.3795 14.304 12.7 14.5787 13.1111C14.8534 13.5222 15 14.0055 15 14.5C15 15.163 14.7366 15.7989 14.2678 16.2678C13.7989 16.7366 13.163 17 12.5 17Z" fill="#181C2B"/>
<path d="M7.518 17.363C7.331 17.45 7.154 17.541 6.993 17.628C6.69676 17.8301 6.35611 17.9577 6 18C5.63764 17.9484 5.29091 17.8184 4.984 17.619C4.38481 17.2501 3.70268 17.0372 3 17C2.65902 17.0035 2.32102 17.064 2 17.179V2.37C2.29965 2.16984 2.64223 2.04308 3 2C3.37646 2.04989 3.73695 2.1835 4.055 2.391C4.64174 2.75448 5.31074 2.96395 6 3C6.68977 2.96787 7.35933 2.75698 7.943 2.388C8.24368 2.1556 8.61297 2.02952 8.993 2.02952C9.37303 2.02952 9.74231 2.1556 10.043 2.388C10.6315 2.75757 11.3058 2.96841 12 3C12.7048 2.96683 13.3891 2.75261 13.987 2.378C14.2907 2.17491 14.6375 2.04548 15 2C15.3585 2.03941 15.7018 2.16611 16 2.369V9.945C16.9498 10.673 17.6489 11.679 18 12.823V1C17.6296 0.958996 17.2749 0.827836 16.967 0.618C16.3761 0.244714 15.6982 0.0317258 15 0C14.3063 0.0341933 13.6328 0.245582 13.044 0.614C12.7316 0.823823 12.3737 0.956149 12 1C11.6414 0.95654 11.2984 0.827591 11 0.624C10.3986 0.246304 9.70946 0.0312835 9 0C8.28764 0.0305022 7.59569 0.247017 6.993 0.628C6.69676 0.830109 6.35611 0.957723 6 1C5.63764 0.948442 5.29091 0.818416 4.984 0.619C4.38481 0.250067 3.70268 0.0372458 3 0C2.30426 0.0334151 1.62887 0.245571 1.039 0.616C0.727878 0.824308 0.371812 0.955905 0 1V20C0.703359 19.9667 1.38629 19.7528 1.983 19.379C2.28744 19.1744 2.63589 19.0445 3 19C3.37646 19.0499 3.73695 19.1835 4.055 19.391C4.64174 19.7545 5.31074 19.9639 6 20C6.68977 19.9679 7.35933 19.757 7.943 19.388C8.2515 19.1894 8.60285 19.067 8.968 19.031C8.38174 18.5736 7.88938 18.0072 7.518 17.363Z" fill="#181C2B"/>
<path d="M10.823 9H4V11H7.945C8.67298 10.0502 9.67901 9.35112 10.823 9Z" fill="#181C2B"/>
<path d="M4 13V15H6.775C6.761 14.835 6.75 14.669 6.75 14.5C6.75146 13.9931 6.8204 13.4887 6.955 13H4Z" fill="#181C2B"/>
</svg>
