<svg width="39" height="39" viewBox="0 0 39 39" fill="none" xmlns="http://www.w3.org/2000/svg">
<path d="M12.9048 0.221924H25.8095C32.933 0.247734 38.6885 6.00326 38.7143 13.1267V26.0314C38.6885 33.1549 32.933 38.9104 25.8095 38.9362H12.9048C5.78134 38.9104 0.0258092 33.1549 0 26.0314V13.1267C0.0258092 6.00326 5.78134 0.247734 12.9048 0.221924Z" fill="#F4F4F4"/>
<path d="M29.6806 19.41C29.6806 25.0183 25.0994 29.5646 19.447 29.5646C17.6526 29.5646 15.9669 29.106 14.5002 28.3011L8.83447 30.1015L10.6817 24.6532C9.74985 23.1231 9.21318 21.3285 9.21318 19.41C9.21318 13.8017 13.795 9.25537 19.447 9.25537C25.0998 9.25537 29.6806 13.8017 29.6806 19.41ZM19.447 10.8725C14.7025 10.8725 10.8431 14.7024 10.8431 19.41C10.8431 21.278 11.4521 23.008 12.4821 24.4154L11.4071 27.5861L14.7136 26.5352C16.072 27.4272 17.6994 27.9474 19.4473 27.9474C24.1912 27.9474 28.0512 24.118 28.0512 19.4104C28.0512 14.7029 24.1914 10.8725 19.447 10.8725ZM24.6148 21.7487C24.5516 21.6451 24.3846 21.5826 24.1339 21.4582C23.8829 21.3338 22.6492 20.7314 22.4199 20.6487C22.1899 20.5658 22.0222 20.5241 21.8552 20.7731C21.6882 21.0223 21.2074 21.5826 21.0608 21.7487C20.9144 21.9152 20.7682 21.9361 20.5171 21.8114C20.2665 21.6871 19.4584 21.4239 18.5002 20.5762C17.7546 19.9165 17.251 19.1021 17.1046 18.8527C16.9585 18.6037 17.0893 18.4691 17.2146 18.3452C17.3277 18.2336 17.4657 18.0545 17.591 17.9093C17.7168 17.7638 17.7585 17.6603 17.8417 17.494C17.9257 17.3279 17.8838 17.1827 17.8208 17.0578C17.7583 16.9334 17.2561 15.7086 17.0472 15.2102C16.8383 14.7122 16.6296 14.7951 16.4829 14.7951C16.3368 14.7951 16.1693 14.7743 16.0021 14.7743C15.8349 14.7743 15.5629 14.8366 15.3329 15.0856C15.1032 15.3348 14.4553 15.937 14.4553 17.1616C14.4553 18.3864 15.3538 19.5698 15.4796 19.7356C15.6049 19.9015 17.2144 22.4966 19.7646 23.4933C22.315 24.4895 22.315 24.1571 22.775 24.1154C23.2346 24.074 24.2588 23.5134 24.4686 22.9325C24.6771 22.3507 24.6771 21.8524 24.6148 21.7487Z" fill="#72CF4E"/>
</svg>
