<svg width="40" height="39" viewBox="0 0 40 39" fill="none" xmlns="http://www.w3.org/2000/svg">
<path d="M13.6391 0.179688H26.6391C33.8151 0.205688 39.6131 6.00369 39.6392 13.1797V26.1796C39.6131 33.3557 33.8151 39.1537 26.6391 39.1797H13.6391C6.46316 39.1537 0.66516 33.3557 0.63916 26.1796V13.1797C0.66516 6.00369 6.46316 0.205688 13.6391 0.179688Z" fill="#F4F4F4"/>
<path d="M30.035 10.924C29.4092 10.3465 26.88 8.51055 21.2466 8.48561C21.2466 8.48561 14.6033 8.085 11.3648 11.0556C9.56204 12.8587 8.92787 15.497 8.86098 18.768C8.79408 22.039 8.70754 28.1691 14.6165 29.8313H14.6222L14.6184 32.3676C14.6184 32.3676 14.5806 33.3944 15.2567 33.6038C16.0746 33.8578 16.5545 33.0773 17.3354 32.2361C17.7639 31.7742 18.3558 31.0958 18.8017 30.5773C22.843 30.9174 25.9511 30.14 26.3041 30.0251C27.12 29.7606 31.7372 29.1687 32.4882 23.0394C33.2633 16.7215 32.1133 12.7253 30.035 10.924ZM30.7198 22.5863C30.086 27.7043 26.3411 28.0259 25.6506 28.2473C25.357 28.3418 22.6272 29.021 19.1944 28.7969C19.1944 28.7969 16.6366 31.8827 15.8376 32.685C15.7129 32.8105 15.5663 32.8612 15.4684 32.8362C15.3308 32.8026 15.293 32.6397 15.2945 32.4016C15.2968 32.0614 15.3164 28.1869 15.3164 28.1869C15.3164 28.1869 15.3134 28.1869 15.3164 28.1869C10.3179 26.7991 10.6093 21.5817 10.666 18.8497C10.7227 16.1176 11.2359 13.8795 12.7605 12.3742C15.4997 9.89303 21.1426 10.2638 21.1426 10.2638C25.908 10.2846 28.1915 11.7196 28.721 12.2003C30.4791 13.7056 31.3748 17.3077 30.7198 22.5848V22.5863Z" fill="#7360F2"/>
<path fill-rule="evenodd" clip-rule="evenodd" d="M21.3435 16.6397C21.3526 16.4639 21.5025 16.3289 21.6782 16.3381C22.3356 16.3724 22.8826 16.5714 23.2722 16.9742C23.6602 17.3754 23.8505 17.9359 23.8839 18.6091C23.8926 18.7849 23.7572 18.9344 23.5814 18.9431C23.4057 18.9518 23.2562 18.8164 23.2474 18.6407C23.2189 18.0644 23.0608 17.6721 22.8141 17.4171C22.569 17.1637 22.195 17.0031 21.645 16.9744C21.4693 16.9652 21.3343 16.8154 21.3435 16.6397Z" fill="#7360F2"/>
<path fill-rule="evenodd" clip-rule="evenodd" d="M20.8602 14.9238C20.8731 14.7483 21.0258 14.6164 21.2012 14.6293C22.5392 14.7272 23.616 15.1843 24.4005 16.0406L24.4006 16.0407C25.1765 16.8886 25.5452 17.9433 25.5185 19.1804C25.5147 19.3563 25.369 19.4958 25.193 19.492C25.0171 19.4882 24.8776 19.3425 24.8814 19.1666C24.905 18.0756 24.5842 17.1852 23.9305 16.4709C23.2788 15.7596 22.3678 15.3536 21.1547 15.2648C20.9792 15.2519 20.8474 15.0993 20.8602 14.9238Z" fill="#7360F2"/>
<path fill-rule="evenodd" clip-rule="evenodd" d="M20.2979 13.2922C20.2991 13.1163 20.4427 12.9746 20.6187 12.9758C22.4676 12.9887 24.0304 13.6042 25.2852 14.8275C26.5505 16.0609 27.1762 17.7401 27.1921 19.8257C27.1934 20.0017 27.0519 20.1454 26.8759 20.1467C26.7 20.1481 26.5563 20.0065 26.5549 19.8306C26.54 17.8763 25.9586 16.3738 24.8404 15.2837C23.7117 14.1834 22.3103 13.6248 20.6142 13.613C20.4383 13.6118 20.2966 13.4682 20.2979 13.2922Z" fill="#7360F2"/>
<path d="M21.7246 22.8939C21.7246 22.8939 22.1724 22.9317 22.4135 22.6346L22.8837 22.0432C23.1104 21.7499 23.6577 21.5628 24.1936 21.8614C24.5952 22.0904 24.9851 22.3394 25.3618 22.6074C25.7174 22.869 26.4457 23.4767 26.448 23.4767C26.7949 23.7696 26.875 24.1997 26.6388 24.6532C26.6388 24.6558 26.6369 24.6604 26.6369 24.6626C26.3768 25.1136 26.0465 25.5203 25.6585 25.8675C25.6539 25.8698 25.6539 25.872 25.6498 25.8743C25.3126 26.156 24.9815 26.3161 24.6562 26.3546C24.6083 26.363 24.5596 26.3661 24.5111 26.3637C24.3676 26.3651 24.2249 26.3431 24.0885 26.2987L24.0779 26.2832C23.5768 26.1419 22.7401 25.7881 21.3466 25.0194C20.5403 24.5798 19.7726 24.0727 19.0518 23.5035C18.6905 23.2184 18.3459 22.9128 18.0197 22.5882L17.9849 22.5534L17.9501 22.5186L17.9154 22.4838C17.9037 22.4725 17.8923 22.4608 17.8806 22.4491C17.556 22.1228 17.2504 21.7782 16.9653 21.4169C16.3962 20.6962 15.8891 19.9287 15.4494 19.1225C14.6807 17.7287 14.3269 16.8927 14.1856 16.3908L14.1701 16.3802C14.1258 16.2438 14.1039 16.1011 14.1054 15.9577C14.1028 15.9092 14.1057 15.8605 14.1141 15.8126C14.1547 15.4878 14.3151 15.1564 14.5952 14.8182C14.5975 14.8141 14.5998 14.8141 14.602 14.8095C14.9491 14.4215 15.3558 14.0913 15.8069 13.8314C15.8092 13.8314 15.8137 13.8292 15.8163 13.8292C16.2699 13.593 16.6999 13.6731 16.9925 14.0181C16.9947 14.0204 17.6013 14.7487 17.8617 15.1043C18.1298 15.4814 18.3787 15.8717 18.6077 16.2737C18.9063 16.8092 18.7192 17.3576 18.426 17.5836L17.8345 18.0537C17.5359 18.2948 17.5752 18.7427 17.5752 18.7427C17.5752 18.7427 18.4513 22.0583 21.7246 22.8939Z" fill="#7360F2"/>
</svg>
