<svg width="40" height="40" viewBox="0 0 40 40" fill="none" xmlns="http://www.w3.org/2000/svg">
<path d="M13.5 0.748047H26.5C33.6759 0.774047 39.4739 6.57205 39.5 13.7481V26.748C39.4739 33.9241 33.6759 39.7221 26.5 39.748H13.5C6.324 39.7221 0.526 33.9241 0.5 26.748V13.7481C0.526 6.57205 6.324 0.774047 13.5 0.748047Z" fill="#F4F4F4"/>
<path d="M16.431 23.0478L16.087 27.8862C16.5792 27.8862 16.7923 27.6748 17.0479 27.4209L19.3553 25.2158L24.1365 28.7172C25.0134 29.2059 25.6312 28.9485 25.8678 27.9105L29.0061 13.2047L29.007 13.2038C29.2851 11.9076 28.5382 11.4007 27.6839 11.7187L9.23665 18.7813C7.97766 19.27 7.99672 19.9718 9.02263 20.2898L13.7389 21.7568L24.6937 14.9021C25.2092 14.5607 25.678 14.7496 25.2924 15.091L16.431 23.0478Z" fill="#039BE5"/>
</svg>
