<svg width="48" height="48" viewBox="0 0 48 48" fill="none" xmlns="http://www.w3.org/2000/svg">
<path d="M16 0H32C36.2397 0.012242 40.3023 1.70188 43.3002 4.69982C46.2981 7.69775 47.9878 11.7603 48 16V32C47.9878 36.2397 46.2981 40.3023 43.3002 43.3002C40.3023 46.2981 36.2397 47.9878 32 48H16C11.7603 47.9878 7.69775 46.2981 4.69982 43.3002C1.70188 40.3023 0.012242 36.2397 0 32L0 16C0.012242 11.7603 1.70188 7.69775 4.69982 4.69982C7.69775 1.70188 11.7603 0.012242 16 0V0Z" fill="#FEE600"/>
<path d="M24 30C24.5523 30 25 29.5523 25 29C25 28.4477 24.5523 28 24 28C23.4477 28 23 28.4477 23 29C23 29.5523 23.4477 30 24 30Z" fill="#2B2D33"/>
<path fill-rule="evenodd" clip-rule="evenodd" d="M19 14C17.8954 14 17 14.8954 17 16V32C17 33.1046 17.8954 34 19 34H29C30.1046 34 31 33.1046 31 32V16C31 14.8954 30.1046 14 29 14H19ZM19 16L29 16V32H19V16Z" fill="#2B2D33"/>
</svg>
