<svg width="111" height="30" viewBox="0 0 111 30" fill="none" xmlns="http://www.w3.org/2000/svg">
<g clip-path="url(#clip0_44_565)">
<path d="M42.856 19.392C42.8667 19.6907 42.936 19.9467 43.064 20.16C43.192 20.3627 43.3573 20.528 43.56 20.656C43.7733 20.7733 44.008 20.8587 44.264 20.912C44.5307 20.9653 44.8027 20.992 45.08 20.992C45.2933 20.992 45.5173 20.976 45.752 20.944C45.9867 20.912 46.2 20.8533 46.392 20.768C46.5947 20.6827 46.76 20.56 46.888 20.4C47.016 20.2293 47.08 20.016 47.08 19.76C47.08 19.408 46.9467 19.1413 46.68 18.96C46.4133 18.7787 46.0773 18.6347 45.672 18.528C45.2773 18.4107 44.8453 18.3093 44.376 18.224C43.9067 18.128 43.4693 18 43.064 17.84C42.6693 17.6693 42.3387 17.4347 42.072 17.136C41.8053 16.8373 41.672 16.4213 41.672 15.888C41.672 15.472 41.7627 15.1147 41.944 14.816C42.136 14.5173 42.376 14.2773 42.664 14.096C42.9627 13.904 43.2933 13.7653 43.656 13.68C44.0293 13.584 44.3973 13.536 44.76 13.536C45.2293 13.536 45.6613 13.5787 46.056 13.664C46.4507 13.7387 46.7973 13.8773 47.096 14.08C47.4053 14.272 47.6507 14.5387 47.832 14.88C48.0133 15.2107 48.12 15.6267 48.152 16.128H46.792C46.7707 15.8613 46.7013 15.6427 46.584 15.472C46.4667 15.2907 46.3173 15.1467 46.136 15.04C45.9547 14.9333 45.752 14.8587 45.528 14.816C45.3147 14.7627 45.096 14.736 44.872 14.736C44.6693 14.736 44.4613 14.752 44.248 14.784C44.0453 14.816 43.8587 14.8747 43.688 14.96C43.5173 15.0347 43.3787 15.1413 43.272 15.28C43.1653 15.408 43.112 15.5787 43.112 15.792C43.112 16.0267 43.192 16.224 43.352 16.384C43.5227 16.5333 43.736 16.6613 43.992 16.768C44.248 16.864 44.536 16.9493 44.856 17.024C45.176 17.088 45.496 17.1573 45.816 17.232C46.1573 17.3067 46.488 17.3973 46.808 17.504C47.1387 17.6107 47.4267 17.7547 47.672 17.936C47.928 18.1067 48.1307 18.3253 48.28 18.592C48.44 18.8587 48.52 19.1893 48.52 19.584C48.52 20.0853 48.4133 20.5013 48.2 20.832C47.9973 21.1627 47.7253 21.4293 47.384 21.632C47.0533 21.8347 46.6747 21.9733 46.248 22.048C45.832 22.1333 45.416 22.176 45 22.176C44.5413 22.176 44.104 22.128 43.688 22.032C43.272 21.936 42.904 21.7813 42.584 21.568C42.264 21.344 42.008 21.056 41.816 20.704C41.624 20.3413 41.5173 19.904 41.496 19.392H42.856ZM49.5534 10.576H50.9134V14.944H50.9454C51.0521 14.688 51.2014 14.4747 51.3934 14.304C51.5854 14.1227 51.7987 13.9787 52.0334 13.872C52.2787 13.7547 52.5294 13.6693 52.7854 13.616C53.0521 13.5627 53.3081 13.536 53.5534 13.536C54.0974 13.536 54.5507 13.6107 54.9134 13.76C55.2761 13.9093 55.5694 14.1173 55.7934 14.384C56.0174 14.6507 56.1721 14.9707 56.2574 15.344C56.3534 15.7067 56.4014 16.112 56.4014 16.56V22H55.0414V16.4C55.0414 15.888 54.8921 15.4827 54.5934 15.184C54.2947 14.8853 53.8841 14.736 53.3614 14.736C52.9454 14.736 52.5827 14.8 52.2734 14.928C51.9747 15.056 51.7241 15.2373 51.5214 15.472C51.3187 15.7067 51.1641 15.984 51.0574 16.304C50.9614 16.6133 50.9134 16.9547 50.9134 17.328V22H49.5534V10.576ZM64.8214 22H63.5414V20.688H63.5094C63.2214 21.2 62.8534 21.5787 62.4054 21.824C61.9574 22.0587 61.4294 22.176 60.8214 22.176C60.2774 22.176 59.8241 22.1067 59.4614 21.968C59.0988 21.8187 58.8054 21.6107 58.5814 21.344C58.3574 21.0773 58.1974 20.7627 58.1014 20.4C58.0161 20.0267 57.9734 19.616 57.9734 19.168V13.728H59.3334V19.328C59.3334 19.84 59.4828 20.2453 59.7814 20.544C60.0801 20.8427 60.4908 20.992 61.0134 20.992C61.4294 20.992 61.7868 20.928 62.0854 20.8C62.3948 20.672 62.6508 20.4907 62.8534 20.256C63.0561 20.0213 63.2054 19.7493 63.3014 19.44C63.4081 19.12 63.4614 18.7733 63.4614 18.4V13.728H64.8214V22ZM68.2815 13.728H69.9295V14.928H68.2815V20.064C68.2815 20.224 68.2922 20.352 68.3135 20.448C68.3455 20.544 68.3988 20.6187 68.4735 20.672C68.5482 20.7253 68.6495 20.7627 68.7775 20.784C68.9162 20.7947 69.0922 20.8 69.3055 20.8H69.9295V22H68.8895C68.5375 22 68.2335 21.9787 67.9775 21.936C67.7322 21.8827 67.5295 21.792 67.3695 21.664C67.2202 21.536 67.1082 21.3547 67.0335 21.12C66.9588 20.8853 66.9215 20.576 66.9215 20.192V14.928H65.5135V13.728H66.9215V11.248H68.2815V13.728ZM72.8578 13.728H74.5058V14.928H72.8578V20.064C72.8578 20.224 72.8684 20.352 72.8898 20.448C72.9218 20.544 72.9751 20.6187 73.0498 20.672C73.1244 20.7253 73.2258 20.7627 73.3538 20.784C73.4924 20.7947 73.6684 20.8 73.8818 20.8H74.5058V22H73.4658C73.1138 22 72.8098 21.9787 72.5538 21.936C72.3084 21.8827 72.1058 21.792 71.9458 21.664C71.7964 21.536 71.6844 21.3547 71.6098 21.12C71.5351 20.8853 71.4978 20.576 71.4978 20.192V14.928H70.0898V13.728H71.4978V11.248H72.8578V13.728ZM75.6261 10.576H76.9861V22H75.6261V10.576ZM84.3663 17.072C84.345 16.752 84.2703 16.448 84.1423 16.16C84.025 15.872 83.8597 15.6267 83.6463 15.424C83.4437 15.2107 83.1983 15.0453 82.9103 14.928C82.633 14.8 82.3237 14.736 81.9823 14.736C81.6303 14.736 81.3103 14.8 81.0223 14.928C80.745 15.0453 80.505 15.2107 80.3023 15.424C80.0997 15.6373 79.9397 15.888 79.8223 16.176C79.705 16.4533 79.6357 16.752 79.6143 17.072H84.3663ZM85.6783 19.376C85.497 20.304 85.097 21.0027 84.4783 21.472C83.8597 21.9413 83.081 22.176 82.1423 22.176C81.481 22.176 80.905 22.0693 80.4143 21.856C79.9343 21.6427 79.529 21.344 79.1983 20.96C78.8677 20.576 78.617 20.1173 78.4463 19.584C78.2863 19.0507 78.1957 18.4693 78.1743 17.84C78.1743 17.2107 78.2703 16.6347 78.4623 16.112C78.6543 15.5893 78.921 15.136 79.2623 14.752C79.6143 14.368 80.025 14.0693 80.4943 13.856C80.9743 13.6427 81.497 13.536 82.0623 13.536C82.7983 13.536 83.4063 13.6907 83.8863 14C84.377 14.2987 84.7663 14.6827 85.0543 15.152C85.353 15.6213 85.5557 16.1333 85.6623 16.688C85.7797 17.2427 85.8277 17.7707 85.8063 18.272H79.6143C79.6037 18.6347 79.6463 18.9813 79.7423 19.312C79.8383 19.632 79.993 19.92 80.2063 20.176C80.4197 20.4213 80.6917 20.6187 81.0223 20.768C81.353 20.9173 81.7423 20.992 82.1903 20.992C82.7663 20.992 83.2357 20.8587 83.5983 20.592C83.9717 20.3253 84.217 19.92 84.3343 19.376H85.6783ZM88.9695 17.648L86.0895 13.728H87.8335L89.8175 16.624L91.8815 13.728H93.5135L90.6655 17.536L93.8655 22H92.1215L89.8175 18.576L87.5135 22H85.8655L88.9695 17.648Z" fill="black"/>
<rect width="29.8166" height="29.84" rx="10" fill="black"/>
<mask id="mask0_44_565" style="mask-type:luminance" maskUnits="userSpaceOnUse" x="0" y="0" width="30" height="30">
<rect width="29.8166" height="29.84" rx="10" fill="white"/>
</mask>
<g mask="url(#mask0_44_565)">
<path d="M7.21502 10.417L10.4152 13.5182C12.3621 15.4049 12.4507 18.4995 10.6149 20.4945L-0.333984 32.393" stroke="white" stroke-width="6" stroke-linecap="round"/>
<path d="M22.9276 19.3691L19.7275 16.2679C17.7806 14.3812 17.692 11.2867 19.5277 9.29168L30.4766 -2.60693" stroke="white" stroke-width="6" stroke-linecap="round"/>
</g>
</g>
<defs>
<clipPath id="clip0_44_565">
<rect width="110.666" height="29.84" fill="white"/>
</clipPath>
</defs>
</svg>
